<?xml version="1.0" standalone="no"?>
<!DOCTYPE svg PUBLIC "-//W3C//DTD SVG 20010904//EN"
 "http://www.w3.org/TR/2001/REC-SVG-20010904/DTD/svg10.dtd">
<svg version="1.0" xmlns="http://www.w3.org/2000/svg"
 width="640.000000pt" height="640.000000pt" viewBox="0 0 640.000000 640.000000"
 preserveAspectRatio="xMidYMid meet">
<metadata>
Created by potrace 1.11, written by Peter Selinger 2001-2013
</metadata>
<g transform="translate(0.000000,640.000000) scale(0.100000,-0.100000)"
fill="#000000" stroke="none">
<path d="M0 3200 l0 -3200 3200 0 3200 0 0 3200 0 3200 -3200 0 -3200 0 0
-3200z m4525 1921 c22 -10 46 -30 54 -44 13 -25 12 -29 -25 -72 -21 -26 -60
-73 -86 -105 l-48 -57 79 -7 c68 -6 82 -11 103 -34 35 -37 48 -65 48 -102 0
-42 -21 -47 -99 -26 -36 10 -97 25 -136 33 -82 16 -73 23 -159 -116 -237 -384
-417 -834 -390 -977 6 -35 6 -36 -17 -29 -70 21 -119 91 -119 167 0 56 31 194
63 281 l25 69 -26 -6 c-15 -3 -67 -9 -115 -13 l-89 -6 5 -31 c32 -191 29 -259
-16 -391 -67 -196 -171 -335 -250 -335 -34 0 -105 55 -113 86 -25 101 44 358
170 627 36 78 44 103 36 118 -9 15 -6 20 14 25 20 5 38 30 80 110 62 116 182
309 251 404 25 33 43 65 41 69 -3 4 -40 9 -83 10 -75 2 -113 15 -95 33 5 5 62
13 128 20 99 9 125 15 156 35 l37 25 44 -21 c33 -16 62 -21 124 -21 l81 0 55
78 c97 138 179 222 216 222 9 0 34 -9 56 -19z m-1798 -36 c96 -44 193 -154
193 -219 0 -43 -41 -158 -95 -267 -82 -165 -154 -292 -375 -659 -171 -284
-208 -354 -184 -347 60 18 114 28 249 48 181 26 443 24 507 -3 64 -28 125
-139 116 -213 -4 -40 -19 -40 -45 -1 -28 44 -122 91 -223 112 -123 26 -469 10
-646 -31 -14 -3 -25 -20 -37 -58 -9 -30 -17 -61 -17 -70 0 -10 -5 -17 -10 -17
-13 0 -100 86 -100 99 0 11 -88 -9 -235 -53 -141 -44 -163 -48 -170 -37 -3 6
14 21 37 34 48 28 264 111 317 122 22 5 35 14 39 29 12 50 144 287 357 641
323 538 395 682 380 762 -7 41 -38 51 -113 35 -241 -51 -622 -430 -622 -619 0
-37 5 -53 27 -75 32 -33 26 -43 -21 -34 -43 8 -112 59 -144 106 -20 29 -22 43
-17 80 37 245 368 580 640 646 80 20 134 16 192 -11z m498 -604 c46 -21 90
-62 113 -106 39 -72 8 -226 -70 -347 -130 -203 -288 -308 -394 -263 -49 20
-112 80 -130 122 -38 88 4 211 107 314 31 31 67 78 78 104 41 93 121 166 204
185 47 11 48 11 92 -9z m-819 -1637 c113 -68 160 -133 152 -209 -3 -23 -26
-84 -53 -136 -135 -270 -390 -519 -531 -519 -28 0 -74 20 -74 32 0 4 8 8 19 8
59 0 259 199 380 378 67 99 120 220 123 277 l3 50 -33 -2 c-97 -4 -449 -294
-635 -523 -131 -162 -234 -343 -272 -480 -25 -88 -25 -204 -1 -253 58 -118
270 -128 491 -23 103 48 136 71 237 159 62 54 66 60 56 83 -17 36 4 112 62
229 37 76 46 102 38 113 -9 10 -7 14 10 19 13 3 49 49 96 122 145 225 327 452
410 513 47 34 96 37 146 7 57 -34 81 -79 42 -79 -57 0 -207 -155 -342 -355
l-34 -50 29 19 c115 74 255 204 255 237 0 25 36 25 49 1 7 -14 5 -27 -11 -53
-42 -68 -216 -217 -351 -300 -48 -30 -63 -47 -120 -144 -36 -60 -80 -139 -97
-175 l-33 -65 159 160 c167 168 213 203 257 191 34 -8 97 -71 97 -96 0 -11
-25 -71 -56 -133 -71 -141 -104 -227 -104 -273 0 -29 3 -35 16 -30 46 18 131
112 297 330 161 210 229 290 286 331 59 44 102 53 139 30 49 -31 82 -68 82
-92 0 -23 -23 -32 -35 -13 -14 23 -50 7 -104 -47 -136 -137 -262 -354 -214
-370 18 -6 111 93 277 295 72 87 90 96 136 66 64 -43 64 -66 0 -194 -49 -97
-61 -140 -40 -140 35 0 119 75 202 180 44 55 146 227 154 258 4 12 12 22 19
22 14 0 84 -49 104 -74 20 -24 10 -48 -71 -171 -76 -116 -103 -167 -113 -212
-6 -29 -4 -33 15 -33 90 0 277 191 369 377 22 44 46 103 53 130 6 26 15 52 19
56 10 13 63 -18 94 -55 39 -46 30 -84 -55 -252 -39 -78 -67 -136 -62 -131 5 6
40 51 77 100 130 170 207 256 224 250 32 -12 81 -50 93 -73 11 -21 3 -40 -80
-201 -97 -188 -114 -244 -75 -249 52 -8 146 71 299 251 62 72 62 71 83 58 18
-11 3 -32 -123 -173 -100 -113 -198 -187 -256 -195 -33 -5 -46 -1 -75 21 -41
31 -75 93 -75 133 1 15 14 62 30 102 16 41 28 76 26 78 -4 4 -235 -305 -310
-416 -31 -45 -56 -88 -56 -96 0 -23 -16 -18 -55 16 -41 36 -65 77 -65 111 0
13 20 60 45 106 l45 83 -45 -38 c-137 -122 -214 -133 -259 -40 -9 19 -16 56
-16 82 l0 46 -48 -40 c-50 -42 -108 -71 -143 -71 -21 0 -74 32 -97 60 -13 16
-11 111 3 160 4 14 -22 -14 -58 -61 -124 -163 -237 -269 -288 -269 -30 0 -78
50 -96 100 l-17 48 -47 -67 c-70 -99 -174 -207 -223 -231 -41 -19 -47 -20 -79
-7 -19 8 -47 32 -63 53 -24 30 -29 47 -27 86 1 54 58 243 103 343 37 82 37 85
4 54 -45 -42 -278 -293 -300 -323 l-20 -28 -34 17 c-30 16 -34 16 -42 1 -5 -9
-34 -46 -65 -82 -159 -187 -377 -289 -545 -255 -218 44 -358 217 -358 441 0
118 89 331 207 496 181 254 467 519 673 624 96 49 120 50 196 4z m1950 -155
c61 -37 61 -52 6 -122 -66 -84 -171 -241 -188 -283 -12 -29 -17 -33 -33 -24
-30 16 -71 70 -71 94 0 25 115 220 177 301 24 30 50 55 59 55 9 0 32 -9 50
-21z"/>
<path d="M3996 4690 c-82 -89 -167 -206 -258 -356 -72 -117 -108 -181 -108
-190 0 -11 111 4 168 24 l54 18 59 129 c32 72 95 195 139 274 45 79 79 145 78
146 -2 2 -19 6 -39 10 -34 6 -38 4 -93 -55z"/>
<path d="M3506 3896 c-77 -167 -156 -413 -156 -488 0 -46 29 -32 76 39 95 140
153 376 125 498 -7 29 -9 27 -45 -49z"/>
<path d="M3150 4392 c-22 -22 -40 -44 -40 -49 0 -6 14 -16 30 -23 53 -22 85
-88 36 -76 -16 4 -35 -3 -62 -23 -62 -45 -77 -66 -70 -97 7 -25 5 -26 -25 -22
-29 5 -35 0 -80 -61 -65 -88 -91 -144 -87 -190 2 -28 8 -37 24 -39 42 -6 118
41 199 122 118 118 181 233 192 351 6 71 0 106 -23 129 -25 25 -50 19 -94 -22z"/>
</g>
</svg>
