<svg width="425" height="473" viewBox="0 0 425 473" version="1.1" xmlns="http://www.w3.org/2000/svg" xmlns:xlink="http://www.w3.org/1999/xlink">
<title>Group 3</title>
<desc>Created using Figma</desc>
<g id="Canvas" transform="translate(-3748 -133)">
<g id="Group 3">
<g id="Group">
<g id="Vector">
<use xlink:href="#path0_fill" transform="translate(3763.91 133)" fill="#D90F25" fill-opacity="0.25"/>
</g>
</g>
<g id="Group" filter="url(#filter0_d)">
<g id="Group">
<g id="Group">
<g id="Vector">
<mask id="mask0_outline_ins">
<use xlink:href="#path1_fill" fill="white" transform="translate(3934.09 356.962)"/>
</mask>
<g mask="url(#mask0_outline_ins)">
<use xlink:href="#path2_stroke_2x" transform="translate(3934.09 356.962)" fill="#CC3142" fill-opacity="0.83"/>
</g>
</g>
</g>
</g>
<g id="Group">
<g id="Group">
<g id="Vector">
<mask id="mask1_outline_ins">
<use xlink:href="#path3_fill" fill="white" transform="translate(3861.36 294.216)"/>
</mask>
<g mask="url(#mask1_outline_ins)">
<use xlink:href="#path4_stroke_2x" transform="translate(3861.36 294.216)" fill="#CC3142" fill-opacity="0.83"/>
</g>
</g>
</g>
</g>
<g id="Group">
<g id="Group">
<g id="Vector">
<mask id="mask2_outline_ins">
<use xlink:href="#path5_fill" fill="white" transform="translate(4034.74 307.498)"/>
</mask>
<g mask="url(#mask2_outline_ins)">
<use xlink:href="#path6_stroke_2x" transform="translate(4034.74 307.498)" fill="#CC3142" fill-opacity="0.83"/>
</g>
</g>
</g>
</g>
<g id="Group">
<g id="Group">
<g id="Vector">
<mask id="mask3_outline_ins">
<use xlink:href="#path7_fill" fill="white" transform="translate(4013.69 307.498)"/>
</mask>
<g mask="url(#mask3_outline_ins)">
<use xlink:href="#path8_stroke_2x" transform="translate(4013.69 307.498)" fill="#CC3142" fill-opacity="0.83"/>
</g>
</g>
</g>
</g>
</g>
<g id="Vector">
<use xlink:href="#path9_stroke" transform="translate(3763 249.79)" fill="#D90F25" fill-opacity="0.3"/>
</g>
<g id="Ellipse" filter="url(#filter1_d)">
<use xlink:href="#path10_fill" transform="translate(3758 242)" fill="#CC3142"/>
</g>
<g id="Ellipse" filter="url(#filter2_d)">
<use xlink:href="#path10_fill" transform="translate(4150 241)" fill="#CC3142"/>
</g>
<g id="Vector">
<use xlink:href="#path11_stroke" transform="translate(3964.29 364.29)" fill="#D90F25" fill-opacity="0.3"/>
</g>
<g id="Ellipse" filter="url(#filter3_d)">
<use xlink:href="#path10_fill" transform="translate(3957 583)" fill="#CC3142"/>
</g>
</g>
</g>
<defs>
<filter id="filter0_d" filterUnits="userSpaceOnUse" x="3841" y="274" width="242" height="219" color-interpolation-filters="sRGB">
<feFlood flood-opacity="0" result="BackgroundImageFix"/>
<feColorMatrix in="SourceAlpha" type="matrix" values="0 0 0 0 0 0 0 0 0 0 0 0 0 0 0 0 0 0 255 0"/>
<feOffset dx="0" dy="0"/>
<feGaussianBlur stdDeviation="10"/>
<feColorMatrix type="matrix" values="0 0 0 0 0.6 0 0 0 0 0.0156863 0 0 0 0 0.0784314 0 0 0 1 0"/>
<feBlend mode="normal" in2="BackgroundImageFix" result="effect1_dropShadow"/>
<feBlend mode="normal" in="SourceGraphic" in2="effect1_dropShadow" result="shape"/>
</filter>
<filter id="filter1_d" filterUnits="userSpaceOnUse" x="3748" y="232" width="33" height="33" color-interpolation-filters="sRGB">
<feFlood flood-opacity="0" result="BackgroundImageFix"/>
<feColorMatrix in="SourceAlpha" type="matrix" values="0 0 0 0 0 0 0 0 0 0 0 0 0 0 0 0 0 0 255 0"/>
<feOffset dx="0" dy="0"/>
<feGaussianBlur stdDeviation="5"/>
<feColorMatrix type="matrix" values="0 0 0 0 0.6 0 0 0 0 0.0156863 0 0 0 0 0.0784314 0 0 0 0.64 0"/>
<feBlend mode="normal" in2="BackgroundImageFix" result="effect1_dropShadow"/>
<feBlend mode="normal" in="SourceGraphic" in2="effect1_dropShadow" result="shape"/>
</filter>
<filter id="filter2_d" filterUnits="userSpaceOnUse" x="4140" y="231" width="33" height="33" color-interpolation-filters="sRGB">
<feFlood flood-opacity="0" result="BackgroundImageFix"/>
<feColorMatrix in="SourceAlpha" type="matrix" values="0 0 0 0 0 0 0 0 0 0 0 0 0 0 0 0 0 0 255 0"/>
<feOffset dx="0" dy="0"/>
<feGaussianBlur stdDeviation="5"/>
<feColorMatrix type="matrix" values="0 0 0 0 0.6 0 0 0 0 0.0156863 0 0 0 0 0.0784314 0 0 0 0.64 0"/>
<feBlend mode="normal" in2="BackgroundImageFix" result="effect1_dropShadow"/>
<feBlend mode="normal" in="SourceGraphic" in2="effect1_dropShadow" result="shape"/>
</filter>
<filter id="filter3_d" filterUnits="userSpaceOnUse" x="3947" y="573" width="33" height="33" color-interpolation-filters="sRGB">
<feFlood flood-opacity="0" result="BackgroundImageFix"/>
<feColorMatrix in="SourceAlpha" type="matrix" values="0 0 0 0 0 0 0 0 0 0 0 0 0 0 0 0 0 0 255 0"/>
<feOffset dx="0" dy="0"/>
<feGaussianBlur stdDeviation="5"/>
<feColorMatrix type="matrix" values="0 0 0 0 0.6 0 0 0 0 0.0156863 0 0 0 0 0.0784314 0 0 0 0.64 0"/>
<feBlend mode="normal" in2="BackgroundImageFix" result="effect1_dropShadow"/>
<feBlend mode="normal" in="SourceGraphic" in2="effect1_dropShadow" result="shape"/>
</filter>
<path id="path0_fill" d="M 198.085 2.748L 393.883 115.874L 393.883 342.126L 198.085 455.252L 2.28736 342.126L 2.28736 115.874L 198.085 2.748ZM 198.085 0L 5.45348e-08 114.5L 5.45348e-08 343.5L 198.085 458L 396.17 343.5L 396.17 114.5L 198.085 0Z"/>
<path id="path1_fill" d="M 45.7471 40.304C 49.8644 36.64 52.1517 31.602 52.1517 26.106C 52.1517 15.572 43.9172 7.328 33.3954 7.328L 27.9057 7.328L 27.9057 3.664C 27.9057 1.832 26.0759 6.98853e-06 24.246 6.98853e-06C 22.4161 6.98853e-06 20.5862 1.832 20.5862 3.664L 20.5862 7.328L 14.6391 7.328L 14.6391 3.664C 14.6391 1.832 12.8092 6.98853e-06 10.9793 6.98853e-06C 9.14943 6.98853e-06 7.31953 1.832 7.31953 3.664L 7.31953 7.328L 3.65977 7.328C 1.82988 7.328 -6.50106e-14 9.16 -6.50106e-14 10.992C -6.50106e-14 12.824 1.82988 14.656 3.65977 14.656L 7.31953 14.656L 7.31953 63.204L 7.31953 70.532L 3.65977 70.532C 1.82988 70.532 -6.50106e-14 72.364 -6.50106e-14 74.196C -6.50106e-14 76.028 1.82988 77.86 3.65977 77.86L 7.31953 77.86L 7.31953 81.524C 7.31953 83.356 9.14943 85.188 10.9793 85.188C 12.8092 85.188 14.6391 83.356 14.6391 81.524L 14.6391 77.86L 20.5862 77.86L 20.5862 81.524C 20.5862 83.356 22.4161 85.188 24.246 85.188C 26.0759 85.188 27.9057 83.356 27.9057 81.524L 27.9057 77.86L 36.1402 77.86C 47.1195 77.86 56.269 68.7 56.269 57.708C 55.8115 50.38 51.6942 43.968 45.7471 40.304ZM 14.6391 14.656L 33.3954 14.656C 36.5977 14.656 39.3425 16.03 41.6299 17.862C 43.9172 20.152 44.8322 22.9 44.8322 26.106C 44.8322 29.312 43.4598 32.06 41.6299 34.35C 39.3425 36.64 36.5977 37.556 33.3954 37.556L 14.6391 37.556L 14.6391 14.656ZM 44.8322 66.868C 42.5448 69.158 39.3425 70.532 35.6828 70.532L 14.6391 70.532L 14.6391 45.342L 35.6828 45.342C 39.3425 45.342 42.5448 46.716 44.8322 49.006C 47.1195 51.296 48.4919 54.502 48.4919 58.166C 48.4919 61.372 47.1195 64.12 44.8322 66.868Z"/>
<path id="path2_stroke_2x" d="M 45.7471 40.304L 45.0823 39.557L 44.0784 40.4504L 45.2226 41.1554L 45.7471 40.304ZM 27.9057 7.328L 26.9057 7.328L 26.9057 8.328L 27.9057 8.328L 27.9057 7.328ZM 20.5862 7.328L 20.5862 8.328L 21.5862 8.328L 21.5862 7.328L 20.5862 7.328ZM 14.6391 7.328L 13.6391 7.328L 13.6391 8.328L 14.6391 8.328L 14.6391 7.328ZM 7.31953 7.328L 7.31953 8.328L 8.31953 8.328L 8.31953 7.328L 7.31953 7.328ZM 7.31953 14.656L 8.31953 14.656L 8.31953 13.656L 7.31953 13.656L 7.31953 14.656ZM 7.31953 70.532L 7.31953 71.532L 8.31953 71.532L 8.31953 70.532L 7.31953 70.532ZM 7.31953 77.86L 8.31953 77.86L 8.31953 76.86L 7.31953 76.86L 7.31953 77.86ZM 14.6391 77.86L 14.6391 76.86L 13.6391 76.86L 13.6391 77.86L 14.6391 77.86ZM 20.5862 77.86L 21.5862 77.86L 21.5862 76.86L 20.5862 76.86L 20.5862 77.86ZM 27.9057 77.86L 27.9057 76.86L 26.9057 76.86L 26.9057 77.86L 27.9057 77.86ZM 56.269 57.708L 57.269 57.708L 57.269 57.6768L 57.267 57.6457L 56.269 57.708ZM 14.6391 14.656L 14.6391 13.656L 13.6391 13.656L 13.6391 14.656L 14.6391 14.656ZM 41.6299 17.862L 42.3374 17.1553L 42.2982 17.1161L 42.255 17.0815L 41.6299 17.862ZM 41.6299 34.35L 42.3374 35.0567L 42.3765 35.0175L 42.4111 34.9743L 41.6299 34.35ZM 14.6391 37.556L 13.6391 37.556L 13.6391 38.556L 14.6391 38.556L 14.6391 37.556ZM 44.8322 66.868L 45.5397 67.5747L 45.5717 67.5426L 45.6008 67.5078L 44.8322 66.868ZM 14.6391 70.532L 13.6391 70.532L 13.6391 71.532L 14.6391 71.532L 14.6391 70.532ZM 14.6391 45.342L 14.6391 44.342L 13.6391 44.342L 13.6391 45.342L 14.6391 45.342ZM 48.4919 58.166L 47.4919 58.166L 48.4919 58.166ZM 46.4119 41.051C 50.7395 37.1998 53.1517 31.8912 53.1517 26.106L 51.1517 26.106C 51.1517 31.3128 48.9892 36.0802 45.0823 39.557L 46.4119 41.051ZM 53.1517 26.106C 53.1517 15.0208 44.4706 6.328 33.3954 6.328L 33.3954 8.328C 43.3639 8.328 51.1517 16.1232 51.1517 26.106L 53.1517 26.106ZM 33.3954 6.328L 27.9057 6.328L 27.9057 8.328L 33.3954 8.328L 33.3954 6.328ZM 28.9057 7.328L 28.9057 3.664L 26.9057 3.664L 26.9057 7.328L 28.9057 7.328ZM 28.9057 3.664C 28.9057 2.42318 28.2961 1.26577 27.4696 0.438307C 26.6431 -0.389084 25.4866 -0.999993 24.246 -0.999993L 24.246 1.00001C 24.8353 1.00001 25.5086 1.3051 26.0545 1.8517C 26.6005 2.39824 26.9057 3.07283 26.9057 3.664L 28.9057 3.664ZM 24.246 -0.999993C 23.0054 -0.999993 21.8488 -0.389084 21.0224 0.438307C 20.1959 1.26577 19.5862 2.42318 19.5862 3.664L 21.5862 3.664C 21.5862 3.07283 21.8915 2.39824 22.4374 1.8517C 22.9834 1.3051 23.6567 1.00001 24.246 1.00001L 24.246 -0.999993ZM 19.5862 3.664L 19.5862 7.328L 21.5862 7.328L 21.5862 3.664L 19.5862 3.664ZM 20.5862 6.328L 14.6391 6.328L 14.6391 8.328L 20.5862 8.328L 20.5862 6.328ZM 15.6391 7.328L 15.6391 3.664L 13.6391 3.664L 13.6391 7.328L 15.6391 7.328ZM 15.6391 3.664C 15.6391 2.42318 15.0294 1.26577 14.2029 0.438307C 13.3765 -0.389084 12.2199 -0.999993 10.9793 -0.999993L 10.9793 1.00001C 11.5686 1.00001 12.2419 1.3051 12.7879 1.8517C 13.3338 2.39824 13.6391 3.07283 13.6391 3.664L 15.6391 3.664ZM 10.9793 -0.999993C 9.73874 -0.999993 8.58214 -0.389084 7.7557 0.438305C 6.92919 1.26577 6.31953 2.42318 6.31953 3.664L 8.31953 3.664C 8.31953 3.07283 8.62482 2.39824 9.17073 1.85171C 9.71671 1.3051 10.39 1.00001 10.9793 1.00001L 10.9793 -0.999993ZM 6.31953 3.664L 6.31953 7.328L 8.31953 7.328L 8.31953 3.664L 6.31953 3.664ZM 7.31953 6.328L 3.65977 6.328L 3.65977 8.328L 7.31953 8.328L 7.31953 6.328ZM 3.65977 6.328C 2.41918 6.328 1.2626 6.93891 0.436161 7.7663C -0.390345 8.59376 -1 9.75117 -1 10.992L 1 10.992C 1 10.4008 1.30529 9.72623 1.85119 9.1797C 2.39717 8.63309 3.07046 8.328 3.65977 8.328L 3.65977 6.328ZM -1 10.992C -1 12.2328 -0.390345 13.3902 0.436161 14.2177C 1.2626 15.0451 2.41918 15.656 3.65977 15.656L 3.65977 13.656C 3.07046 13.656 2.39717 13.3509 1.85119 12.8043C 1.30529 12.2578 1 11.5832 1 10.992L -1 10.992ZM 3.65977 15.656L 7.31953 15.656L 7.31953 13.656L 3.65977 13.656L 3.65977 15.656ZM 6.31953 14.656L 6.31953 63.204L 8.31953 63.204L 8.31953 14.656L 6.31953 14.656ZM 6.31953 63.204L 6.31953 70.532L 8.31953 70.532L 8.31953 63.204L 6.31953 63.204ZM 7.31953 69.532L 3.65977 69.532L 3.65977 71.532L 7.31953 71.532L 7.31953 69.532ZM 3.65977 69.532C 2.41919 69.532 1.2626 70.1429 0.436163 70.9703C -0.390345 71.7978 -1 72.9552 -1 74.196L 1 74.196C 1 73.6048 1.30529 72.9302 1.85119 72.3837C 2.39716 71.8371 3.07046 71.532 3.65977 71.532L 3.65977 69.532ZM -1 74.196C -1 75.4368 -0.390346 76.5942 0.436159 77.4217C 1.26259 78.2491 2.41918 78.86 3.65977 78.86L 3.65977 76.86C 3.07047 76.86 2.39717 76.5549 1.85119 76.0083C 1.30529 75.4618 1 74.7872 1 74.196L -1 74.196ZM 3.65977 78.86L 7.31953 78.86L 7.31953 76.86L 3.65977 76.86L 3.65977 78.86ZM 6.31953 77.86L 6.31953 81.524L 8.31953 81.524L 8.31953 77.86L 6.31953 77.86ZM 6.31953 81.524C 6.31953 82.7648 6.92919 83.9222 7.7557 84.7497C 8.58214 85.5771 9.73873 86.188 10.9793 86.188L 10.9793 84.188C 10.39 84.188 9.71672 83.8829 9.17073 83.3363C 8.62482 82.7898 8.31953 82.1152 8.31953 81.524L 6.31953 81.524ZM 10.9793 86.188C 12.2199 86.188 13.3765 85.5771 14.2029 84.7497C 15.0294 83.9222 15.6391 82.7648 15.6391 81.524L 13.6391 81.524C 13.6391 82.1152 13.3338 82.7898 12.7879 83.3363C 12.2419 83.8829 11.5686 84.188 10.9793 84.188L 10.9793 86.188ZM 15.6391 81.524L 15.6391 77.86L 13.6391 77.86L 13.6391 81.524L 15.6391 81.524ZM 14.6391 78.86L 20.5862 78.86L 20.5862 76.86L 14.6391 76.86L 14.6391 78.86ZM 19.5862 77.86L 19.5862 81.524L 21.5862 81.524L 21.5862 77.86L 19.5862 77.86ZM 19.5862 81.524C 19.5862 82.7648 20.1959 83.9222 21.0224 84.7497C 21.8488 85.5771 23.0054 86.188 24.246 86.188L 24.246 84.188C 23.6567 84.188 22.9834 83.8829 22.4374 83.3363C 21.8915 82.7898 21.5862 82.1152 21.5862 81.524L 19.5862 81.524ZM 24.246 86.188C 25.4866 86.188 26.6431 85.5771 27.4696 84.7497C 28.2961 83.9222 28.9057 82.7648 28.9057 81.524L 26.9057 81.524C 26.9057 82.1152 26.6005 82.7898 26.0545 83.3363C 25.5086 83.8829 24.8353 84.188 24.246 84.188L 24.246 86.188ZM 28.9057 81.524L 28.9057 77.86L 26.9057 77.86L 26.9057 81.524L 28.9057 81.524ZM 27.9057 78.86L 36.1402 78.86L 36.1402 76.86L 27.9057 76.86L 27.9057 78.86ZM 36.1402 78.86C 47.6729 78.86 57.269 69.2512 57.269 57.708L 55.269 57.708C 55.269 68.1488 46.5662 76.86 36.1402 76.86L 36.1402 78.86ZM 57.267 57.6457C 56.7883 49.9776 52.4817 43.2786 46.2717 39.4526L 45.2226 41.1554C 50.9068 44.6574 54.8347 50.7825 55.2709 57.7703L 57.267 57.6457ZM 14.6391 15.656L 33.3954 15.656L 33.3954 13.656L 14.6391 13.656L 14.6391 15.656ZM 33.3954 15.656C 36.3677 15.6292 38.8031 16.8721 41.0047 18.6425L 42.255 17.0815C 39.8819 15.1879 36.8277 13.6828 33.3954 13.656L 33.3954 15.656ZM 40.9224 18.5687C 42.9892 20.6379 43.8322 23.1139 43.8322 26.106L 45.8322 26.106C 45.8322 22.6861 44.8453 19.6661 42.3374 17.1553L 40.9224 18.5687ZM 43.8322 26.106C 43.8589 29.0825 42.6171 31.5215 40.8487 33.7258L 42.4111 34.9743C 44.3024 32.5985 45.8055 29.5415 45.8322 26.106L 43.8322 26.106ZM 40.9224 33.6433C 38.8557 35.7124 36.3831 36.556 33.3954 36.556L 33.3954 38.556C 36.8123 38.556 39.8294 37.5676 42.3374 35.0567L 40.9224 33.6433ZM 33.3954 36.556L 14.6391 36.556L 14.6391 38.556L 33.3954 38.556L 33.3954 36.556ZM 15.6391 37.556L 15.6391 14.656L 13.6391 14.656L 13.6391 37.556L 15.6391 37.556ZM 44.1247 66.1613C 42.0307 68.2577 39.0854 69.532 35.6828 69.532L 35.6828 71.532C 39.5996 71.532 43.059 70.0583 45.5397 67.5747L 44.1247 66.1613ZM 35.6828 69.532L 14.6391 69.532L 14.6391 71.532L 35.6828 71.532L 35.6828 69.532ZM 15.6391 70.532L 15.6391 45.342L 13.6391 45.342L 13.6391 70.532L 15.6391 70.532ZM 14.6391 46.342L 35.6828 46.342L 35.6828 44.342L 14.6391 44.342L 14.6391 46.342ZM 35.6828 46.342C 39.0854 46.342 42.0307 47.6163 44.1247 49.7127L 45.5397 48.2993C 43.059 45.8157 39.5996 44.342 35.6828 44.342L 35.6828 46.342ZM 44.1247 49.7127C 46.2187 51.8092 47.4919 54.7584 47.4919 58.166L 49.4919 58.166C 49.4919 54.2456 48.0203 50.7828 45.5397 48.2993L 44.1247 49.7127ZM 47.4919 58.166C 47.4919 61.0521 46.2678 63.5802 44.0636 66.2283L 45.6008 67.5078C 47.9713 64.6598 49.4919 61.6919 49.4919 58.166L 47.4919 58.166Z"/>
<path id="path3_fill" d="M 190.766 3.49426e-06L 10.5218 3.49426e-06C 4.57471 3.49426e-06 1.74511e-06 4.58 1.74511e-06 10.534L 1.74511e-06 167.628C 1.74511e-06 173.582 4.57471 178.162 10.5218 178.162L 190.766 178.162C 196.713 178.162 201.287 173.582 201.287 167.628L 201.287 10.534C 201.287 4.58 196.713 3.49426e-06 190.766 3.49426e-06ZM 193.51 167.628C 193.51 169.002 192.138 170.376 190.766 170.376L 10.5218 170.376C 9.14942 170.376 7.77701 169.002 7.77701 167.628L 7.77701 40.762L 193.51 40.762L 193.51 167.628ZM 193.51 32.976L 7.77701 32.976L 7.77701 10.534C 7.77701 9.16 9.14942 7.78601 10.5218 7.78601L 190.766 7.78601C 192.138 7.78601 193.51 9.16 193.51 10.534L 193.51 32.976Z"/>
<path id="path4_stroke_2x" d="M 7.77701 40.762L 7.77701 39.762L 6.77701 39.762L 6.77701 40.762L 7.77701 40.762ZM 193.51 40.762L 194.51 40.762L 194.51 39.762L 193.51 39.762L 193.51 40.762ZM 193.51 32.976L 193.51 33.976L 194.51 33.976L 194.51 32.976L 193.51 32.976ZM 7.77701 32.976L 6.77701 32.976L 6.77701 33.976L 7.77701 33.976L 7.77701 32.976ZM 190.766 -0.999996L 10.5218 -0.999996L 10.5218 1L 190.766 1L 190.766 -0.999996ZM 10.5218 -0.999996C 4.02134 -0.999996 -0.999998 4.0288 -0.999998 10.534L 1 10.534C 1 5.1312 5.12809 1 10.5218 1L 10.5218 -0.999996ZM -0.999998 10.534L -0.999998 167.628L 1 167.628L 1 10.534L -0.999998 10.534ZM -0.999998 167.628C -0.999998 174.133 4.02134 179.162 10.5218 179.162L 10.5218 177.162C 5.12808 177.162 1 173.031 1 167.628L -0.999998 167.628ZM 10.5218 179.162L 190.766 179.162L 190.766 177.162L 10.5218 177.162L 10.5218 179.162ZM 190.766 179.162C 197.266 179.162 202.287 174.133 202.287 167.628L 200.287 167.628C 200.287 173.031 196.159 177.162 190.766 177.162L 190.766 179.162ZM 202.287 167.628L 202.287 10.534L 200.287 10.534L 200.287 167.628L 202.287 167.628ZM 202.287 10.534C 202.287 4.0288 197.266 -0.999996 190.766 -0.999996L 190.766 1C 196.159 1 200.287 5.1312 200.287 10.534L 202.287 10.534ZM 192.51 167.628C 192.51 167.99 192.319 168.436 191.945 168.811C 191.571 169.185 191.126 169.376 190.766 169.376L 190.766 171.376C 191.777 171.376 192.705 170.88 193.36 170.224C 194.015 169.568 194.51 168.64 194.51 167.628L 192.51 167.628ZM 190.766 169.376L 10.5218 169.376L 10.5218 171.376L 190.766 171.376L 190.766 169.376ZM 10.5218 169.376C 10.1613 169.376 9.71671 169.185 9.34228 168.811C 8.96793 168.436 8.77701 167.99 8.77701 167.628L 6.77701 167.628C 6.77701 168.64 7.2723 169.568 7.92725 170.224C 8.58214 170.88 9.50999 171.376 10.5218 171.376L 10.5218 169.376ZM 8.77701 167.628L 8.77701 40.762L 6.77701 40.762L 6.77701 167.628L 8.77701 167.628ZM 7.77701 41.762L 193.51 41.762L 193.51 39.762L 7.77701 39.762L 7.77701 41.762ZM 192.51 40.762L 192.51 167.628L 194.51 167.628L 194.51 40.762L 192.51 40.762ZM 193.51 31.976L 7.77701 31.976L 7.77701 33.976L 193.51 33.976L 193.51 31.976ZM 8.77701 32.976L 8.77701 10.534L 6.77701 10.534L 6.77701 32.976L 8.77701 32.976ZM 8.77701 10.534C 8.77701 10.1718 8.96793 9.72624 9.34228 9.35145C 9.71671 8.9766 10.1613 8.78601 10.5218 8.78601L 10.5218 6.78601C 9.50999 6.78601 8.58214 7.28241 7.92725 7.93805C 7.2723 8.59377 6.77701 9.52218 6.77701 10.534L 8.77701 10.534ZM 10.5218 8.78601L 190.766 8.78601L 190.766 6.78601L 10.5218 6.78601L 10.5218 8.78601ZM 190.766 8.78601C 191.126 8.78601 191.571 8.9766 191.945 9.35145C 192.319 9.72624 192.51 10.1718 192.51 10.534L 194.51 10.534C 194.51 9.52217 194.015 8.59376 193.36 7.93805C 192.705 7.28241 191.777 6.78601 190.766 6.78601L 190.766 8.78601ZM 192.51 10.534L 192.51 32.976L 194.51 32.976L 194.51 10.534L 192.51 10.534Z"/>
<path id="path5_fill" d="M 6.4046 12.824C 9.94177 12.824 12.8092 9.95325 12.8092 6.412C 12.8092 2.87075 9.94177 -6.98853e-06 6.4046 -6.98853e-06C 2.86744 -6.98853e-06 0 2.87075 0 6.412C 0 9.95325 2.86744 12.824 6.4046 12.824Z"/>
<path id="path6_stroke_2x" d="M 11.8092 6.412C 11.8092 9.40206 9.38839 11.824 6.4046 11.824L 6.4046 13.824C 10.4951 13.824 13.8092 10.5044 13.8092 6.412L 11.8092 6.412ZM 6.4046 11.824C 3.42082 11.824 1 9.40205 1 6.412L -1 6.412C -1 10.5044 2.31407 13.824 6.4046 13.824L 6.4046 11.824ZM 1 6.412C 1 3.42195 3.42082 0.999993 6.4046 0.999993L 6.4046 -1.00001C 2.31407 -1.00001 -1 2.31955 -1 6.412L 1 6.412ZM 6.4046 0.999993C 9.38839 0.999993 11.8092 3.42194 11.8092 6.412L 13.8092 6.412C 13.8092 2.31956 10.4951 -1.00001 6.4046 -1.00001L 6.4046 0.999993Z"/>
<path id="path7_fill" d="M 6.40459 12.824C 9.94176 12.824 12.8092 9.95325 12.8092 6.412C 12.8092 2.87075 9.94176 -6.98853e-06 6.40459 -6.98853e-06C 2.86743 -6.98853e-06 6.98046e-06 2.87075 6.98046e-06 6.412C 6.98046e-06 9.95325 2.86743 12.824 6.40459 12.824Z"/>
<path id="path8_stroke_2x" d="M 11.8092 6.412C 11.8092 9.40205 9.38838 11.824 6.40459 11.824L 6.40459 13.824C 10.4951 13.824 13.8092 10.5044 13.8092 6.412L 11.8092 6.412ZM 6.40459 11.824C 3.42081 11.824 1.00001 9.40206 1.00001 6.412L -0.999993 6.412C -0.999993 10.5044 2.31406 13.824 6.40459 13.824L 6.40459 11.824ZM 1.00001 6.412C 1.00001 3.42194 3.42081 0.999993 6.40459 0.999993L 6.40459 -1.00001C 2.31406 -1.00001 -0.999993 2.31956 -0.999993 6.412L 1.00001 6.412ZM 6.40459 0.999993C 9.38838 0.999993 11.8092 3.42195 11.8092 6.412L 13.8092 6.412C 13.8092 2.31956 10.4951 -1.00001 6.40459 -1.00001L 6.40459 0.999993Z"/>
<path id="path9_stroke" d="M 201.287 114.5L 200.793 115.369L 201.293 115.654L 201.79 115.364L 201.287 114.5ZM -0.494441 0.869211L 200.793 115.369L 201.782 113.631L 0.494441 -0.869211L -0.494441 0.869211ZM 201.79 115.364L 398.503 0.864255L 397.497 -0.864255L 200.784 113.636L 201.79 115.364Z"/>
<path id="path10_fill" d="M 13 6.5C 13 10.0899 10.0899 13 6.5 13C 2.91015 13 0 10.0899 0 6.5C 0 2.91015 2.91015 0 6.5 0C 10.0899 0 13 2.91015 13 6.5Z"/>
<path id="path11_stroke" d="M -1 0L -1 224.42L 1 224.42L 1 0L -1 0Z"/>
</defs>
</svg>
