<svg width="425" height="473" viewBox="0 0 425 473" version="1.1" xmlns="http://www.w3.org/2000/svg" xmlns:xlink="http://www.w3.org/1999/xlink">
<title>Group 6</title>
<desc>Created using Figma</desc>
<g id="Canvas" transform="translate(-10408 -133)">
<g id="Group 6">
<g id="Group 2">
<g id="Group">
<g id="Vector">
<use xlink:href="#path0_fill" transform="translate(10423.9 133)" fill="#D90F25" fill-opacity="0.25"/>
</g>
</g>
<g id="Vector">
<use xlink:href="#path1_stroke" transform="translate(10423 249.79)" fill="#D90F25" fill-opacity="0.3"/>
</g>
<g id="Ellipse" filter="url(#filter0_d)">
<use xlink:href="#path2_fill" transform="translate(10418 242)" fill="#CC3142"/>
</g>
<g id="Ellipse" filter="url(#filter1_d)">
<use xlink:href="#path2_fill" transform="translate(10810 241)" fill="#CC3142"/>
</g>
<g id="Vector">
<use xlink:href="#path3_stroke" transform="translate(10624.3 364.29)" fill="#D90F25" fill-opacity="0.3"/>
</g>
<g id="Ellipse" filter="url(#filter2_d)">
<use xlink:href="#path2_fill" transform="translate(10617 583)" fill="#CC3142"/>
</g>
</g>
<g id="tghdrt" filter="url(#filter3_d)">
<g id="Group">
<g id="Group">
<clipPath id="clip-0" clip-rule="evenodd">
<path d="M 10563.6 321.096L 10725.5 321.096L 10725.5 458.563L 10563.6 458.563L 10563.6 321.096Z" fill="#FFFFFF"/>
</clipPath>
<g id="Group" clip-path="url(#clip-0)">
</g>
</g>
<g id="Group">
<g id="Group">
<g id="Group">
<g id="Vector">
<mask id="mask0_outline_ins">
<use xlink:href="#path4_fill" fill="white" transform="translate(10562.2 435.544)"/>
</mask>
<g mask="url(#mask0_outline_ins)">
<use xlink:href="#path5_stroke_2x" transform="translate(10562.2 435.544)" fill="#CC3142" fill-opacity="0.83"/>
</g>
</g>
</g>
</g>
<g id="Group">
<g id="Group">
<g id="Group">
<g id="Vector">
<mask id="mask1_outline_ins">
<use xlink:href="#path6_fill" fill="white" transform="translate(10623.7 319.59)"/>
</mask>
<g mask="url(#mask1_outline_ins)">
<use xlink:href="#path7_stroke_2x" transform="translate(10623.7 319.59)" fill="#CC3142" fill-opacity="0.83"/>
</g>
</g>
</g>
</g>
<g id="Group">
<g id="Group">
<g id="Vector">
<mask id="mask2_outline_ins">
<use xlink:href="#path8_fill" fill="white" transform="translate(10583.5 319.663)"/>
</mask>
<g mask="url(#mask2_outline_ins)">
<use xlink:href="#path9_stroke_2x" transform="translate(10583.5 319.663)" fill="#CC3142" fill-opacity="0.83"/>
</g>
</g>
</g>
</g>
</g>
</g>
<g id="Group">
<g id="Group">
<g id="Group">
<g id="Vector">
<mask id="mask3_outline_ins">
<use xlink:href="#path10_fill" fill="white" transform="translate(10516.1 370.576)"/>
</mask>
<g mask="url(#mask3_outline_ins)">
<use xlink:href="#path11_stroke_2x" transform="translate(10516.1 370.576)" fill="#CC3142" fill-opacity="0.83"/>
</g>
</g>
</g>
</g>
<g id="Group">
<g id="Group">
<g id="Group">
<g id="Vector">
<mask id="mask4_outline_ins">
<use xlink:href="#path12_fill" fill="white" transform="translate(10563.7 273.41)"/>
</mask>
<g mask="url(#mask4_outline_ins)">
<use xlink:href="#path13_stroke_2x" transform="translate(10563.7 273.41)" fill="#CC3142" fill-opacity="0.83"/>
</g>
</g>
</g>
</g>
<g id="Group">
<g id="Group">
<g id="Vector">
<mask id="mask5_outline_ins">
<use xlink:href="#path14_fill" fill="white" transform="translate(10532.8 273.41)"/>
</mask>
<g mask="url(#mask5_outline_ins)">
<use xlink:href="#path15_stroke_2x" transform="translate(10532.8 273.41)" fill="#CC3142" fill-opacity="0.83"/>
</g>
</g>
</g>
</g>
</g>
</g>
<g id="Group">
<g id="Group">
<g id="Vector">
<mask id="mask6_outline_ins">
<use xlink:href="#path16_fill" fill="white" transform="translate(10518.9 402.988)"/>
</mask>
<g mask="url(#mask6_outline_ins)">
<use xlink:href="#path17_stroke_2x" transform="translate(10518.9 402.988)" fill="#CC3142" fill-opacity="0.83"/>
</g>
</g>
</g>
</g>
<g id="Group">
<g id="Group">
<g id="Vector">
<mask id="mask7_outline_ins">
<use xlink:href="#path18_fill" fill="white" transform="translate(10625.7 260)"/>
</mask>
<g mask="url(#mask7_outline_ins)">
<use xlink:href="#path19_stroke_2x" transform="translate(10625.7 260)" fill="#CC3142" fill-opacity="0.83"/>
</g>
</g>
</g>
</g>
<g id="Group">
<g id="Group">
<g id="Vector">
<mask id="mask8_outline_ins">
<use xlink:href="#path20_fill" fill="white" transform="translate(10509 401.411)"/>
</mask>
<g mask="url(#mask8_outline_ins)">
<use xlink:href="#path21_stroke_2x" transform="translate(10509 401.411)" fill="#CC3142" fill-opacity="0.83"/>
</g>
</g>
</g>
</g>
<g id="Group">
<g id="Group">
<g id="Vector">
<mask id="mask9_outline_ins">
<use xlink:href="#path22_fill" fill="white" transform="translate(10676.3 293.058)"/>
</mask>
<g mask="url(#mask9_outline_ins)">
<use xlink:href="#path23_stroke_2x" transform="translate(10676.3 293.058)" fill="#CC3142" fill-opacity="0.83"/>
</g>
</g>
</g>
</g>
<g id="Group">
<g id="Group">
<g id="Vector">
<mask id="mask10_outline_ins">
<use xlink:href="#path24_fill" fill="white" transform="translate(10511.5 262.008)"/>
</mask>
<g mask="url(#mask10_outline_ins)">
<use xlink:href="#path25_stroke_2x" transform="translate(10511.5 262.008)" fill="#CC3142" fill-opacity="0.83"/>
</g>
</g>
</g>
</g>
<g id="Group">
<g id="Group">
<g id="Vector">
<mask id="mask11_outline_ins">
<use xlink:href="#path26_fill" fill="white" transform="translate(10518.8 269.394)"/>
</mask>
<g mask="url(#mask11_outline_ins)">
<use xlink:href="#path27_stroke_2x" transform="translate(10518.8 269.394)" fill="#CC3142" fill-opacity="0.83"/>
</g>
</g>
</g>
</g>
<g id="Group">
<g id="Group">
<g id="Vector">
<mask id="mask12_outline_ins">
<use xlink:href="#path26_fill" fill="white" transform="translate(10518.8 269.394)"/>
</mask>
<g mask="url(#mask12_outline_ins)">
<use xlink:href="#path27_stroke_2x" transform="translate(10518.8 269.394)" fill="#CC3142" fill-opacity="0.83"/>
</g>
</g>
</g>
</g>
<clipPath id="clip-1" clip-rule="evenodd">
<path d="M 10668.9 429.09L 10717.4 429.09L 10717.4 477.422L 10668.9 477.422L 10668.9 429.09Z" fill="#FFFFFF"/>
</clipPath>
<g id="Group" clip-path="url(#clip-1)">
</g>
<g id="Group">
<g id="Group">
<g id="Vector">
<mask id="mask13_outline_ins">
<use xlink:href="#path28_fill" fill="white" transform="translate(10667.3 427.656)"/>
</mask>
<g mask="url(#mask13_outline_ins)">
<use xlink:href="#path29_stroke_2x" transform="translate(10667.3 427.656)" fill="#CC3142" fill-opacity="0.83"/>
</g>
</g>
</g>
</g>
<g id="Group">
<g id="Group">
<g id="Vector">
<mask id="mask14_outline_ins">
<use xlink:href="#path30_fill" fill="white" transform="translate(10672.9 433.178)"/>
</mask>
<g mask="url(#mask14_outline_ins)">
<use xlink:href="#path31_stroke_2x" transform="translate(10672.9 433.178)" fill="#CC3142" fill-opacity="0.83"/>
</g>
</g>
</g>
</g>
<g id="Group">
<g id="Group">
<g id="Vector">
<mask id="mask15_outline_ins">
<use xlink:href="#path30_fill" fill="white" transform="translate(10672.9 433.178)"/>
</mask>
<g mask="url(#mask15_outline_ins)">
<use xlink:href="#path31_stroke_2x" transform="translate(10672.9 433.178)" fill="#CC3142" fill-opacity="0.83"/>
</g>
</g>
</g>
</g>
<g id="Group">
<g id="Group">
<g id="Vector">
<mask id="mask16_outline_ins">
<use xlink:href="#path32_fill" fill="white" transform="translate(10685.3 446.157)"/>
</mask>
<g mask="url(#mask16_outline_ins)">
<use xlink:href="#path33_stroke_2x" transform="translate(10685.3 446.157)" fill="#CC3142" fill-opacity="0.83"/>
</g>
</g>
</g>
</g>
<g id="Group">
<g id="Group">
<g id="Vector">
<mask id="mask17_outline_ins">
<use xlink:href="#path34_fill" fill="white" transform="translate(10622.5 357.596)"/>
</mask>
<g mask="url(#mask17_outline_ins)">
<use xlink:href="#path35_stroke_2x" transform="translate(10622.5 357.596)" fill="#CC3142" fill-opacity="0.83"/>
</g>
</g>
</g>
</g>
<g id="Group">
<g id="Group">
<g id="Vector">
<mask id="mask18_outline_ins">
<use xlink:href="#path36_fill" fill="white" transform="translate(10622.5 370.576)"/>
</mask>
<g mask="url(#mask18_outline_ins)">
<use xlink:href="#path37_stroke_2x" transform="translate(10622.5 370.576)" fill="#CC3142" fill-opacity="0.83"/>
</g>
</g>
</g>
</g>
<g id="Group">
<g id="Group">
<g id="Vector">
<mask id="mask19_outline_ins">
<use xlink:href="#path36_fill" fill="white" transform="translate(10622.5 383.483)"/>
</mask>
<g mask="url(#mask19_outline_ins)">
<use xlink:href="#path37_stroke_2x" transform="translate(10622.5 383.483)" fill="#CC3142" fill-opacity="0.83"/>
</g>
</g>
</g>
</g>
<g id="Group">
<g id="Group">
<g id="Vector">
<mask id="mask20_outline_ins">
<use xlink:href="#path38_fill" fill="white" transform="translate(10622.5 396.463)"/>
</mask>
<g mask="url(#mask20_outline_ins)">
<use xlink:href="#path39_stroke_2x" transform="translate(10622.5 396.463)" fill="#CC3142" fill-opacity="0.83"/>
</g>
</g>
</g>
</g>
<g id="Group">
<g id="Group">
<g id="Vector">
<mask id="mask21_outline_ins">
<use xlink:href="#path38_fill" fill="white" transform="translate(10622.5 409.37)"/>
</mask>
<g mask="url(#mask21_outline_ins)">
<use xlink:href="#path39_stroke_2x" transform="translate(10622.5 409.37)" fill="#CC3142" fill-opacity="0.83"/>
</g>
</g>
</g>
</g>
<g id="Group">
<g id="Group">
<g id="Vector">
<mask id="mask22_outline_ins">
<use xlink:href="#path40_fill" fill="white" transform="translate(10622.5 422.35)"/>
</mask>
<g mask="url(#mask22_outline_ins)">
<use xlink:href="#path41_stroke_2x" transform="translate(10622.5 422.35)" fill="#CC3142" fill-opacity="0.83"/>
</g>
</g>
</g>
</g>
<g id="Group">
<g id="Group">
<g id="Vector">
<mask id="mask23_outline_ins">
<use xlink:href="#path42_fill" fill="white" transform="translate(10561.2 315.503)"/>
</mask>
<g mask="url(#mask23_outline_ins)">
<use xlink:href="#path43_stroke_2x" transform="translate(10561.2 315.503)" fill="#CC3142" fill-opacity="0.83"/>
</g>
</g>
</g>
</g>
<g id="Group">
<g id="Group">
<g id="Vector">
<mask id="mask24_outline_ins">
<use xlink:href="#path44_fill" fill="white" transform="translate(10561.2 325.757)"/>
</mask>
<g mask="url(#mask24_outline_ins)">
<use xlink:href="#path45_stroke_2x" transform="translate(10561.2 325.757)" fill="#CC3142" fill-opacity="0.83"/>
</g>
</g>
</g>
</g>
<g id="Group">
<g id="Group">
<g id="Vector">
<mask id="mask25_outline_ins">
<use xlink:href="#path46_fill" fill="white" transform="translate(10561.2 336.083)"/>
</mask>
<g mask="url(#mask25_outline_ins)">
<use xlink:href="#path47_stroke_2x" transform="translate(10561.2 336.083)" fill="#CC3142" fill-opacity="0.83"/>
</g>
</g>
</g>
</g>
<g id="Group">
<g id="Group">
<g id="Vector">
<mask id="mask26_outline_ins">
<use xlink:href="#path48_fill" fill="white" transform="translate(10561.2 346.41)"/>
</mask>
<g mask="url(#mask26_outline_ins)">
<use xlink:href="#path49_stroke_2x" transform="translate(10561.2 346.41)" fill="#CC3142" fill-opacity="0.83"/>
</g>
</g>
</g>
</g>
<g id="Group">
<g id="Group">
<g id="Vector">
<mask id="mask27_outline_ins">
<use xlink:href="#path50_fill" fill="white" transform="translate(10561.2 356.736)"/>
</mask>
<g mask="url(#mask27_outline_ins)">
<use xlink:href="#path51_stroke_2x" transform="translate(10561.2 356.736)" fill="#CC3142" fill-opacity="0.83"/>
</g>
</g>
</g>
</g>
<g id="Group">
<g id="Group">
<g id="Vector">
<mask id="mask28_outline_ins">
<use xlink:href="#path52_fill" fill="white" transform="translate(10561.2 367.062)"/>
</mask>
<g mask="url(#mask28_outline_ins)">
<use xlink:href="#path53_stroke_2x" transform="translate(10561.2 367.062)" fill="#CC3142" fill-opacity="0.83"/>
</g>
</g>
</g>
</g>
<g id="Group">
<g id="Group">
<g id="Vector">
<mask id="mask29_outline_ins">
<use xlink:href="#path54_fill" fill="white" transform="translate(10529 281.083)"/>
</mask>
<g mask="url(#mask29_outline_ins)">
<use xlink:href="#path55_stroke_2x" transform="translate(10529 281.083)" fill="#CC3142" fill-opacity="0.83"/>
</g>
</g>
</g>
</g>
</g>
</g>
</g>
</g>
<defs>
<filter id="filter0_d" filterUnits="userSpaceOnUse" x="10408" y="232" width="33" height="33" color-interpolation-filters="sRGB">
<feFlood flood-opacity="0" result="BackgroundImageFix"/>
<feColorMatrix in="SourceAlpha" type="matrix" values="0 0 0 0 0 0 0 0 0 0 0 0 0 0 0 0 0 0 255 0"/>
<feOffset dx="0" dy="0"/>
<feGaussianBlur stdDeviation="5"/>
<feColorMatrix type="matrix" values="0 0 0 0 0.6 0 0 0 0 0.0156863 0 0 0 0 0.0784314 0 0 0 0.64 0"/>
<feBlend mode="normal" in2="BackgroundImageFix" result="effect1_dropShadow"/>
<feBlend mode="normal" in="SourceGraphic" in2="effect1_dropShadow" result="shape"/>
</filter>
<filter id="filter1_d" filterUnits="userSpaceOnUse" x="10800" y="231" width="33" height="33" color-interpolation-filters="sRGB">
<feFlood flood-opacity="0" result="BackgroundImageFix"/>
<feColorMatrix in="SourceAlpha" type="matrix" values="0 0 0 0 0 0 0 0 0 0 0 0 0 0 0 0 0 0 255 0"/>
<feOffset dx="0" dy="0"/>
<feGaussianBlur stdDeviation="5"/>
<feColorMatrix type="matrix" values="0 0 0 0 0.6 0 0 0 0 0.0156863 0 0 0 0 0.0784314 0 0 0 0.64 0"/>
<feBlend mode="normal" in2="BackgroundImageFix" result="effect1_dropShadow"/>
<feBlend mode="normal" in="SourceGraphic" in2="effect1_dropShadow" result="shape"/>
</filter>
<filter id="filter2_d" filterUnits="userSpaceOnUse" x="10607" y="573" width="33" height="33" color-interpolation-filters="sRGB">
<feFlood flood-opacity="0" result="BackgroundImageFix"/>
<feColorMatrix in="SourceAlpha" type="matrix" values="0 0 0 0 0 0 0 0 0 0 0 0 0 0 0 0 0 0 255 0"/>
<feOffset dx="0" dy="0"/>
<feGaussianBlur stdDeviation="5"/>
<feColorMatrix type="matrix" values="0 0 0 0 0.6 0 0 0 0 0.0156863 0 0 0 0 0.0784314 0 0 0 0.64 0"/>
<feBlend mode="normal" in2="BackgroundImageFix" result="effect1_dropShadow"/>
<feBlend mode="normal" in="SourceGraphic" in2="effect1_dropShadow" result="shape"/>
</filter>
<filter id="filter3_d" filterUnits="userSpaceOnUse" x="10489" y="240" width="258" height="259" color-interpolation-filters="sRGB">
<feFlood flood-opacity="0" result="BackgroundImageFix"/>
<feColorMatrix in="SourceAlpha" type="matrix" values="0 0 0 0 0 0 0 0 0 0 0 0 0 0 0 0 0 0 255 0"/>
<feOffset dx="0" dy="0"/>
<feGaussianBlur stdDeviation="10"/>
<feColorMatrix type="matrix" values="0 0 0 0 0.6 0 0 0 0 0.0156863 0 0 0 0 0.0784314 0 0 0 1 0"/>
<feBlend mode="normal" in2="BackgroundImageFix" result="effect1_dropShadow"/>
<feBlend mode="normal" in="SourceGraphic" in2="effect1_dropShadow" result="shape"/>
</filter>
<path id="path0_fill" d="M 198.085 2.748L 393.883 115.874L 393.883 342.126L 198.085 455.252L 2.28736 342.126L 2.28736 115.874L 198.085 2.748ZM 198.085 0L 5.45348e-08 114.5L 5.45348e-08 343.5L 198.085 458L 396.17 343.5L 396.17 114.5L 198.085 0Z"/>
<path id="path1_stroke" d="M 201.287 114.5L 200.793 115.369L 201.293 115.654L 201.79 115.364L 201.287 114.5ZM -0.494441 0.869211L 200.793 115.369L 201.782 113.631L 0.494441 -0.869211L -0.494441 0.869211ZM 201.79 115.364L 398.503 0.864255L 397.497 -0.864255L 200.784 113.636L 201.79 115.364Z"/>
<path id="path2_fill" d="M 13 6.5C 13 10.0899 10.0899 13 6.5 13C 2.91015 13 0 10.0899 0 6.5C 0 2.91015 2.91015 0 6.5 0C 10.0899 0 13 2.91015 13 6.5Z"/>
<path id="path3_stroke" d="M -1 0L -1 224.42L 1 224.42L 1 0L -1 0Z"/>
<path id="path4_fill" d="M 21.5406 24.5246L 21.3966 24.5246C 15.9214 24.0943 10.6623 21.7279 6.77197 17.8556C 2.37739 13.4813 2.19856e-06 7.67288 2.19856e-06 1.50589L 2.19856e-06 2.18839e-06L 43.1533 2.18839e-06L 43.1533 1.50589C 43.1533 7.67288 40.7039 13.4813 36.3814 17.8556C 32.419 21.7279 27.232 24.166 21.7568 24.5246L 21.5406 24.5246ZM 3.02578 2.94007C 3.38599 7.74459 5.40317 12.1906 8.8612 15.7043C 12.2472 19.0747 16.7138 21.1542 21.4686 21.5128C 26.2234 21.1542 30.69 19.0747 34.076 15.7043C 37.534 12.2623 39.5512 7.74459 39.9114 2.94007L 3.02578 2.94007Z"/>
<path id="path5_stroke_2x" d="M 21.3966 24.5246L 21.3182 25.5215L 21.3573 25.5246L 21.3966 25.5246L 21.3966 24.5246ZM 2.19856e-06 2.18839e-06L 2.19856e-06 -0.999998L -0.999998 -0.999998L -0.999998 2.18839e-06L 2.19856e-06 2.18839e-06ZM 43.1533 2.18839e-06L 44.1533 2.18839e-06L 44.1533 -0.999998L 43.1533 -0.999998L 43.1533 2.18839e-06ZM 36.3814 17.8556L 37.0803 18.5708L 37.0865 18.5647L 37.0927 18.5585L 36.3814 17.8556ZM 21.7568 24.5246L 21.7568 25.5246L 21.7895 25.5246L 21.8221 25.5224L 21.7568 24.5246ZM 8.8612 15.7043L 8.14843 16.4058L 8.15574 16.4131L 8.8612 15.7043ZM 21.4686 21.5128L 21.3934 22.5099L 21.4686 22.5156L 21.5438 22.5099L 21.4686 21.5128ZM 39.9114 2.94007L 40.9086 3.01484L 40.9892 1.94007L 39.9114 1.94007L 39.9114 2.94007ZM 21.5406 23.5246L 21.3966 23.5246L 21.3966 25.5246L 21.5406 25.5246L 21.5406 23.5246ZM 21.4749 23.5276C 16.1694 23.1255 11.2293 20.9042 7.47744 17.1469L 6.06651 18.5644C 10.0952 22.5516 15.6733 25.0631 21.3182 25.5215L 21.4749 23.5276ZM 7.47744 17.1469C 3.27372 12.9626 1 7.41015 1 1.50589L -0.999998 1.50589C -0.999998 7.93562 1.48107 14.0001 6.06651 18.5644L 7.47744 17.1469ZM 1 1.50589L 1 2.18839e-06L -0.999998 2.18839e-06L -0.999998 1.50589L 1 1.50589ZM 2.19856e-06 1L 43.1533 1L 43.1533 -0.999998L 2.19856e-06 -0.999998L 2.19856e-06 1ZM 42.1533 2.18839e-06L 42.1533 1.50589L 44.1533 1.50589L 44.1533 2.18839e-06L 42.1533 2.18839e-06ZM 42.1533 1.50589C 42.1533 7.40308 39.8124 12.9609 35.6701 17.1527L 37.0927 18.5585C 41.5955 14.0018 44.1533 7.94269 44.1533 1.50589L 42.1533 1.50589ZM 35.6824 17.1404C 31.8489 20.9063 26.9823 23.1977 21.6914 23.5267L 21.8221 25.5224C 27.4817 25.1343 32.9892 22.5495 37.0803 18.5708L 35.6824 17.1404ZM 21.7568 23.5246L 21.5406 23.5246L 21.5406 25.5246L 21.7568 25.5246L 21.7568 23.5246ZM 2.02858 3.01484C 2.41717 7.99237 4.57878 12.7566 8.14847 16.4058L 9.57394 15.0029C 6.22756 11.6246 4.35481 7.49682 4.02298 2.86531L 2.02858 3.01484ZM 8.15574 16.4131C 11.6748 19.8947 16.4611 22.1218 21.3934 22.5099L 21.5438 20.5156C 16.9665 20.1867 12.8196 18.2547 9.56667 14.9956L 8.15574 16.4131ZM 21.5438 22.5099C 26.4761 22.1218 31.2624 19.8947 34.7815 16.4131L 33.3705 14.9956C 30.1176 18.2547 25.9707 20.1867 21.3934 20.5156L 21.5438 22.5099ZM 34.7815 16.4131C 38.3572 12.8301 40.5208 7.98947 40.9086 3.01484L 38.9142 2.86531C 38.5817 7.49972 36.7109 11.6945 33.3705 14.9956L 34.7815 16.4131ZM 39.9114 1.94007L 3.02578 1.94007L 3.02578 3.94007L 39.9114 3.94007L 39.9114 1.94007Z"/>
<path id="path6_fill" d="M 103.309 24.668L 18.659 24.668L 18.659 23.1621C 18.659 17.7839 16.5697 12.7642 12.7515 8.89194C 9.29345 5.4499 4.75479 3.37034 -2.19856e-06 3.01179L 0.14408 -1.0942e-06L 80.111 -1.0942e-06C 86.3067 -1.0942e-06 92.1421 2.43811 96.5367 6.74067C 100.931 11.1149 103.309 16.9234 103.309 23.0904L 103.309 24.668ZM 21.6127 21.6562L 100.211 21.6562C 99.8506 16.8517 97.8335 12.4057 94.3754 8.89194C 90.5572 5.09136 85.4422 3.01179 80.039 3.01179L 9.94184 3.01179C 11.7429 4.01572 13.3999 5.30648 14.8407 6.74067C 18.8751 10.8281 21.2525 16.0629 21.6127 21.6562Z"/>
<path id="path7_stroke_2x" d="M 18.659 24.668L 17.659 24.668L 17.659 25.668L 18.659 25.668L 18.659 24.668ZM 12.7515 8.89194L 13.4636 8.1898L 13.457 8.1832L 12.7515 8.89194ZM -2.19856e-06 3.01179L -0.99886 2.96401L -1.04535 3.9358L -0.075196 4.00896L -2.19856e-06 3.01179ZM 0.14408 -1.0942e-06L 0.14408 -1L -0.809224 -1L -0.854777 -0.0477859L 0.14408 -1.0942e-06ZM 96.5367 6.74067L 97.2422 6.0319L 97.2363 6.02612L 96.5367 6.74067ZM 21.6127 21.6562L 20.6148 21.7205L 20.675 22.6562L 21.6127 22.6562L 21.6127 21.6562ZM 100.211 21.6562L 100.211 22.6562L 101.289 22.6562L 101.208 21.5814L 100.211 21.6562ZM 94.3754 8.89194L 95.0882 8.19047L 95.0809 8.1832L 94.3754 8.89194ZM 9.94184 3.01179L 9.94184 2.01179L 6.09394 2.01179L 9.45496 3.88526L 9.94184 3.01179ZM 14.8407 6.74067L 15.5525 6.03817L 15.5462 6.03192L 14.8407 6.74067ZM 103.309 23.668L 18.659 23.668L 18.659 25.668L 103.309 25.668L 103.309 23.668ZM 19.659 24.668L 19.659 23.1621L 17.659 23.1621L 17.659 24.668L 19.659 24.668ZM 19.659 23.1621C 19.659 17.5156 17.4624 12.2453 13.4635 8.18983L 12.0394 9.59406C 15.677 13.2832 17.659 18.0521 17.659 23.1621L 19.659 23.1621ZM 13.457 8.1832C 9.86333 4.62817 5.00457 2.40203 0.0751916 2.01462L -0.075196 4.00896C 4.50501 4.33864 8.72357 6.27163 12.046 9.60069L 13.457 8.1832ZM 0.998855 3.05958L 1.14294 0.0477837L -0.854777 -0.0477859L -0.99886 2.96401L 0.998855 3.05958ZM 0.14408 0.999999L 80.111 0.999999L 80.111 -1L 0.14408 -1L 0.14408 0.999999ZM 80.111 0.999999C 86.0399 0.999999 91.6256 3.33192 95.8371 7.45522L 97.2363 6.02612C 92.6586 1.54431 86.5735 -1 80.111 -1L 80.111 0.999999ZM 95.8312 7.44941C 100.035 11.6337 102.309 17.1861 102.309 23.0904L 104.309 23.0904C 104.309 16.6607 101.828 10.5962 97.2422 6.03192L 95.8312 7.44941ZM 102.309 23.0904L 102.309 24.668L 104.309 24.668L 104.309 23.0904L 102.309 23.0904ZM 21.6127 22.6562L 100.211 22.6562L 100.211 20.6562L 21.6127 20.6562L 21.6127 22.6562ZM 101.208 21.5814C 100.819 16.6039 98.6579 11.8397 95.0882 8.19051L 93.6627 9.59338C 97.0091 12.9717 98.8818 17.0994 99.2136 21.731L 101.208 21.5814ZM 95.0809 8.1832C 91.0721 4.19291 85.7021 2.01179 80.039 2.01179L 80.039 4.01179C 85.1823 4.01179 90.0423 5.9898 93.67 9.60069L 95.0809 8.1832ZM 80.039 2.01179L 9.94184 2.01179L 9.94184 4.01179L 80.039 4.01179L 80.039 2.01179ZM 9.45496 3.88526C 11.1906 4.84935 12.7387 6.05668 14.1353 7.44941L 15.5462 6.03192C 14.0611 4.55629 12.2952 3.18209 10.4287 2.13832L 9.45496 3.88526ZM 14.129 7.44314C 18.0512 11.3949 20.2824 16.3057 20.6148 21.7205L 22.6106 21.5919C 22.2225 15.82 19.699 10.2613 15.5524 6.0382L 14.129 7.44314Z"/>
<path id="path8_fill" d="M 80.111 140.478L 0.144084 140.407L 1.09928e-06 137.395C 4.75479 137.036 9.29346 134.957 12.7515 131.586C 16.5697 127.786 18.659 122.695 18.659 117.316L 18.659 23.0904C 18.659 16.9234 21.1084 11.1149 25.4309 6.74067C 29.4653 2.79666 34.6523 0.358544 40.0555 -2.18839e-06L 40.1996 -2.18839e-06L 40.3437 -2.18839e-06C 45.8189 0.430253 51.006 2.79666 54.9683 6.74067C 59.0026 10.7564 61.38 15.9912 61.7403 21.5845L 103.309 21.5845L 103.309 117.316C 103.309 123.483 100.859 129.292 96.5367 133.666C 92.1421 138.04 86.3067 140.478 80.111 140.478ZM 10.0859 137.395L 80.111 137.467C 85.5142 137.467 90.5572 135.387 94.4475 131.586C 98.1937 127.858 100.283 122.91 100.355 117.675L 100.355 117.388L 100.355 24.5963L 58.8586 24.5963L 58.8586 23.0904C 58.8586 17.7122 56.7693 12.6925 52.9511 8.89194C 49.4931 5.4499 45.0264 3.37034 40.3437 3.01179C 35.6609 3.37034 31.1943 5.4499 27.7363 8.89194C 23.918 12.6925 21.8288 17.7122 21.8288 23.0904L 21.8288 117.316C 21.8288 123.483 19.3794 129.292 15.0568 133.666C 13.4719 135.172 11.8149 136.391 10.0859 137.395Z"/>
<path id="path9_stroke_2x" d="M 80.111 140.478L 80.1102 141.478L 80.111 141.478L 80.111 140.478ZM 0.144084 140.407L -0.854774 140.454L -0.809262 141.406L 0.143187 141.407L 0.144084 140.407ZM 1.09928e-06 137.395L -0.0751927 136.398L -1.04535 136.471L -0.998857 137.443L 1.09928e-06 137.395ZM 12.7515 131.586L 13.4495 132.303L 13.457 132.295L 12.7515 131.586ZM 25.4309 6.74067L 24.7319 6.0256L 24.7257 6.03164L 24.7196 6.03778L 25.4309 6.74067ZM 40.0555 -2.18839e-06L 40.0555 -1L 40.0224 -1L 39.9893 -0.997808L 40.0555 -2.18839e-06ZM 40.3437 -2.18839e-06L 40.422 -0.996929L 40.3829 -1L 40.3437 -1L 40.3437 -2.18839e-06ZM 54.9683 6.74067L 54.2628 7.44941L 54.9683 6.74067ZM 61.7403 21.5845L 60.7423 21.6488L 60.8026 22.5845L 61.7403 22.5845L 61.7403 21.5845ZM 103.309 21.5845L 104.309 21.5845L 104.309 20.5845L 103.309 20.5845L 103.309 21.5845ZM 96.5367 133.666L 97.2422 134.375L 97.248 134.369L 96.5367 133.666ZM 10.0859 137.395L 9.58379 136.53L 6.3787 138.391L 10.0849 138.395L 10.0859 137.395ZM 80.111 137.467L 80.11 138.467L 80.111 138.467L 80.111 137.467ZM 94.4475 131.586L 95.1463 132.302L 95.1529 132.295L 94.4475 131.586ZM 100.355 117.675L 101.355 117.689L 101.355 117.675L 100.355 117.675ZM 100.355 24.5963L 101.355 24.5963L 101.355 23.5963L 100.355 23.5963L 100.355 24.5963ZM 58.8586 24.5963L 57.8586 24.5963L 57.8586 25.5963L 58.8586 25.5963L 58.8586 24.5963ZM 40.3437 3.01179L 40.42 2.01471L 40.3437 2.00886L 40.2673 2.01471L 40.3437 3.01179ZM 15.0568 133.666L 15.7456 134.391L 15.7571 134.38L 15.7681 134.369L 15.0568 133.666ZM 80.1119 139.478L 0.14498 139.407L 0.143187 141.407L 80.1102 141.478L 80.1119 139.478ZM 1.14294 140.359L 0.998859 137.347L -0.998857 137.443L -0.854774 140.454L 1.14294 140.359ZM 0.0751949 138.392C 5.00457 138.005 9.859 135.782 13.4495 132.303L 12.0535 130.87C 8.72791 134.132 4.50501 136.068 -0.0751927 136.398L 0.0751949 138.392ZM 13.457 132.295C 17.466 128.305 19.659 122.957 19.659 117.316L 17.659 117.316C 17.659 122.432 15.6735 127.267 12.046 130.878L 13.457 132.295ZM 19.659 117.316L 19.659 23.0904L 17.659 23.0904L 17.659 117.316L 19.659 117.316ZM 19.659 23.0904C 19.659 17.1932 21.9999 11.6354 26.1422 7.44356L 24.7196 6.03778C 20.2168 10.5944 17.659 16.6536 17.659 23.0904L 19.659 23.0904ZM 26.13 7.45574C 30.0355 3.61817 34.9025 1.32675 40.1217 0.997803L 39.9893 -0.997808C 34.4022 -0.609665 28.8951 1.97514 24.7319 6.0256L 26.13 7.45574ZM 40.0555 0.999998L 40.1996 0.999998L 40.1996 -1L 40.0555 -1L 40.0555 0.999998ZM 40.1996 0.999998L 40.3437 0.999998L 40.3437 -1L 40.1996 -1L 40.1996 0.999998ZM 40.2653 0.996924C 45.5684 1.39837 50.4367 3.61885 54.2628 7.44941L 55.6737 6.03192C 51.5752 1.97447 46.0694 -0.537859 40.422 -0.996929L 40.2653 0.996924ZM 54.2628 7.44941C 58.1813 11.3268 60.41 16.234 60.7423 21.6488L 62.7382 21.5202C 62.3501 15.7483 59.824 10.186 55.6737 6.03192L 54.2628 7.44941ZM 61.7403 22.5845L 103.309 22.5845L 103.309 20.5845L 61.7403 20.5845L 61.7403 22.5845ZM 102.309 21.5845L 102.309 117.316L 104.309 117.316L 104.309 21.5845L 102.309 21.5845ZM 102.309 117.316C 102.309 123.214 99.9677 128.771 95.8254 132.963L 97.248 134.369C 101.751 129.812 104.309 123.753 104.309 117.316L 102.309 117.316ZM 95.8312 132.957C 91.6217 137.147 86.039 139.478 80.111 139.478L 80.111 141.478C 86.5744 141.478 92.6625 138.933 97.2422 134.375L 95.8312 132.957ZM 10.0849 138.395L 80.11 138.467L 80.1121 136.467L 10.0869 136.395L 10.0849 138.395ZM 80.111 138.467C 85.7795 138.467 91.0721 136.282 95.1463 132.302L 93.7487 130.871C 90.0422 134.492 85.2489 136.467 80.111 136.467L 80.111 138.467ZM 95.1529 132.295C 99.084 128.382 101.279 123.185 101.355 117.689L 99.355 117.661C 99.2866 122.634 97.3033 127.333 93.742 130.878L 95.1529 132.295ZM 101.355 117.675L 101.355 117.388L 99.3549 117.388L 99.3549 117.675L 101.355 117.675ZM 101.355 117.388L 101.355 24.5963L 99.3549 24.5963L 99.3549 117.388L 101.355 117.388ZM 100.355 23.5963L 58.8586 23.5963L 58.8586 25.5963L 100.355 25.5963L 100.355 23.5963ZM 59.8586 24.5963L 59.8586 23.0904L 57.8586 23.0904L 57.8586 24.5963L 59.8586 24.5963ZM 59.8586 23.0904C 59.8586 17.4455 57.6629 12.171 53.6566 8.1832L 52.2456 9.60069C 55.8758 13.2141 57.8586 17.9789 57.8586 23.0904L 59.8586 23.0904ZM 53.6566 8.1832C 50.0654 4.62991 45.2797 2.40294 40.42 2.01471L 40.2673 4.00887C 44.7731 4.33773 48.9207 6.26989 52.2456 9.60069L 53.6566 8.1832ZM 40.2673 2.01471C 35.4076 2.40294 30.6219 4.62991 27.0308 8.1832L 28.4417 9.60069C 31.7667 6.26989 35.9142 4.33773 40.42 4.00887L 40.2673 2.01471ZM 27.0308 8.1832C 23.0245 12.171 20.8288 17.4455 20.8288 23.0904L 22.8288 23.0904C 22.8288 17.9789 24.8116 13.2141 28.4417 9.60069L 27.0308 8.1832ZM 20.8288 23.0904L 20.8288 117.316L 22.8288 117.316L 22.8288 23.0904L 20.8288 23.0904ZM 20.8288 117.316C 20.8288 123.214 18.4878 128.771 14.3455 132.963L 15.7681 134.369C 20.2709 129.812 22.8288 123.753 22.8288 117.316L 20.8288 117.316ZM 14.368 132.941C 12.8299 134.405 11.2668 135.555 9.58379 136.53L 10.5881 138.26C 12.3631 137.227 14.1139 135.939 15.7456 134.391L 14.368 132.941Z"/>
<path id="path10_fill" d="M 16.9299 19.5766L 16.7859 19.5766C 12.4633 19.2181 8.42895 17.3536 5.33113 14.3418C 1.8731 10.8998 1.3741e-07 6.31041 1.3741e-07 1.5059L 1.3741e-07 -2.18839e-06L 33.8599 -2.18839e-06L 33.8599 1.5059C 33.8599 6.31041 31.9868 10.8998 28.5288 14.3418C 25.4309 17.4253 21.3245 19.2898 17.074 19.5766L 16.9299 19.5766ZM 3.16986 3.01178C 3.53007 6.45383 5.04296 9.68074 7.56444 12.1906C 10.0859 14.7004 13.4719 16.278 17.002 16.5648C 20.5321 16.278 23.918 14.7004 26.4395 12.1906C 28.961 9.68074 30.4739 6.45383 30.8341 3.01178L 3.16986 3.01178Z"/>
<path id="path11_stroke_2x" d="M 16.7859 19.5766L 16.7032 20.5732L 16.7445 20.5766L 16.7859 20.5766L 16.7859 19.5766ZM 5.33113 14.3418L 4.62562 15.0506L 4.63405 15.0588L 5.33113 14.3418ZM 1.3741e-07 -2.18839e-06L 1.3741e-07 -1L -1 -1L -1 -2.18839e-06L 1.3741e-07 -2.18839e-06ZM 33.8599 -2.18839e-06L 34.8599 -2.18839e-06L 34.8599 -1L 33.8599 -1L 33.8599 -2.18839e-06ZM 28.5288 14.3418L 29.2342 15.0506L 28.5288 14.3418ZM 17.074 19.5766L 17.074 20.5766L 17.1077 20.5766L 17.1414 20.5744L 17.074 19.5766ZM 3.16986 3.01178L 3.16986 2.01178L 2.05975 2.01178L 2.17529 3.11587L 3.16986 3.01178ZM 17.002 16.5648L 16.921 17.5616L 17.002 17.5681L 17.083 17.5616L 17.002 16.5648ZM 30.8341 3.01178L 31.8287 3.11587L 31.9442 2.01178L 30.8341 2.01178L 30.8341 3.01178ZM 16.9299 18.5766L 16.7859 18.5766L 16.7859 20.5766L 16.9299 20.5766L 16.9299 18.5766ZM 16.8685 18.58C 12.7183 18.2511 8.99533 16.5295 6.02821 13.6249L 4.63405 15.0588C 7.86257 18.1778 12.2083 20.185 16.7032 20.5732L 16.8685 18.58ZM 6.0366 13.6331C 2.76897 10.3806 1 6.04703 1 1.5059L -1 1.5059C -1 6.57379 0.977232 11.419 4.62566 15.0506L 6.0366 13.6331ZM 1 1.5059L 1 -2.18839e-06L -1 -2.18839e-06L -1 1.5059L 1 1.5059ZM 1.3741e-07 0.999998L 33.8599 0.999998L 33.8599 -1L 1.3741e-07 -1L 1.3741e-07 0.999998ZM 32.8599 -2.18839e-06L 32.8599 1.5059L 34.8599 1.5059L 34.8599 -2.18839e-06L 32.8599 -2.18839e-06ZM 32.8599 1.5059C 32.8599 6.04703 31.0909 10.3806 27.8233 13.6331L 29.2342 15.0506C 32.8827 11.419 34.8599 6.57379 34.8599 1.5059L 32.8599 1.5059ZM 27.8233 13.6331C 24.8625 16.6026 21.0802 18.3201 17.0067 18.5789L 17.1414 20.5744C 21.5688 20.2595 25.9994 18.248 29.2342 15.0506L 27.8233 13.6331ZM 17.074 18.5766L 16.9299 18.5766L 16.9299 20.5766L 17.074 20.5766L 17.074 18.5766ZM 2.17529 3.11587C 2.56666 6.72185 4.22507 10.2561 6.85897 12.8993L 8.26991 11.4818C 5.86085 9.10537 4.49349 6.18581 4.16443 2.9077L 2.17529 3.11587ZM 6.85897 12.8993C 9.51342 15.5203 13.2162 17.2448 16.921 17.5616L 17.083 15.5681C 13.7276 15.3112 10.6584 13.8805 8.26991 11.4818L 6.85897 12.8993ZM 17.083 17.5616C 20.7877 17.2448 24.4905 15.5203 27.145 12.8993L 25.7341 11.4818C 23.3455 13.8805 20.2764 15.3112 16.921 15.5681L 17.083 17.5616ZM 27.145 12.8993C 29.7789 10.2561 31.4373 6.72185 31.8287 3.11587L 29.8395 2.9077C 29.5105 6.18581 28.1431 9.10537 25.7341 11.4818L 27.145 12.8993ZM 30.8341 2.01178L 3.16986 2.01178L 3.16986 4.01178L 30.8341 4.01178L 30.8341 2.01178Z"/>
<path id="path12_fill" d="M 79.8229 19.6483L 14.0483 19.6483L 14.0483 18.1424C 14.0483 14.1267 12.4633 10.3261 9.58162 7.45776C 6.9881 4.87623 3.60212 3.29862 1.09928e-06 3.01179L 0.144083 5.47098e-07L 61.5962 5.47098e-07C 66.423 5.47098e-07 71.0337 1.86444 74.4917 5.30648C 77.9498 8.74853 79.8229 13.3379 79.8229 18.1424L 79.8229 19.6483ZM 17.074 16.6365L 76.7971 16.6365C 76.4369 13.1945 74.924 9.96758 72.4025 7.45776C 69.5208 4.58939 65.7026 3.01179 61.6682 3.01179L 8.93325 3.01179C 9.94184 3.65717 10.8784 4.44597 11.7429 5.30648C 14.8407 8.38998 16.7138 12.4057 17.074 16.6365Z"/>
<path id="path13_stroke_2x" d="M 14.0483 19.6483L 13.0483 19.6483L 13.0483 20.6483L 14.0483 20.6483L 14.0483 19.6483ZM 1.09928e-06 3.01179L -0.998857 2.964L -1.04515 3.93173L -0.0793778 4.00863L 1.09928e-06 3.01179ZM 0.144083 5.47098e-07L 0.144083 -0.999999L -0.809221 -0.999999L -0.854774 -0.0477843L 0.144083 5.47098e-07ZM 17.074 16.6365L 16.0776 16.7214L 16.1555 17.6365L 17.074 17.6365L 17.074 16.6365ZM 76.7971 16.6365L 76.7971 17.6365L 77.9072 17.6365L 77.7917 16.5325L 76.7971 16.6365ZM 72.4025 7.45776L 71.697 8.1665L 72.4025 7.45776ZM 8.93325 3.01179L 8.93325 2.01179L 5.51513 2.01179L 8.39426 3.8541L 8.93325 3.01179ZM 79.8229 18.6483L 14.0483 18.6483L 14.0483 20.6483L 79.8229 20.6483L 79.8229 18.6483ZM 15.0483 19.6483L 15.0483 18.1424L 13.0483 18.1424L 13.0483 19.6483L 15.0483 19.6483ZM 15.0483 18.1424C 15.0483 13.858 13.3554 9.80314 10.2871 6.74902L 8.87616 8.1665C 11.5712 10.8491 13.0483 14.3954 13.0483 18.1424L 15.0483 18.1424ZM 10.2871 6.74902C 7.5606 4.05632 3.85701 2.33166 0.07938 2.01494L -0.0793778 4.00863C 3.34722 4.26559 6.4156 5.69614 8.87616 8.1665L 10.2871 6.74902ZM 0.998859 3.05957L 1.14294 0.0477854L -0.854774 -0.0477843L -0.998857 2.964L 0.998859 3.05957ZM 0.144083 1L 61.5962 1L 61.5962 -0.999999L 0.144083 -0.999999L 0.144083 1ZM 61.5962 1C 66.1626 1 70.5185 2.76253 73.7863 6.01523L 75.1972 4.59774C 71.549 0.966354 66.6834 -0.999999 61.5962 -0.999999L 61.5962 1ZM 73.7863 6.01523C 77.0539 9.26775 78.8229 13.6013 78.8229 18.1424L 80.8229 18.1424C 80.8229 13.0745 78.8456 8.22931 75.1972 4.59774L 73.7863 6.01523ZM 78.8229 18.1424L 78.8229 19.6483L 80.8229 19.6483L 80.8229 18.1424L 78.8229 18.1424ZM 17.074 17.6365L 76.7971 17.6365L 76.7971 15.6365L 17.074 15.6365L 17.074 17.6365ZM 77.7917 16.5325C 77.4003 12.9265 75.7419 9.39221 73.108 6.74902L 71.697 8.1665C 74.1061 10.543 75.4735 13.4625 75.8025 16.7406L 77.7917 16.5325ZM 73.108 6.74902C 70.0398 3.69504 65.9683 2.01179 61.6682 2.01179L 61.6682 4.01179C 65.4369 4.01179 69.0018 5.48375 71.697 8.1665L 73.108 6.74902ZM 61.6682 2.01179L 8.93325 2.01179L 8.93325 4.01179L 61.6682 4.01179L 61.6682 2.01179ZM 8.39426 3.8541C 9.34898 4.46248 10.203 5.18341 11.0374 6.01523L 12.4484 4.59774C 11.5538 3.70854 10.5347 2.85186 9.47223 2.16947L 8.39426 3.8541ZM 11.0374 6.01523C 14.0223 8.96455 15.7476 12.6634 16.0776 16.7214L 18.0704 16.5517C 17.68 12.148 15.6592 7.81541 12.4484 4.59774L 11.0374 6.01523Z"/>
<path id="path14_fill" d="M 61.5962 116.814L 0.144084 116.743L -1.09928e-06 113.731C 3.60211 113.444 6.9881 111.938 9.58163 109.357C 10.9504 107.994 12.0311 106.345 12.8235 104.552C 13.616 102.688 14.0482 100.751 14.0482 98.6719L 14.0482 18.1424C 14.0482 13.3379 15.9213 8.74853 19.3794 5.30648C 22.5492 2.22299 26.5836 0.286837 30.8341 5.47098e-07L 30.9782 5.47098e-07L 31.1223 5.47098e-07C 35.3728 0.286837 39.4792 2.22299 42.577 5.30648C 43.3695 6.09529 44.1619 7.0275 44.8103 7.95972C 45.1705 8.46169 45.4587 8.96365 45.7469 9.46562C 46.3232 10.4695 46.7555 11.5452 47.1157 12.6925C 47.2598 13.1945 47.4759 13.8399 47.5479 14.4136C 47.692 15.1306 47.764 15.8477 47.8361 16.5648L 79.8229 16.5648L 79.8229 53.7102L 79.3186 54.1405C 78.9584 54.4273 78.5982 54.7859 78.31 55.0727C 74.4917 58.8733 72.4025 63.8929 72.4025 69.2711L 72.4025 113.301L 71.7541 113.731C 68.7284 115.739 65.1983 116.814 61.5962 116.814ZM 9.00529 113.731L 61.5962 113.803C 64.3338 113.803 66.9993 113.085 69.3047 111.723L 69.3047 69.3428C 69.3047 63.1758 71.7541 57.3674 76.0767 52.9931C 76.2928 52.778 76.5089 52.5629 76.7251 52.3477L 76.7251 19.6483L 44.8824 19.6483L 44.8824 18.1424C 44.8824 17.8556 44.8824 17.5688 44.8824 17.2819C 44.8103 16.5648 44.7383 15.8477 44.5942 15.1306C 44.5221 14.6287 44.3781 14.1267 44.234 13.6965C 43.9458 12.6925 43.5856 11.832 43.0813 10.9715C 42.8652 10.5413 42.577 10.111 42.2888 9.68075C 41.7125 8.89195 41.1362 8.10314 40.4157 7.45776C 37.8222 4.87623 34.5083 3.29862 30.9782 3.01179C 27.4481 3.29862 24.1342 4.87623 21.5406 7.45776C 18.659 10.3261 17.074 14.1267 17.074 18.1424L 17.074 98.6719C 17.074 101.11 16.5697 103.476 15.6332 105.699C 14.6966 107.851 13.3999 109.787 11.7429 111.508C 10.9504 112.368 10.0139 113.085 9.00529 113.731Z"/>
<path id="path15_stroke_2x" d="M 61.5962 116.814L 61.595 117.814L 61.5962 117.814L 61.5962 116.814ZM 0.144084 116.743L -0.854774 116.79L -0.809272 117.742L 0.142917 117.743L 0.144084 116.743ZM -1.09928e-06 113.731L -0.07938 112.734L -1.04516 112.811L -0.998859 113.779L -1.09928e-06 113.731ZM 9.58163 109.357L 8.87616 108.648L 9.58163 109.357ZM 12.8235 104.552L 13.7382 104.956L 13.741 104.95L 13.7438 104.943L 12.8235 104.552ZM 19.3794 5.30648L 18.6821 4.58963L 18.6739 4.59774L 19.3794 5.30648ZM 30.8341 5.47098e-07L 30.8341 -0.999999L 30.8004 -0.999999L 30.7668 -0.99773L 30.8341 5.47098e-07ZM 31.1223 5.47098e-07L 31.1896 -0.99773L 31.156 -0.999999L 31.1223 -0.999999L 31.1223 5.47098e-07ZM 42.577 5.30648L 41.8715 6.01523L 42.577 5.30648ZM 44.8103 7.95972L 43.9894 8.53072L 43.9936 8.53676L 43.9979 8.54275L 44.8103 7.95972ZM 47.1157 12.6925L 48.0769 12.4166L 48.0734 12.4048L 48.0698 12.393L 47.1157 12.6925ZM 47.5479 14.4136L 46.5557 14.5382L 46.5603 14.5746L 46.5675 14.6105L 47.5479 14.4136ZM 47.8361 16.5648L 46.8411 16.6648L 46.9315 17.5648L 47.8361 17.5648L 47.8361 16.5648ZM 79.8229 16.5648L 80.8229 16.5648L 80.8229 15.5648L 79.8229 15.5648L 79.8229 16.5648ZM 79.8229 53.7102L 80.4719 54.471L 80.8229 54.1715L 80.8229 53.7102L 79.8229 53.7102ZM 79.3186 54.1405L 79.9415 54.9227L 79.9548 54.9122L 79.9676 54.9012L 79.3186 54.1405ZM 78.31 55.0727L 77.6045 54.364L 78.31 55.0727ZM 72.4025 113.301L 72.9554 114.134L 73.4025 113.837L 73.4025 113.301L 72.4025 113.301ZM 71.7541 113.731L 71.2012 112.898L 71.7541 113.731ZM 9.00529 113.731L 8.4663 112.889L 5.59443 114.726L 9.00392 114.731L 9.00529 113.731ZM 61.5962 113.803L 61.5948 114.803L 61.5962 114.803L 61.5962 113.803ZM 69.3047 111.723L 69.8135 112.584L 70.3047 112.294L 70.3047 111.723L 69.3047 111.723ZM 76.0767 52.9931L 75.3712 52.2844L 75.3654 52.2902L 76.0767 52.9931ZM 76.7251 52.3477L 77.4305 53.0565L 77.7251 52.7633L 77.7251 52.3477L 76.7251 52.3477ZM 76.7251 19.6483L 77.7251 19.6483L 77.7251 18.6483L 76.7251 18.6483L 76.7251 19.6483ZM 44.8824 19.6483L 43.8824 19.6483L 43.8824 20.6483L 44.8824 20.6483L 44.8824 19.6483ZM 44.8824 17.2819L 45.8824 17.2819L 45.8824 17.2318L 45.8773 17.182L 44.8824 17.2819ZM 44.5942 15.1306L 43.6043 15.2727L 43.6083 15.3003L 43.6138 15.3276L 44.5942 15.1306ZM 44.234 13.6965L 43.2728 13.9724L 43.2788 13.9933L 43.2857 14.014L 44.234 13.6965ZM 43.0813 10.9715L 42.1877 11.4204L 42.2022 11.4493L 42.2185 11.4771L 43.0813 10.9715ZM 42.2888 9.68075L 43.1197 9.12427L 43.1083 9.10729L 43.0963 9.09079L 42.2888 9.68075ZM 40.4157 7.45776L 39.7103 8.1665L 39.7289 8.18505L 39.7485 8.20259L 40.4157 7.45776ZM 30.9782 3.01179L 31.0592 2.01507L 30.9782 2.00849L 30.8972 2.01507L 30.9782 3.01179ZM 15.6332 105.699L 16.5501 106.099L 16.5547 106.088L 15.6332 105.699ZM 11.7429 111.508L 11.0225 110.814L 11.0148 110.822L 11.0073 110.83L 11.7429 111.508ZM 61.5973 115.814L 0.145251 115.743L 0.142917 117.743L 61.595 117.814L 61.5973 115.814ZM 1.14294 116.695L 0.998856 113.683L -0.998859 113.779L -0.854774 116.79L 1.14294 116.695ZM 0.0793778 114.728C 3.84852 114.413 7.55339 112.763 10.2871 110.065L 8.87616 108.648C 6.42282 111.113 3.35571 112.475 -0.07938 112.734L 0.0793778 114.728ZM 10.2871 110.065C 11.7256 108.626 12.9095 106.823 13.7382 104.956L 11.9089 104.148C 11.1526 105.867 10.1753 107.362 8.87616 108.648L 10.2871 110.065ZM 13.7438 104.943C 14.5681 102.993 15.0422 100.861 15.0482 98.6719L 13.0482 98.6719C 13.0543 100.642 12.6639 102.382 11.9032 104.161L 13.7438 104.943ZM 15.0482 98.6719L 15.0482 18.1424L 13.0482 18.1424L 13.0482 98.6719L 15.0482 98.6719ZM 15.0482 18.1424C 15.0482 13.6013 16.8172 9.26775 20.0848 6.01523L 18.6739 4.59774C 15.0255 8.22931 13.0482 13.0745 13.0482 18.1424L 15.0482 18.1424ZM 20.0767 6.02329C 23.1217 3.04291 26.8382 1.25389 30.9014 0.997731L 30.7668 -0.99773C 26.329 -0.680214 21.9768 1.40306 18.6821 4.58968L 20.0767 6.02329ZM 30.8341 1L 30.9782 1L 30.9782 -0.999999L 30.8341 -0.999999L 30.8341 1ZM 30.9782 1L 31.1223 1L 31.1223 -0.999999L 30.9782 -0.999999L 30.9782 1ZM 31.0549 0.997731C 35.1215 1.25476 38.9048 3.04158 41.8715 6.01523L 43.2825 4.59774C 40.0536 1.40439 35.624 -0.681082 31.1896 -0.99773L 31.0549 0.997731ZM 41.8715 6.01523C 42.6351 6.77409 43.3696 7.63756 43.9894 8.53072L 45.6313 7.38873C 44.9543 6.41745 44.1038 5.41648 43.2825 4.59774L 41.8715 6.01523ZM 43.9979 8.54275C 44.3296 9.00283 44.5914 9.46152 44.8796 9.96349L 46.6141 8.96775C 46.3259 8.46578 46.0115 7.92055 45.6228 7.3767L 43.9979 8.54275ZM 44.8796 9.96349C 45.4235 10.906 45.8138 11.8816 46.1616 12.9921L 48.0698 12.393C 47.6972 11.2087 47.2229 10.0331 46.6141 8.96775L 44.8796 9.96349ZM 46.1545 12.9684C 46.3048 13.4913 46.5009 14.062 46.5557 14.5382L 48.5401 14.289C 48.4509 13.6177 48.2147 12.8977 48.0769 12.4166L 46.1545 12.9684ZM 46.5675 14.6105C 46.7031 15.2793 46.7691 15.9477 46.8411 16.6648L 48.8311 16.4649C 48.759 15.7478 48.6809 14.982 48.5283 14.2166L 46.5675 14.6105ZM 47.8361 17.5648L 79.8229 17.5648L 79.8229 15.5648L 47.8361 15.5648L 47.8361 17.5648ZM 78.8229 16.5648L 78.8229 53.7102L 80.8229 53.7102L 80.8229 16.5648L 78.8229 16.5648ZM 79.1738 52.9495L 78.6695 53.3797L 79.9676 54.9012L 80.4719 54.471L 79.1738 52.9495ZM 78.6956 53.3582C 78.2931 53.6807 77.8927 54.0771 77.6045 54.364L 79.0155 55.7814C 79.3036 55.4946 79.6236 55.174 79.9415 54.9227L 78.6956 53.3582ZM 77.6045 54.364C 73.5982 58.3517 71.4025 63.6263 71.4025 69.2711L 73.4025 69.2711C 73.4025 64.1596 75.3853 59.3948 79.0155 55.7814L 77.6045 54.364ZM 71.4025 69.2711L 71.4025 113.301L 73.4025 113.301L 73.4025 69.2711L 71.4025 69.2711ZM 71.8496 112.467L 71.2012 112.898L 72.3071 114.564L 72.9554 114.134L 71.8496 112.467ZM 71.2012 112.898C 68.3017 114.834 65.0509 115.825 61.5962 115.814L 61.5962 117.814C 65.3456 117.803 69.155 116.643 72.3071 114.564L 71.2012 112.898ZM 9.00392 114.731L 61.5948 114.803L 61.5975 112.803L 9.00665 112.731L 9.00392 114.731ZM 61.5962 114.803C 64.4648 114.794 67.3872 114.007 69.8135 112.584L 68.7959 110.862C 66.6115 112.164 64.2028 112.811 61.5962 112.803L 61.5962 114.803ZM 70.3047 111.723L 70.3047 69.3428L 68.3047 69.3428L 68.3047 111.723L 70.3047 111.723ZM 70.3047 69.3428C 70.3047 63.4456 72.6457 57.8879 76.788 53.696L 75.3654 52.2902C 70.8626 56.8469 68.3047 62.906 68.3047 69.3428L 70.3047 69.3428ZM 76.7821 53.7019C 76.9983 53.4867 77.2144 53.2716 77.4305 53.0565L 76.0196 51.639C 75.8035 51.8541 75.5873 52.0692 75.3712 52.2844L 76.7821 53.7019ZM 77.7251 52.3477L 77.7251 19.6483L 75.7251 19.6483L 75.7251 52.3477L 77.7251 52.3477ZM 76.7251 18.6483L 44.8824 18.6483L 44.8824 20.6483L 76.7251 20.6483L 76.7251 18.6483ZM 45.8824 19.6483L 45.8824 18.1424L 43.8824 18.1424L 43.8824 19.6483L 45.8824 19.6483ZM 45.8824 18.1424C 45.8824 17.8556 45.8824 17.5688 45.8824 17.2819L 43.8824 17.2819C 43.8824 17.5688 43.8824 17.8556 43.8824 18.1424L 45.8824 18.1424ZM 45.8773 17.182C 45.8053 16.4649 45.7272 15.6991 45.5746 14.9337L 43.6138 15.3276C 43.7494 15.9964 43.8153 16.6648 43.8874 17.3819L 45.8773 17.182ZM 45.584 14.9886C 45.5 14.4192 45.333 13.8299 45.1822 13.3789L 43.2857 14.014C 43.4231 14.4235 43.5443 14.8382 43.6043 15.2727L 45.584 14.9886ZM 45.1952 13.4206C 44.8892 12.3609 44.4802 11.3852 43.9441 10.4659L 42.2185 11.4771C 42.691 12.2789 43.0024 13.0241 43.2728 13.9724L 45.1952 13.4206ZM 43.9749 10.5226C 43.7291 10.0376 43.4079 9.55452 43.1197 9.12427L 41.458 10.2372C 41.7461 10.6675 42.0013 11.0449 42.1877 11.4204L 43.9749 10.5226ZM 43.0963 9.09079C 42.5199 8.30199 41.8776 7.43208 41.083 6.71293L 39.7485 8.20259C 40.3948 8.77421 40.9051 9.4819 41.4814 10.2707L 43.0963 9.09079ZM 41.1212 6.74902C 38.3981 4.0587 34.7679 2.33293 31.0592 2.01507L 30.8972 4.0085C 34.2486 4.26432 37.2463 5.69376 39.7103 8.1665L 41.1212 6.74902ZM 30.8972 2.01507C 27.1884 2.33293 23.5583 4.0587 20.8352 6.74902L 22.2461 8.1665C 24.7101 5.69376 27.7078 4.26432 31.0592 4.0085L 30.8972 2.01507ZM 20.8352 6.74902C 17.7669 9.80314 16.074 13.858 16.074 18.1424L 18.074 18.1424C 18.074 14.3954 19.551 10.8491 22.2461 8.1665L 20.8352 6.74902ZM 16.074 18.1424L 16.074 98.6719L 18.074 98.6719L 18.074 18.1424L 16.074 18.1424ZM 16.074 98.6719C 16.0795 101.005 15.6157 103.177 14.7116 105.311L 16.5547 106.088C 17.5238 103.776 18.0685 101.215 18.074 98.6719L 16.074 98.6719ZM 14.7163 105.3C 13.8192 107.371 12.6212 109.159 11.0225 110.814L 12.4633 112.201C 14.1785 110.414 15.574 108.33 16.5501 106.099L 14.7163 105.3ZM 11.0073 110.83C 10.2761 111.63 9.43991 112.267 8.4663 112.889L 9.54427 114.573C 10.5878 113.904 11.6247 113.107 12.4785 112.185L 11.0073 110.83Z"/>
<path id="path16_fill" d="M 46.8995 65.8291C 21.0364 65.8291 -1.3741e-07 44.89 -1.3741e-07 19.1464C -1.3741e-07 12.4774 1.3688 6.02357 4.10641 -4.37678e-06L 6.84402 1.21906C 4.32254 6.88409 2.95373 12.9077 2.95373 19.1464C 2.95373 43.2407 22.6213 62.8173 46.8275 62.8173C 49.349 62.8173 51.9425 62.6022 54.3919 62.1719L 54.8962 65.112C 52.3748 65.5422 49.6372 65.8291 46.8995 65.8291Z"/>
<path id="path17_stroke_2x" d="M 4.10641 -4.37678e-06L 4.51321 -0.913525L 3.60663 -1.31722L 3.19602 -0.41376L 4.10641 -4.37678e-06ZM 6.84402 1.21906L 7.75761 1.6257L 8.16418 0.712264L 7.25081 0.305541L 6.84402 1.21906ZM 54.3919 62.1719L 55.3775 62.0029L 55.2078 61.0133L 54.2189 61.187L 54.3919 62.1719ZM 54.8962 65.112L 55.0644 66.0977L 56.0511 65.9294L 55.8818 64.9429L 54.8962 65.112ZM 46.8995 64.8291C 21.5843 64.8291 1 44.3333 1 19.1464L -1 19.1464C -1 45.4466 20.4884 66.8291 46.8995 66.8291L 46.8995 64.8291ZM 1 19.1464C 0.994545 12.5817 2.31873 6.33603 5.0168 0.413751L 3.19602 -0.41376C 0.418874 5.71111 -0.994545 12.3731 -1 19.1464L 1 19.1464ZM 3.69962 0.913516L 6.43723 2.13258L 7.25081 0.305541L 4.51321 -0.913525L 3.69962 0.913516ZM 5.93043 0.812426C 3.37365 6.56847 1.95997 12.7962 1.95373 19.1464L 3.95373 19.1464C 3.9475 13.0192 5.27143 7.19971 7.75761 1.6257L 5.93043 0.812426ZM 1.95373 19.1464C 1.95373 43.7973 22.0734 63.8173 46.8275 63.8173L 46.8275 61.8173C 23.1692 61.8173 3.95373 42.684 3.95373 19.1464L 1.95373 19.1464ZM 46.8275 63.8173C 49.3903 63.8164 52.0705 63.5939 54.5649 63.1568L 54.2189 61.187C 51.8145 61.6104 49.3076 61.8181 46.8275 61.8173L 46.8275 63.8173ZM 53.4063 62.341L 53.9106 65.2811L 55.8818 64.9429L 55.3775 62.0029L 53.4063 62.341ZM 54.728 64.1262C 52.2385 64.5516 49.585 64.8304 46.8995 64.8291L 46.8995 66.8291C 49.6893 66.8277 52.511 66.5329 55.0644 66.0977L 54.728 64.1262Z"/>
<path id="path18_fill" d="M 65.4865 46.6827L 62.4607 46.6827C 62.4607 22.5884 42.7931 3.01179 18.5869 3.01179C 12.5354 3.01179 6.69994 4.23084 1.15268 6.59725L 0 3.80059C 5.90747 1.29077 12.1752 0 18.5869 0C 44.4501 0 65.4865 20.9391 65.4865 46.6827Z"/>
<path id="path19_stroke_2x" d="M 65.4865 46.6827L 65.4865 47.6827L 66.4865 47.6827L 66.4865 46.6827L 65.4865 46.6827ZM 62.4607 46.6827L 61.4607 46.6827L 61.4607 47.6827L 62.4607 47.6827L 62.4607 46.6827ZM 1.15268 6.59725L 0.228133 6.97831L 0.613902 7.91428L 1.54506 7.51705L 1.15268 6.59725ZM 0 3.80059L -0.391028 2.88021L -1.30152 3.26704L -0.924548 4.18165L 0 3.80059ZM 65.4865 45.6827L 62.4607 45.6827L 62.4607 47.6827L 65.4865 47.6827L 65.4865 45.6827ZM 63.4607 46.6827C 63.4607 22.0318 43.341 2.01179 18.5869 2.01179L 18.5869 4.01179C 42.2452 4.01179 61.4607 23.1451 61.4607 46.6827L 63.4607 46.6827ZM 18.5869 2.01179C 12.4326 2.01708 6.40005 3.27687 0.760302 5.67745L 1.54506 7.51705C 6.99983 5.18482 12.6382 4.00649 18.5869 4.01179L 18.5869 2.01179ZM 2.07723 6.21618L 0.924548 3.41952L -0.924548 4.18165L 0.228133 6.97831L 2.07723 6.21618ZM 0.391028 4.72097C 6.2053 2.24538 12.2765 0.994848 18.5869 1L 18.5869 -1C 12.0738 -0.994848 5.60963 0.336149 -0.391028 2.88021L 0.391028 4.72097ZM 18.5869 1C 43.9022 1 64.4865 21.4957 64.4865 46.6827L 66.4865 46.6827C 66.4865 20.3824 44.998 -1 18.5869 -1L 18.5869 1Z"/>
<path id="path20_fill" d="M 21.2525 17.3536L 14.7687 4.23085L 1.51289 11.832L 0 9.2505L 16.0654 -2.18839e-06L 23.9901 15.9912L 21.2525 17.3536Z"/>
<path id="path21_stroke_2x" d="M 21.2525 17.3536L 20.3559 17.7966L 20.8002 18.6957L 21.698 18.2489L 21.2525 17.3536ZM 14.7687 4.23085L 15.6652 3.78788L 15.194 2.83421L 14.2712 3.36335L 14.7687 4.23085ZM 1.51289 11.832L 0.650129 12.3376L 1.15099 13.1923L 2.01033 12.6995L 1.51289 11.832ZM 0 9.2505L -0.498993 8.38389L -1.37226 8.88672L -0.862759 9.75611L 0 9.2505ZM 16.0654 -2.18839e-06L 16.9614 -0.444034L 16.4888 -1.39772L 15.5664 -0.866608L 16.0654 -2.18839e-06ZM 23.9901 15.9912L 24.4356 16.8864L 25.3294 16.4416L 24.8861 15.5471L 23.9901 15.9912ZM 22.149 16.9107L 15.6652 3.78788L 13.8721 4.67382L 20.3559 17.7966L 22.149 16.9107ZM 14.2712 3.36335L 1.01545 10.9645L 2.01033 12.6995L 15.2661 5.09835L 14.2712 3.36335ZM 2.37565 11.3264L 0.862759 8.74488L -0.862759 9.75611L 0.650129 12.3376L 2.37565 11.3264ZM 0.498993 10.1171L 16.5644 0.866604L 15.5664 -0.866608L -0.498993 8.38389L 0.498993 10.1171ZM 15.1694 0.444029L 23.0941 16.4352L 24.8861 15.5471L 16.9614 -0.444034L 15.1694 0.444029ZM 23.5445 15.0959L 20.8069 16.4584L 21.698 18.2489L 24.4356 16.8864L 23.5445 15.0959Z"/>
<path id="path22_fill" d="M 13.9042 15.8477L -2.19856e-06 4.6611L 1.8731 2.36641L 13.3278 11.5452L 22.189 -1.0942e-06L 24.5664 1.86444L 13.9042 15.8477Z"/>
<path id="path23_stroke_2x" d="M 13.9042 15.8477L 13.2773 16.6269L 14.077 17.2703L 14.6994 16.4541L 13.9042 15.8477ZM -2.19856e-06 4.6611L -0.774682 4.02875L -1.41153 4.80893L -0.626858 5.44023L -2.19856e-06 4.6611ZM 1.8731 2.36641L 2.49842 1.58604L 1.72508 0.96635L 1.09842 1.73405L 1.8731 2.36641ZM 13.3278 11.5452L 12.7025 12.3256L 13.4994 12.9641L 14.1211 12.154L 13.3278 11.5452ZM 22.189 -1.0942e-06L 22.8061 -0.786883L 22.011 -1.41046L 21.3958 -0.608861L 22.189 -1.0942e-06ZM 24.5664 1.86444L 25.3616 2.47078L 25.9598 1.68632L 25.1835 1.07756L 24.5664 1.86444ZM 14.531 15.0686L 0.626854 3.88196L -0.626858 5.44023L 13.2773 16.6269L 14.531 15.0686ZM 0.774678 5.29345L 2.64778 2.99876L 1.09842 1.73405L -0.774682 4.02875L 0.774678 5.29345ZM 1.24778 3.14678L 12.7025 12.3256L 13.9531 10.7648L 2.49842 1.58604L 1.24778 3.14678ZM 14.1211 12.154L 22.9823 0.608859L 21.3958 -0.608861L 12.5345 10.9363L 14.1211 12.154ZM 21.5719 0.786881L 23.9493 2.65132L 25.1835 1.07756L 22.8061 -0.786883L 21.5719 0.786881ZM 23.7712 1.2581L 13.109 15.2414L 14.6994 16.4541L 25.3616 2.47078L 23.7712 1.2581Z"/>
<path id="path24_fill" d="M 26.5836 52.8497C 11.959 52.8497 6.87049e-08 41.0177 6.87049e-08 26.4607C 6.87049e-08 11.832 11.959 -3.41936e-08 26.5836 -3.41936e-08C 41.2082 -3.41936e-08 53.1672 11.832 53.1672 26.4607C 53.1672 41.0177 41.2082 52.8497 26.5836 52.8497ZM 26.5836 3.01179C 13.616 3.01179 3.02578 13.4813 3.02578 26.4607C 3.02578 39.3684 13.544 49.9096 26.5836 49.9096C 39.5512 49.9096 50.1414 39.3684 50.1414 26.4607C 50.1414 13.4813 39.5512 3.01179 26.5836 3.01179Z"/>
<path id="path25_stroke_2x" d="M 53.1672 26.4607L 52.1672 26.4607L 53.1672 26.4607ZM 26.5836 51.8497C 12.5034 51.8497 1 40.4575 1 26.4607L -1 26.4607C -1 41.5779 11.4147 53.8497 26.5836 53.8497L 26.5836 51.8497ZM 1 26.4607C 1 12.3904 12.5052 1 26.5836 1L 26.5836 -1C 11.4129 -1 -1 11.2736 -1 26.4607L 1 26.4607ZM 26.5836 1C 40.6621 1 52.1672 12.3904 52.1672 26.4607L 54.1672 26.4607C 54.1672 11.2736 41.7543 -1 26.5836 -1L 26.5836 1ZM 52.1672 26.4607C 52.1672 40.4575 40.6638 51.8497 26.5836 51.8497L 26.5836 53.8497C 41.7526 53.8497 54.1672 41.5779 54.1672 26.4607L 52.1672 26.4607ZM 26.5836 2.01179C 13.0701 2.01179 2.02578 12.9227 2.02578 26.4607L 4.02578 26.4607C 4.02578 14.04 14.1619 4.01179 26.5836 4.01179L 26.5836 2.01179ZM 2.02578 26.4607C 2.02578 39.923 12.994 50.9096 26.5836 50.9096L 26.5836 48.9096C 14.0939 48.9096 4.02578 38.8137 4.02578 26.4607L 2.02578 26.4607ZM 26.5836 50.9096C 40.0991 50.9096 51.1414 39.925 51.1414 26.4607L 49.1414 26.4607C 49.1414 38.8117 39.0033 48.9096 26.5836 48.9096L 26.5836 50.9096ZM 51.1414 26.4607C 51.1414 12.9227 40.0971 2.01179 26.5836 2.01179L 26.5836 4.01179C 39.0053 4.01179 49.1414 14.04 49.1414 26.4607L 51.1414 26.4607Z"/>
<path id="path26_fill" d="M 19.8116 38.1493L 19.7396 35.1375C 20.6761 35.1375 21.6127 34.9941 22.4772 34.8507L 23.0535 37.7908C 22.0449 38.0059 20.9643 38.1493 19.8116 38.1493ZM 16.5697 38.0059C 15.4891 37.8625 14.4085 37.5756 13.3999 37.2888L 14.3364 34.4204C 15.2009 34.7073 16.1375 34.9224 17.002 35.0658L 16.5697 38.0059ZM 26.2234 36.8586L 25.1428 34.0619C 26.0073 33.7033 26.7997 33.3448 27.5922 32.8428L 29.1771 35.4244C 28.2406 35.998 27.232 36.4283 26.2234 36.8586ZM 10.302 35.998C 9.3655 35.4961 8.42895 34.9224 7.56444 34.2053L 9.43754 31.8389C 10.158 32.4126 10.9504 32.9145 11.7429 33.3448L 10.302 35.998ZM 31.8427 33.4882L 29.8255 31.1935C 30.5459 30.6198 31.1943 29.9028 31.7707 29.1857L 34.1481 31.1218C 33.4276 31.9823 32.6352 32.7711 31.8427 33.4882ZM 5.115 32.054C 4.39458 31.2652 3.67416 30.4047 3.09782 29.4725L 5.6193 27.8232C 6.1236 28.612 6.69993 29.3291 7.34831 29.9745L 5.115 32.054ZM 35.9491 28.4686L 33.2835 26.9627C 33.7158 26.1739 34.1481 25.3134 34.4362 24.4529L 37.3179 25.4568C 36.9577 26.4607 36.5255 27.4646 35.9491 28.4686ZM 1.58493 26.6041C 1.15268 25.6002 0.792465 24.5246 0.576338 23.5206L 3.53007 22.8035C 3.7462 23.664 4.03437 24.5963 4.39458 25.3851L 1.58493 26.6041ZM 38.1824 22.3016L 35.2287 21.7996C 35.3728 20.8674 35.4448 20.0069 35.4448 19.0747C 35.4448 18.4293 35.3728 17.7122 35.3007 17.0668L 38.3265 16.7083C 38.3986 17.4971 38.4706 18.2859 38.4706 19.0747C 38.4706 20.1503 38.3265 21.2259 38.1824 22.3016ZM 0.0720422 20.222C 0.0720422 19.7917 2.7482e-07 19.4332 2.7482e-07 19.0029C 2.7482e-07 18.2859 0.0720425 17.6405 0.144085 16.9234L 3.16986 17.2102C 3.09782 17.7839 3.09782 18.3576 3.09782 18.9312C 3.09782 19.2898 3.09782 19.5766 3.09782 19.9352L 0.0720422 20.222ZM 3.67416 14.6287L 0.792465 13.7682C 1.08063 12.6925 1.51289 11.6886 1.94514 10.6847L 4.68275 11.9754C 4.2505 12.836 3.89029 13.6965 3.67416 14.6287ZM 34.7244 14.3418C 34.4362 13.4813 34.076 12.6208 33.7158 11.7603L 36.4534 10.3978C 36.9577 11.4018 37.39 12.4057 37.6781 13.4096L 34.7244 14.3418ZM 6.05155 9.68075L 3.60212 7.88802C 4.2505 7.02751 4.97092 6.16699 5.76338 5.37819L 7.92465 7.52947C 7.20423 8.24656 6.62789 8.89195 6.05155 9.68075ZM 32.2029 9.46562C 31.6266 8.74853 31.0502 8.03143 30.4019 7.38605L 32.4911 5.23477C 33.2835 5.95187 34.004 6.81238 34.6524 7.67289L 32.2029 9.46562ZM 10.0139 5.80845L 8.28487 3.29863C 9.14937 2.65324 10.158 2.15128 11.0945 1.64931L 12.3913 4.37426C 11.5268 4.80452 10.7343 5.30648 10.0139 5.80845ZM 28.2406 5.66503C 27.4481 5.16306 26.6557 4.73281 25.7911 4.30255L 27.0159 1.5776C 28.0245 2.00786 28.961 2.58153 29.8976 3.15521L 28.2406 5.66503ZM 14.9848 3.51375L 14.1923 0.573674C 15.273 0.286837 16.3536 0.0717095 17.4342 2.73549e-07L 17.7224 3.01179C 16.7859 3.0835 15.8493 3.22692 14.9848 3.51375ZM 23.1976 3.44204C 22.3331 3.22692 21.3966 3.0835 20.46 3.01179L 20.6761 2.73549e-07C 21.7568 0.0717095 22.8374 0.286837 23.918 0.501965L 23.1976 3.44204Z"/>
<path id="path27_stroke_2x" d="M 19.8116 38.1493L 18.8119 38.1732L 18.8353 39.1493L 19.8116 39.1493L 19.8116 38.1493ZM 19.7396 35.1375L 19.7396 34.1375L 18.7154 34.1375L 18.7399 35.1614L 19.7396 35.1375ZM 22.4772 34.8507L 23.4585 34.6583L 23.2717 33.7052L 22.3135 33.8642L 22.4772 34.8507ZM 23.0535 37.7908L 23.2621 38.7688L 24.2241 38.5636L 24.0349 37.5984L 23.0535 37.7908ZM 16.5697 38.0059L 16.4382 38.9972L 17.4157 39.1269L 17.5591 38.1514L 16.5697 38.0059ZM 13.3999 37.2888L 12.4493 36.9784L 12.1267 37.9664L 13.1263 38.2507L 13.3999 37.2888ZM 14.3364 34.4204L 14.6513 33.4713L 13.6977 33.1549L 13.3858 34.1101L 14.3364 34.4204ZM 17.002 35.0658L 17.9913 35.2113L 18.1342 34.24L 17.1656 34.0793L 17.002 35.0658ZM 26.2234 36.8586L 25.2906 37.219L 25.6637 38.1845L 26.6158 37.7784L 26.2234 36.8586ZM 25.1428 34.0619L 24.7597 33.1382L 23.8582 33.512L 24.21 34.4223L 25.1428 34.0619ZM 27.5922 32.8428L 28.4444 32.3196L 27.9138 31.4554L 27.0571 31.998L 27.5922 32.8428ZM 29.1771 35.4244L 29.6995 36.2771L 30.5531 35.7542L 30.0293 34.9012L 29.1771 35.4244ZM 10.302 35.998L 9.82965 36.8794L 10.7062 37.3492L 11.1808 36.4753L 10.302 35.998ZM 7.56444 34.2053L 6.78035 33.5847L 6.17376 34.351L 6.92601 34.975L 7.56444 34.2053ZM 9.43754 31.8389L 10.0605 31.0566L 9.2759 30.4319L 8.65345 31.2183L 9.43754 31.8389ZM 11.7429 33.3448L 12.6217 33.822L 13.0989 32.9432L 12.22 32.466L 11.7429 33.3448ZM 31.8427 33.4882L 31.0916 34.1484L 31.7614 34.9104L 32.5137 34.2297L 31.8427 33.4882ZM 29.8255 31.1935L 29.2026 30.4112L 28.3813 31.0652L 29.0745 31.8538L 29.8255 31.1935ZM 31.7707 29.1857L 32.4021 28.4103L 31.6217 27.7747L 30.9912 28.5592L 31.7707 29.1857ZM 34.1481 31.1218L 34.9148 31.7637L 35.5655 30.9865L 34.7795 30.3464L 34.1481 31.1218ZM 5.115 32.054L 4.37662 32.7284L 5.05753 33.4739L 5.79647 32.7859L 5.115 32.054ZM 3.09782 29.4725L 2.55042 28.6356L 1.73464 29.1692L 2.24725 29.9984L 3.09782 29.4725ZM 5.6193 27.8232L 6.46183 27.2845L 5.91754 26.4332L 5.0719 26.9863L 5.6193 27.8232ZM 7.34831 29.9745L 8.02978 30.7063L 8.78994 29.9985L 8.05378 29.2657L 7.34831 29.9745ZM 35.9491 28.4686L 35.4572 29.3392L 36.3219 29.8277L 36.8164 28.9664L 35.9491 28.4686ZM 33.2835 26.9627L 32.4066 26.4821L 31.9322 27.3478L 32.7917 27.8333L 33.2835 26.9627ZM 34.4362 24.4529L 34.7652 23.5085L 33.8094 23.1755L 33.488 24.1353L 34.4362 24.4529ZM 37.3179 25.4568L 38.2592 25.7945L 38.6 24.8445L 37.6469 24.5124L 37.3179 25.4568ZM 1.58493 26.6041L 0.666449 26.9996L 1.06302 27.9206L 1.98296 27.5215L 1.58493 26.6041ZM 0.576338 23.5206L 0.340416 22.5489L -0.606297 22.7787L -0.401264 23.7311L 0.576338 23.5206ZM 3.53007 22.8035L 4.49995 22.5599L 4.25827 21.5977L 3.29415 21.8318L 3.53007 22.8035ZM 4.39458 25.3851L 4.79261 26.3024L 5.72759 25.8968L 5.30422 24.9697L 4.39458 25.3851ZM 38.1824 22.3016L 38.0149 23.2874L 39.036 23.461L 39.1736 22.4343L 38.1824 22.3016ZM 35.2287 21.7996L 34.2404 21.6469L 34.0899 22.6204L 35.0611 22.7855L 35.2287 21.7996ZM 35.3007 17.0668L 35.1831 16.0737L 34.1967 16.1906L 34.3069 17.1777L 35.3007 17.0668ZM 38.3265 16.7083L 39.3224 16.6173L 39.2289 15.5943L 38.2088 15.7152L 38.3265 16.7083ZM 38.4706 19.0747L 37.4706 19.0747L 38.4706 19.0747ZM 0.0720422 20.222L -0.927958 20.222L -0.927958 21.3213L 0.166416 21.2175L 0.0720422 20.222ZM 0.144085 16.9234L 0.238459 15.9278L -0.751505 15.834L -0.850907 16.8234L 0.144085 16.9234ZM 3.16986 17.2102L 4.16207 17.3348L 4.29052 16.312L 3.26424 16.2147L 3.16986 17.2102ZM 3.09782 19.9352L 3.19219 20.9307L 4.09782 20.8449L 4.09782 19.9352L 3.09782 19.9352ZM 3.67416 14.6287L 3.38803 15.5869L 4.40793 15.8914L 4.64832 14.8545L 3.67416 14.6287ZM 0.792465 13.7682L -0.173471 13.5094L -0.424997 14.4483L 0.506337 14.7264L 0.792465 13.7682ZM 1.94514 10.6847L 2.37161 9.78017L 1.43581 9.33895L 1.02666 10.2892L 1.94514 10.6847ZM 4.68275 11.9754L 5.57635 12.4243L 6.03655 11.5082L 5.10922 11.0709L 4.68275 11.9754ZM 34.7244 14.3418L 33.7761 14.6594L 34.0882 15.5913L 35.0254 15.2955L 34.7244 14.3418ZM 33.7158 11.7603L 33.2702 10.8651L 32.4317 11.2824L 32.7934 12.1465L 33.7158 11.7603ZM 36.4534 10.3978L 37.347 9.94897L 36.8998 9.05868L 36.0078 9.50259L 36.4534 10.3978ZM 37.6781 13.4096L 37.9791 14.3633L 38.9081 14.0701L 38.6393 13.1337L 37.6781 13.4096ZM 6.05155 9.68075L 5.46094 10.4877L 6.26856 11.0788L 6.85899 10.2707L 6.05155 9.68075ZM 3.60212 7.88802L 2.80345 7.28624L 2.19324 8.09609L 3.01151 8.69497L 3.60212 7.88802ZM 5.76338 5.37819L 6.46885 4.66945L 5.76338 3.96724L 5.05792 4.66945L 5.76338 5.37819ZM 7.92465 7.52947L 8.63012 8.23821L 9.34216 7.52947L 8.63012 6.82073L 7.92465 7.52947ZM 32.2029 9.46562L 31.4235 10.0921L 32.0222 10.8371L 32.7935 10.2726L 32.2029 9.46562ZM 30.4019 7.38605L 29.6845 6.68937L 28.9963 7.39796L 29.6964 8.09479L 30.4019 7.38605ZM 32.4911 5.23477L 33.162 4.49328L 32.4463 3.84557L 31.7737 4.53809L 32.4911 5.23477ZM 34.6524 7.67289L 35.243 8.47985L 36.0612 7.88096L 35.451 7.07111L 34.6524 7.67289ZM 10.0139 5.80845L 9.19038 6.37576L 9.76071 7.20365L 10.5856 6.62893L 10.0139 5.80845ZM 8.28487 3.29863L 7.68665 2.49729L 6.91523 3.07318L 7.46136 3.86594L 8.28487 3.29863ZM 11.0945 1.64931L 11.9975 1.2196L 11.5467 0.272371L 10.6221 0.767927L 11.0945 1.64931ZM 12.3913 4.37426L 12.8368 5.26952L 13.7164 4.83175L 13.2942 3.94456L 12.3913 4.37426ZM 28.2406 5.66503L 27.7055 6.50982L 28.5345 7.03491L 29.0751 6.21599L 28.2406 5.66503ZM 25.7911 4.30255L 24.879 3.89261L 24.4849 4.76947L 25.3456 5.19781L 25.7911 4.30255ZM 27.0159 1.5776L 27.4082 0.6578L 26.5059 0.272874L 26.1038 1.16766L 27.0159 1.5776ZM 29.8976 3.15521L 30.7321 3.70616L 31.3021 2.84283L 30.4199 2.30247L 29.8976 3.15521ZM 14.9848 3.51375L 14.0193 3.774L 14.2948 4.79629L 15.2997 4.46287L 14.9848 3.51375ZM 14.1923 0.573674L 13.9358 -0.392857L 12.9655 -0.135323L 13.2268 0.833925L 14.1923 0.573674ZM 17.4342 2.73549e-07L 18.4297 -0.0952456L 18.3372 -1.06212L 17.368 -0.997805L 17.4342 2.73549e-07ZM 17.7224 3.01179L 17.7988 4.00887L 18.8149 3.93106L 18.7179 2.91654L 17.7224 3.01179ZM 23.1976 3.44204L 22.9561 4.41245L 23.93 4.6548L 24.1689 3.68004L 23.1976 3.44204ZM 20.46 3.01179L 19.4626 2.94021L 19.3913 3.93289L 20.3837 4.00887L 20.46 3.01179ZM 20.6761 2.73549e-07L 20.7424 -0.997805L 19.7499 -1.06366L 19.6787 -0.0715758L 20.6761 2.73549e-07ZM 23.918 0.501965L 24.8893 0.739959L 25.138 -0.274802L 24.1133 -0.47879L 23.918 0.501965ZM 20.8113 38.1254L 20.7393 35.1136L 18.7399 35.1614L 18.8119 38.1732L 20.8113 38.1254ZM 19.7396 36.1375C 20.752 36.1346 21.7702 35.9816 22.6409 35.8372L 22.3135 33.8642C 21.4552 34.0066 20.6002 34.1404 19.7396 34.1375L 19.7396 36.1375ZM 21.4959 35.0431L 22.0722 37.9831L 24.0349 37.5984L 23.4585 34.6583L 21.4959 35.0431ZM 22.8449 36.8128C 21.8747 37.0205 20.8984 37.1515 19.8116 37.1493L 19.8116 39.1493C 21.0302 39.1471 22.2152 38.9913 23.2621 38.7688L 22.8449 36.8128ZM 16.7013 37.0146C 15.6835 36.8816 14.6735 36.6114 13.6734 36.3269L 13.1263 38.2507C 14.1434 38.5399 15.2946 38.8434 16.4382 38.9972L 16.7013 37.0146ZM 14.3505 37.5992L 15.287 34.7308L 13.3858 34.1101L 12.4493 36.9784L 14.3505 37.5992ZM 14.0215 35.3696C 14.9312 35.6702 15.9436 35.9034 16.8383 36.0523L 17.1656 34.0793C 16.3313 33.9414 15.4706 33.7443 14.6513 33.4713L 14.0215 35.3696ZM 16.0126 34.9204L 15.5804 37.8604L 17.5591 38.1514L 17.9913 35.2113L 16.0126 34.9204ZM 27.1562 36.4981L 26.0756 33.7015L 24.21 34.4223L 25.2906 37.219L 27.1562 36.4981ZM 25.5259 34.9856C 26.405 34.6209 27.2746 34.2249 28.1273 33.6876L 27.0571 31.998C 26.3249 32.4647 25.6096 32.7858 24.7597 33.1382L 25.5259 34.9856ZM 26.74 33.366L 28.3249 35.9476L 30.0293 34.9012L 28.4444 32.3196L 26.74 33.366ZM 28.6548 34.5716C 27.782 35.1094 26.8396 35.5085 25.831 35.9387L 26.6158 37.7784C 27.6244 37.3481 28.6992 36.8867 29.6995 36.2771L 28.6548 34.5716ZM 10.7744 35.1167C 9.86307 34.6287 9.01082 34.1091 8.20288 33.4356L 6.92601 34.975C 7.84708 35.7357 8.86793 36.3635 9.82965 36.8794L 10.7744 35.1167ZM 8.34854 34.8259L 10.2216 32.4595L 8.65345 31.2183L 6.78035 33.5847L 8.34854 34.8259ZM 8.81461 32.6212C 9.57811 33.2273 10.444 33.7768 11.2658 34.2236L 12.22 32.466C 11.4568 32.0522 10.7378 31.5979 10.0605 31.0566L 8.81461 32.6212ZM 10.8641 32.8676L 9.42327 35.5208L 11.1808 36.4753L 12.6217 33.822L 10.8641 32.8676ZM 32.5938 32.828L 30.5766 30.5333L 29.0745 31.8538L 31.0916 34.1484L 32.5938 32.828ZM 30.4484 31.9758C 31.2306 31.3487 31.9552 30.5516 32.5501 29.8121L 30.9912 28.5592C 30.4334 29.2539 29.8613 29.8909 29.2026 30.4112L 30.4484 31.9758ZM 31.1392 29.9611L 33.5166 31.8972L 34.7795 30.3464L 32.4021 28.4103L 31.1392 29.9611ZM 33.3813 30.4799C 32.6908 31.3063 31.9468 32.0458 31.1717 32.7467L 32.5137 34.2297C 33.3236 33.4964 34.1645 32.6584 34.9148 31.7637L 33.3813 30.4799ZM 5.85339 31.3797C 5.14733 30.6069 4.4849 29.8193 3.94839 28.9466L 2.24725 29.9984C 2.86341 30.9901 3.64183 31.9235 4.37662 32.7284L 5.85339 31.3797ZM 3.64522 30.3094L 6.1667 28.6601L 5.0719 26.9863L 2.55042 28.6356L 3.64522 30.3094ZM 4.77677 28.3618C 5.31142 29.1954 5.95633 29.9977 6.64285 30.6832L 8.05378 29.2657C 7.44353 28.6605 6.93578 28.0286 6.46183 27.2845L 4.77677 28.3618ZM 6.66685 29.2426L 4.43354 31.3222L 5.79647 32.7859L 8.02978 30.7063L 6.66685 29.2426ZM 36.441 27.5979L 33.7754 26.092L 32.7917 27.8333L 35.4572 29.3392L 36.441 27.5979ZM 34.1605 27.4432C 34.6012 26.6387 35.0713 25.6975 35.3845 24.7704L 33.488 24.1353C 33.2248 24.9292 32.8304 25.7091 32.4066 26.4821L 34.1605 27.4432ZM 34.1072 25.3972L 36.9889 26.4011L 37.6469 24.5124L 34.7652 23.5085L 34.1072 25.3972ZM 36.3767 25.1191C 36.0274 26.0939 35.6311 27.0172 35.0819 27.9707L 36.8164 28.9664C 37.4198 27.912 37.888 26.8275 38.2592 25.7945L 36.3767 25.1191ZM 2.50341 26.2087C 2.08685 25.2434 1.75687 24.2601 1.55394 23.3102L -0.401264 23.7311C -0.171945 24.789 0.218503 25.957 0.666449 26.9996L 2.50341 26.2087ZM 0.81226 24.4924L 3.766 23.7753L 3.29415 21.8318L 0.340416 22.5489L 0.81226 24.4924ZM 2.5602 23.0471C 2.78322 23.9336 3.09992 24.9524 3.48494 25.8005L 5.30422 24.9697C 4.96882 24.2402 4.70918 23.3945 4.49995 22.5599L 2.5602 23.0471ZM 3.99655 24.4677L 1.1869 25.6868L 1.98296 27.5215L 4.79261 26.3024L 3.99655 24.4677ZM 38.35 21.3157L 35.3962 20.8137L 35.0611 22.7855L 38.0149 23.2874L 38.35 21.3157ZM 36.217 21.9524C 36.3658 20.9855 36.4439 20.0486 36.4448 19.0747L 34.4448 19.0747C 34.4457 19.9651 34.3798 20.7492 34.2404 21.6469L 36.217 21.9524ZM 36.4448 19.0747C 36.4436 18.3792 36.3672 17.6067 36.2946 16.9559L 34.3069 17.1777C 34.3783 17.8176 34.4461 18.4793 34.4448 19.0747L 36.4448 19.0747ZM 35.4184 18.0599L 38.4442 17.7013L 38.2088 15.7152L 35.1831 16.0737L 35.4184 18.0599ZM 37.3307 16.7992C 37.4027 17.588 37.4716 18.3314 37.4706 19.0747L 39.4706 19.0747C 39.4696 18.2403 39.3944 17.4061 39.3224 16.6173L 37.3307 16.7992ZM 37.4706 19.0747C 37.4728 20.0838 37.3354 21.0932 37.1913 22.1688L 39.1736 22.4343C 39.3177 21.3587 39.4684 20.2168 39.4706 19.0747L 37.4706 19.0747ZM 1.07204 20.222C 1.06713 19.6928 0.99509 19.3342 1 19.0029L -1 19.0029C -0.995089 19.5322 -0.923047 19.8907 -0.927958 20.222L 1.07204 20.222ZM 1 19.0029C 0.998456 18.3414 1.06647 17.7459 1.13908 17.0233L -0.850907 16.8234C -0.922382 17.535 -0.998455 18.2303 -1 19.0029L 1 19.0029ZM 0.0497106 17.9189L 3.07549 18.2058L 3.26424 16.2147L 0.238459 15.9278L 0.0497106 17.9189ZM 2.17765 17.0856C 2.09977 17.7215 2.09782 18.3576 2.09782 18.9312L 4.09782 18.9312C 4.09782 18.3576 4.09587 17.8463 4.16207 17.3348L 2.17765 17.0856ZM 2.09782 18.9312C 2.09782 19.2898 2.09782 19.5766 2.09782 19.9352L 4.09782 19.9352C 4.09782 19.5766 4.09782 19.2898 4.09782 18.9312L 2.09782 18.9312ZM 3.00344 18.9396L -0.022332 19.2265L 0.166416 21.2175L 3.19219 20.9307L 3.00344 18.9396ZM 3.96029 13.6705L 1.07859 12.81L 0.506337 14.7264L 3.38803 15.5869L 3.96029 13.6705ZM 1.7584 14.027C 2.02532 13.0205 2.43137 12.0841 2.86362 11.0801L 1.02666 10.2892C 0.594406 11.2931 0.13595 12.3646 -0.173471 13.5094L 1.7584 14.027ZM 1.51867 11.5892L 4.25628 12.8799L 5.10922 11.0709L 2.37161 9.78017L 1.51867 11.5892ZM 3.78915 11.5266C 3.34194 12.4182 2.9386 13.3894 2.7 14.4028L 4.64832 14.8545C 4.84197 14.0035 5.15906 13.2537 5.57635 12.4243L 3.78915 11.5266ZM 35.6726 14.0243C 35.3722 13.1293 34.9985 12.2347 34.6382 11.3742L 32.7934 12.1465C 33.1536 13.007 33.5003 13.8334 33.7761 14.6594L 35.6726 14.0243ZM 34.1614 12.6556L 36.899 11.2931L 36.0078 9.50259L 33.2702 10.8651L 34.1614 12.6556ZM 35.5598 10.8467C 36.0513 11.8241 36.4482 12.7421 36.7169 13.6855L 38.6393 13.1337C 38.3317 12.0693 37.8641 10.9794 37.347 9.94897L 35.5598 10.8467ZM 37.3772 12.456L 34.4234 13.3882L 35.0254 15.2955L 37.9791 14.3633L 37.3772 12.456ZM 6.64216 8.87379L 4.19272 7.08106L 3.01151 8.69497L 5.46094 10.4877L 6.64216 8.87379ZM 4.40078 8.48979C 5.03346 7.64957 5.70779 6.84303 6.46885 6.08694L 5.05792 4.66945C 4.23405 5.49096 3.46753 6.40544 2.80345 7.28624L 4.40078 8.48979ZM 5.05792 6.08694L 7.21919 8.23821L 8.63012 6.82073L 6.46885 4.66945L 5.05792 6.08694ZM 7.21919 6.82073C 6.47824 7.55885 5.8503 8.26317 5.24412 9.09079L 6.85899 10.2707C 7.40548 9.52072 7.93022 8.93427 8.63012 8.23821L 7.21919 6.82073ZM 32.9824 8.83916C 32.406 8.12207 31.7938 7.36281 31.1073 6.67731L 29.6964 8.09479C 30.3066 8.70006 30.8471 9.37499 31.4235 10.0921L 32.9824 8.83916ZM 31.1192 8.08274L 33.2085 5.93146L 31.7737 4.53809L 29.6845 6.68937L 31.1192 8.08274ZM 31.8201 5.97626C 32.563 6.64523 33.221 7.43444 33.8537 8.27467L 35.451 7.07111C 34.7869 6.19032 34.0041 5.2585 33.162 4.49328L 31.8201 5.97626ZM 34.0617 6.86593L 31.6123 8.65866L 32.7935 10.2726L 35.243 8.47985L 34.0617 6.86593ZM 10.8374 5.24114L 9.10837 2.73131L 7.46136 3.86594L 9.19038 6.37576L 10.8374 5.24114ZM 8.88309 4.09996C 9.67337 3.50496 10.617 3.0397 11.5669 2.5307L 10.6221 0.767927C 9.69893 1.26286 8.62537 1.80152 7.68665 2.49729L 8.88309 4.09996ZM 10.1915 2.07902L 11.4883 4.80397L 13.2942 3.94456L 11.9975 1.2196L 10.1915 2.07902ZM 11.9457 3.47901C 11.0358 3.93335 10.1808 4.47365 9.4422 4.98797L 10.5856 6.62893C 11.2878 6.13932 12.0177 5.67569 12.8368 5.26952L 11.9457 3.47901ZM 28.7757 4.82024C 27.9545 4.30077 27.1171 3.84563 26.2367 3.4073L 25.3456 5.19781C 26.1942 5.61999 26.9417 6.02536 27.7055 6.50982L 28.7757 4.82024ZM 26.7033 4.7125L 27.928 1.98755L 26.1038 1.16766L 24.879 3.89261L 26.7033 4.7125ZM 26.6235 2.49741C 27.5659 2.89651 28.4387 3.43427 29.3752 4.00795L 30.4199 2.30247C 29.4833 1.72879 28.483 1.11921 27.4082 0.6578L 26.6235 2.49741ZM 29.063 2.60425L 27.406 5.11407L 29.0751 6.21599L 30.7321 3.70616L 29.063 2.60425ZM 15.9503 3.2535L 15.1579 0.313422L 13.2268 0.833925L 14.0193 3.774L 15.9503 3.2535ZM 14.4489 1.5402C 15.499 1.26096 16.4846 1.06309 17.5005 0.997806L 17.368 -0.997805C 16.2226 -0.919672 15.047 -0.687289 13.9358 -0.392857L 14.4489 1.5402ZM 16.4388 0.0952461L 16.727 3.10703L 18.7179 2.91654L 18.4297 -0.0952456L 16.4388 0.0952461ZM 17.6461 2.01471C 16.6719 2.09001 15.6153 2.25467 14.6699 2.56463L 15.2997 4.46287C 16.0833 4.19916 16.8998 4.07698 17.7988 4.00887L 17.6461 2.01471ZM 23.4391 2.47164C 22.5297 2.24644 21.5105 2.09001 20.5364 2.01471L 20.3837 4.00887C 21.2826 4.07698 22.1365 4.20739 22.9561 4.41245L 23.4391 2.47164ZM 21.4574 3.08336L 21.6736 0.0715764L 19.6787 -0.0715758L 19.4626 2.94021L 21.4574 3.08336ZM 20.6099 0.997806C 21.6258 1.06309 22.6422 1.26759 23.7228 1.48272L 24.1133 -0.47879C 23.0327 -0.693918 21.8878 -0.919672 20.7424 -0.997805L 20.6099 0.997806ZM 22.9468 0.26397L 22.2264 3.20405L 24.1689 3.68004L 24.8893 0.739959L 22.9468 0.26397Z"/>
<path id="path28_fill" d="M 25.7911 51.3438C 11.5268 51.3438 -2.19856e-06 39.7986 -2.19856e-06 25.6719C -2.19856e-06 11.5452 11.5988 2.18839e-06 25.7911 2.18839e-06C 40.0555 2.18839e-06 51.5823 11.5452 51.5823 25.6719C 51.5823 39.7986 40.0555 51.3438 25.7911 51.3438ZM 25.7911 2.94007C 13.2558 2.94007 3.02577 13.1228 3.02577 25.6002C 3.02577 38.0776 13.2558 48.2603 25.7911 48.2603C 38.3265 48.2603 48.5565 38.0776 48.5565 25.6002C 48.5565 13.1228 38.3985 2.94007 25.7911 2.94007Z"/>
<path id="path29_stroke_2x" d="M 25.7911 50.3438C 12.0765 50.3438 0.999998 39.2438 0.999998 25.6719L -1 25.6719C -1 40.3535 10.977 52.3438 25.7911 52.3438L 25.7911 50.3438ZM 0.999998 25.6719C 0.999998 12.1018 12.1467 1 25.7911 1L 25.7911 -0.999998C 11.0509 -0.999998 -1 10.9885 -1 25.6719L 0.999998 25.6719ZM 25.7911 1C 39.5058 1 50.5823 12.1 50.5823 25.6719L 52.5823 25.6719C 52.5823 10.9904 40.6053 -0.999998 25.7911 -0.999998L 25.7911 1ZM 50.5823 25.6719C 50.5823 39.2438 39.5058 50.3438 25.7911 50.3438L 25.7911 52.3438C 40.6053 52.3438 52.5823 40.3535 52.5823 25.6719L 50.5823 25.6719ZM 25.7911 1.94007C 12.7079 1.94007 2.02577 12.5661 2.02577 25.6002L 4.02577 25.6002C 4.02577 13.6794 13.8037 3.94007 25.7911 3.94007L 25.7911 1.94007ZM 2.02577 25.6002C 2.02577 38.6343 12.7079 49.2603 25.7911 49.2603L 25.7911 47.2603C 13.8037 47.2603 4.02577 37.521 4.02577 25.6002L 2.02577 25.6002ZM 25.7911 49.2603C 38.8744 49.2603 49.5565 38.6343 49.5565 25.6002L 47.5565 25.6002C 47.5565 37.521 37.7786 47.2603 25.7911 47.2603L 25.7911 49.2603ZM 49.5565 25.6002C 49.5565 12.5682 38.9485 1.94007 25.7911 1.94007L 25.7911 3.94007C 37.8486 3.94007 47.5565 13.6774 47.5565 25.6002L 49.5565 25.6002Z"/>
<path id="path30_fill" d="M 19.2353 40.1572C 18.1547 40.0855 17.074 39.942 15.9934 39.7269L 16.6418 36.7868C 17.5783 37.002 18.4428 37.0737 19.3794 37.1454L 19.2353 40.1572ZM 22.4772 40.0855L 22.117 37.0737C 23.0535 37.002 23.918 36.7868 24.8546 36.5717L 25.6471 39.4401C 24.6385 39.7269 23.5578 39.942 22.4772 40.0855ZM 12.8235 38.8664C 11.8149 38.5079 10.8063 38.0059 9.86979 37.4322L 11.3827 34.8507C 12.1752 35.3527 13.0397 35.7112 13.9042 36.0697L 12.8235 38.8664ZM 28.7449 38.2927L 27.4481 35.5678C 28.3126 35.2092 29.1051 34.7073 29.8255 34.2053L 31.5545 36.7151C 30.69 37.2888 29.7535 37.8625 28.7449 38.2927ZM 7.20423 35.5678C 6.33972 34.8507 5.54726 34.1336 4.89888 33.2731L 7.20423 31.3369C 7.78057 32.054 8.50099 32.6994 9.14937 33.2731L 7.20423 35.5678ZM 34.148 34.6356L 32.0588 32.4843C 32.7072 31.8389 33.3556 31.1218 33.9319 30.4047L 36.3814 32.1974C 35.6609 33.1297 34.9405 33.9185 34.148 34.6356ZM 2.95374 30.6199C 2.3774 29.6876 1.8731 28.7554 1.44085 27.7515L 4.25049 26.6041C 4.6107 27.4646 5.04297 28.2534 5.47522 29.0422L 2.95374 30.6199ZM 38.0383 29.4725L 35.3728 28.0383C 35.805 27.2495 36.1652 26.389 36.4534 25.5285L 39.3351 26.4607C 39.0469 27.5363 38.6147 28.5403 38.0383 29.4725ZM 0.504294 24.5963C 0.288167 23.5206 0.0720423 22.445 0 21.3693L 3.02577 21.1542C 3.09782 22.0864 3.24191 23.0187 3.45803 23.8792L 0.504294 24.5963ZM 40.1276 23.3055L 37.1018 22.8035C 37.2459 21.8713 37.3179 20.9391 37.3179 20.0786C 37.3179 19.3615 37.2459 18.5727 37.1738 17.8556L 40.1996 17.497C 40.3437 18.3576 40.3437 19.2181 40.3437 20.0786C 40.4157 21.1542 40.3437 22.3016 40.1276 23.3055ZM 3.09782 18.4293L 0.0720467 18.1424C 0.144089 17.0668 0.360207 15.9912 0.648376 14.9155L 3.60212 15.7043C 3.31395 16.6365 3.16986 17.4971 3.09782 18.4293ZM 36.6695 15.1307C 36.3814 14.2701 36.0932 13.4096 35.6609 12.5491L 38.3985 11.2584C 38.9028 12.2623 39.2631 13.2662 39.6233 14.2701L 36.6695 15.1307ZM 4.46662 13.1228L 1.72901 11.9037C 2.16126 10.8998 2.73761 9.96759 3.31395 9.03537L 5.83543 10.6847C 5.33113 11.4735 4.89887 12.2623 4.46662 13.1228ZM 34.2201 10.1827C 33.7158 9.46562 33.0674 8.74852 32.419 8.03143L 34.5803 5.88016C 35.3728 6.66896 36.0211 7.45776 36.6695 8.38998L 34.2201 10.1827ZM 7.56444 8.53339L 5.33113 6.45383C 6.05155 5.66503 6.84402 4.94793 7.70852 4.23084L 9.58163 6.59725C 8.86121 7.17092 8.21282 7.8163 7.56444 8.53339ZM 30.3298 6.31042C 29.6094 5.73674 28.8169 5.30649 27.9524 4.87623L 29.3212 2.22299C 30.2578 2.72496 31.2664 3.29862 32.1309 3.94401L 30.3298 6.31042ZM 11.887 5.09136L 10.4461 2.43811C 11.3827 1.93615 12.3913 1.43418 13.3999 1.07564L 14.4085 3.94401C 13.544 4.30255 12.7515 4.6611 11.887 5.09136ZM 25.3589 3.80059C 24.4944 3.51375 23.5578 3.29862 22.6213 3.1552L 23.0535 0.143416C 24.1342 0.286835 25.2148 0.573672 26.2234 0.860509L 25.3589 3.80059ZM 17.1461 3.22692L 16.6418 0.286833C 17.7224 0.0717048 18.803 0 19.8837 0L 19.9557 3.01179C 18.9471 3.01179 18.0106 3.0835 17.1461 3.22692Z"/>
<path id="path31_stroke_2x" d="M 19.2353 40.1572L 19.1691 41.155L 20.1855 41.2224L 20.2341 40.205L 19.2353 40.1572ZM 15.9934 39.7269L 15.0169 39.5116L 14.797 40.5084L 15.7981 40.7077L 15.9934 39.7269ZM 16.6418 36.7868L 16.8656 35.8122L 15.8825 35.5864L 15.6652 36.5715L 16.6418 36.7868ZM 19.3794 37.1454L 20.3782 37.1932L 20.4247 36.2225L 19.4557 36.1483L 19.3794 37.1454ZM 22.4772 40.0855L 21.4843 40.2042L 21.6046 41.21L 22.6088 41.0768L 22.4772 40.0855ZM 22.117 37.0737L 22.0407 36.0766L 21.0001 36.1563L 21.1241 37.1924L 22.117 37.0737ZM 24.8546 36.5717L 25.8185 36.3054L 25.5636 35.3828L 24.6307 35.5971L 24.8546 36.5717ZM 25.6471 39.4401L 25.9206 40.4019L 26.8753 40.1304L 26.611 39.1738L 25.6471 39.4401ZM 12.8235 38.8664L 12.4886 39.8087L 13.4056 40.1346L 13.7563 39.2268L 12.8235 38.8664ZM 9.86979 37.4322L 9.00703 36.9266L 8.51118 37.7727L 9.34746 38.285L 9.86979 37.4322ZM 11.3827 34.8507L 11.9178 34.0059L 11.0433 33.452L 10.5199 34.3451L 11.3827 34.8507ZM 13.9042 36.0697L 14.837 36.4302L 15.1887 35.5199L 14.2873 35.146L 13.9042 36.0697ZM 28.7449 38.2927L 27.8419 38.7224L 28.2544 39.5892L 29.1373 39.2125L 28.7449 38.2927ZM 27.4481 35.5678L 27.065 34.6441L 26.0929 35.0472L 26.5452 35.9975L 27.4481 35.5678ZM 29.8255 34.2053L 30.649 33.638L 30.0787 32.8101L 29.2538 33.3848L 29.8255 34.2053ZM 31.5545 36.7151L 32.1074 37.5484L 32.9553 36.9858L 32.378 36.1478L 31.5545 36.7151ZM 7.20423 35.5678L 6.5658 36.3375L 7.3273 36.9691L 7.96705 36.2144L 7.20423 35.5678ZM 4.89888 33.2731L 4.25576 32.5073L 3.52942 33.1173L 4.10022 33.8749L 4.89888 33.2731ZM 7.20423 31.3369L 7.98368 30.7105L 7.34357 29.914L 6.56111 30.5712L 7.20423 31.3369ZM 9.14937 33.2731L 9.91219 33.9197L 10.5452 33.1729L 9.81201 32.5241L 9.14937 33.2731ZM 34.148 34.6356L 33.4307 35.3322L 34.1032 36.0248L 34.819 35.377L 34.148 34.6356ZM 32.0588 32.4843L 31.3534 31.7755L 30.6533 32.4724L 31.3414 33.181L 32.0588 32.4843ZM 33.9319 30.4047L 34.5225 29.5978L 33.7512 29.0332L 33.1525 29.7783L 33.9319 30.4047ZM 36.3814 32.1974L 37.1726 32.8089L 37.8003 31.9967L 36.972 31.3905L 36.3814 32.1974ZM 2.95374 30.6199L 2.10317 31.1457L 2.63185 32.0009L 3.48415 31.4676L 2.95374 30.6199ZM 1.44085 27.7515L 1.06279 26.8257L 0.119364 27.211L 0.522364 28.1469L 1.44085 27.7515ZM 4.25049 26.6041L 5.17293 26.218L 4.79016 25.3036L 3.87244 25.6783L 4.25049 26.6041ZM 5.47522 29.0422L 6.00563 29.89L 6.80575 29.3894L 6.35218 28.5617L 5.47522 29.0422ZM 38.0383 29.4725L 37.5645 30.3531L 38.3937 30.7993L 38.8889 29.9984L 38.0383 29.4725ZM 35.3728 28.0383L 34.4958 27.5578L 34.0115 28.4415L 34.899 28.9189L 35.3728 28.0383ZM 36.4534 25.5285L 36.7612 24.577L 35.8195 24.2724L 35.5052 25.2109L 36.4534 25.5285ZM 39.3351 26.4607L 40.301 26.7195L 40.5469 25.8017L 39.6429 25.5093L 39.3351 26.4607ZM 0.504294 24.5963L -0.476111 24.7933L -0.271103 25.8136L 0.740215 25.568L 0.504294 24.5963ZM 0 21.3693L -0.0709165 20.3719L -1.06432 20.4425L -0.997765 21.4362L 0 21.3693ZM 3.02577 21.1542L 4.0228 21.0772L 3.94622 20.0863L 2.95486 20.1567L 3.02577 21.1542ZM 3.45803 23.8792L 3.69395 24.8509L 4.67344 24.6131L 4.42791 23.6356L 3.45803 23.8792ZM 40.1276 23.3055L 39.9639 24.292L 40.9045 24.4481L 41.1052 23.516L 40.1276 23.3055ZM 37.1018 22.8035L 36.1135 22.6508L 35.9625 23.6282L 36.9381 23.79L 37.1018 22.8035ZM 37.1738 17.8556L 37.0562 16.8625L 36.0806 16.9781L 36.1788 17.9556L 37.1738 17.8556ZM 40.1996 17.497L 41.1859 17.3319L 41.0285 16.3918L 40.0819 16.504L 40.1996 17.497ZM 40.3437 20.0786L 39.3437 20.0786L 39.3437 20.112L 39.3459 20.1454L 40.3437 20.0786ZM 3.09782 18.4293L 3.00344 19.4248L 4.01645 19.5209L 4.09485 18.5063L 3.09782 18.4293ZM 0.0720467 18.1424L -0.925718 18.0756L -0.990722 19.0462L -0.0223338 19.138L 0.0720467 18.1424ZM 0.648376 14.9155L 0.906388 13.9494L -0.0589863 13.6916L -0.31756 14.6567L 0.648376 14.9155ZM 3.60212 15.7043L 4.55751 15.9997L 4.86454 15.0064L 3.86013 14.7382L 3.60212 15.7043ZM 36.6695 15.1307L 35.7213 15.4482L 36.0265 16.3596L 36.9492 16.0907L 36.6695 15.1307ZM 35.6609 12.5491L 35.2345 11.6446L 34.3071 12.0818L 34.7673 12.998L 35.6609 12.5491ZM 38.3985 11.2584L 39.2921 10.8095L 38.8543 9.93789L 37.9721 10.3539L 38.3985 11.2584ZM 39.6233 14.2701L 39.903 15.2302L 40.9235 14.9329L 40.5645 13.9324L 39.6233 14.2701ZM 4.46662 13.1228L 4.05983 14.0363L 4.93177 14.4246L 5.36022 13.5717L 4.46662 13.1228ZM 1.72901 11.9037L 0.810529 11.5083L 0.419925 12.4155L 1.32222 12.8173L 1.72901 11.9037ZM 3.31395 9.03537L 3.86135 8.1985L 3.00284 7.63694L 2.46338 8.50951L 3.31395 9.03537ZM 5.83543 10.6847L 6.67796 11.2233L 7.21102 10.3895L 6.38283 9.8478L 5.83543 10.6847ZM 34.2201 10.1827L 33.4021 10.758L 33.9883 11.5916L 34.8107 10.9897L 34.2201 10.1827ZM 32.419 8.03143L 31.7136 7.32269L 31.038 7.99511L 31.6773 8.70211L 32.419 8.03143ZM 34.5803 5.88016L 35.2858 5.17141L 34.5803 4.46921L 33.8748 5.17141L 34.5803 5.88016ZM 36.6695 8.38998L 37.2601 9.19694L 38.0479 8.62039L 37.4905 7.81899L 36.6695 8.38998ZM 7.56444 8.53339L 6.88298 9.26524L 7.62562 9.95676L 8.30619 9.20407L 7.56444 8.53339ZM 5.33113 6.45383L 4.59274 5.77945L 3.92483 6.51075L 4.64966 7.18568L 5.33113 6.45383ZM 7.70852 4.23084L 8.49262 3.6102L 7.8576 2.80794L 7.07009 3.46116L 7.70852 4.23084ZM 9.58163 6.59725L 10.2046 7.37953L 10.9846 6.75841L 10.3657 5.97661L 9.58163 6.59725ZM 30.3298 6.31042L 29.7069 7.09269L 30.5065 7.72943L 31.1256 6.91605L 30.3298 6.31042ZM 27.9524 4.87623L 27.0637 4.41774L 26.5985 5.31942L 27.5068 5.77148L 27.9524 4.87623ZM 29.3212 2.22299L 29.7936 1.34161L 28.8983 0.861723L 28.4325 1.7645L 29.3212 2.22299ZM 32.1309 3.94401L 32.9266 4.54964L 33.5379 3.74648L 32.7291 3.14268L 32.1309 3.94401ZM 11.887 5.09136L 11.0082 5.56858L 11.4687 6.41654L 12.3325 5.98661L 11.887 5.09136ZM 10.4461 2.43811L 9.97374 1.55672L 9.08751 2.03172L 9.56735 2.91533L 10.4461 2.43811ZM 13.3999 1.07564L 14.3433 0.743924L 14.0104 -0.202705L 13.0649 0.133405L 13.3999 1.07564ZM 14.4085 3.94401L 14.7916 4.86772L 15.6658 4.50514L 15.3518 3.61229L 14.4085 3.94401ZM 25.3589 3.80059L 25.044 4.74971L 26.0263 5.07564L 26.3183 4.08269L 25.3589 3.80059ZM 22.6213 3.1552L 21.6314 3.01314L 21.4907 3.99373L 22.4699 4.14368L 22.6213 3.1552ZM 23.0535 0.143416L 23.1851 -0.847892L 22.2042 -0.978067L 22.0637 0.00134979L 23.0535 0.143416ZM 26.2234 0.860509L 27.1828 1.1426L 27.4674 0.174641L 26.4969 -0.10135L 26.2234 0.860509ZM 17.1461 3.22692L 16.1605 3.39597L 16.3286 4.3762L 17.3097 4.21343L 17.1461 3.22692ZM 16.6418 0.286833L 16.4465 -0.693922L 15.4916 -0.50381L 15.6562 0.455887L 16.6418 0.286833ZM 19.8837 0L 20.8834 -0.0239111L 20.86 -1L 19.8837 -1L 19.8837 0ZM 19.9557 3.01179L 19.9557 4.01179L 20.9799 4.01179L 20.9554 2.98787L 19.9557 3.01179ZM 19.3015 39.1594C 18.2536 39.0904 17.2375 38.9555 16.1886 38.7462L 15.7981 40.7077C 16.9105 40.9286 18.0557 41.0806 19.1691 41.155L 19.3015 39.1594ZM 16.9699 39.9423L 17.6183 37.0022L 15.6652 36.5715L 15.0169 39.5116L 16.9699 39.9423ZM 16.4179 37.7614C 17.4247 37.9901 18.3633 38.0705 19.303 38.1425L 19.4557 36.1483C 18.5223 36.0768 17.732 36.0138 16.8656 35.8122L 16.4179 37.7614ZM 18.3805 37.0976L 18.2364 40.1094L 20.2341 40.205L 20.3782 37.1932L 18.3805 37.0976ZM 23.4701 39.9667L 23.1099 36.9549L 21.1241 37.1924L 21.4843 40.2042L 23.4701 39.9667ZM 22.1933 38.0708C 23.213 37.9892 24.1507 37.7594 25.0785 37.5463L 24.6307 35.5971C 23.6854 35.8143 22.8941 36.0148 22.0407 36.0766L 22.1933 38.0708ZM 23.8907 36.838L 24.6832 39.7064L 26.611 39.1738L 25.8185 36.3054L 23.8907 36.838ZM 25.3735 38.4782C 24.4039 38.7548 23.3944 38.9555 22.3456 39.0942L 22.6088 41.0768C 23.7213 40.9286 24.8731 40.699 25.9206 40.4019L 25.3735 38.4782ZM 13.1585 37.9242C 12.2059 37.5875 11.2908 37.1311 10.3921 36.5795L 9.34746 38.285C 10.3219 38.8807 11.424 39.4283 12.4886 39.8087L 13.1585 37.9242ZM 10.7326 37.9378L 12.2454 35.3563L 10.5199 34.3451L 9.00703 36.9266L 10.7326 37.9378ZM 10.8476 35.6955C 11.7144 36.2402 12.6566 36.6349 13.5211 36.9934L 14.2873 35.146C 13.4228 34.7875 12.6359 34.4651 11.9178 34.0059L 10.8476 35.6955ZM 12.9714 35.7093L 11.8907 38.506L 13.7563 39.2268L 14.837 36.4302L 12.9714 35.7093ZM 29.6478 37.863L 28.3511 35.1381L 26.5452 35.9975L 27.8419 38.7224L 29.6478 37.863ZM 27.8312 36.4915C 28.7734 36.0967 29.6586 35.5401 30.3972 35.0258L 29.2538 33.3848C 28.5516 33.8744 27.8518 34.3217 27.065 34.6441L 27.8312 36.4915ZM 29.002 34.7726L 30.731 37.2824L 32.378 36.1478L 30.649 33.638L 29.002 34.7726ZM 31.0016 35.8819C 30.1523 36.4457 29.2949 36.9738 28.3525 37.3729L 29.1373 39.2125C 30.212 38.7511 31.2277 38.1319 32.1074 37.5484L 31.0016 35.8819ZM 7.84266 34.7981C 6.99458 34.0949 6.28539 33.4589 5.69754 32.6713L 4.10022 33.8749C 4.80913 34.8083 5.68487 35.6064 6.5658 36.3375L 7.84266 34.7981ZM 5.542 34.0388L 7.84735 32.1027L 6.56111 30.5712L 4.25576 32.5073L 5.542 34.0388ZM 6.42478 31.9634C 7.0548 32.742 7.83604 33.4463 8.48673 34.022L 9.81201 32.5241C 9.16594 31.9525 8.50634 31.3661 7.98368 30.7105L 6.42478 31.9634ZM 8.38655 32.6265L 6.44141 34.9212L 7.96705 36.2144L 9.91219 33.9197L 8.38655 32.6265ZM 34.8654 33.9389L 32.7762 31.7876L 31.3414 33.181L 33.4307 35.3322L 34.8654 33.9389ZM 32.7643 33.193C 33.4311 32.5288 34.1165 31.7706 34.7114 31.0312L 33.1525 29.7783C 32.5947 30.473 31.9833 31.1489 31.3534 31.7755L 32.7643 33.193ZM 33.3413 31.2117L 35.7908 33.0044L 36.972 31.3905L 34.5225 29.5978L 33.3413 31.2117ZM 35.5901 31.586C 34.8955 32.4862 34.235 33.2097 33.4771 33.8941L 34.819 35.377C 35.646 34.6272 36.4264 33.7731 37.1726 32.8089L 35.5901 31.586ZM 3.80431 30.094C 3.24282 29.1866 2.77301 28.3193 2.35933 27.356L 0.522364 28.1469C 0.973187 29.1915 1.51198 30.1887 2.10317 31.1457L 3.80431 30.094ZM 1.8189 28.6773L 4.62855 27.5299L 3.87244 25.6783L 1.06279 26.8257L 1.8189 28.6773ZM 3.32805 26.9903C 3.70977 27.8986 4.16601 28.734 4.59826 29.5228L 6.35218 28.5617C 5.91992 27.7729 5.51164 27.0307 5.17293 26.218L 3.32805 26.9903ZM 4.94481 28.1945L 2.42333 29.7721L 3.48415 31.4676L 6.00563 29.89L 4.94481 28.1945ZM 38.5121 28.5919L 35.8466 27.1577L 34.899 28.9189L 37.5645 30.3531L 38.5121 28.5919ZM 36.2497 28.5189C 36.706 27.6835 37.1012 26.7411 37.4017 25.846L 35.5052 25.2109C 35.2293 26.0369 34.9041 26.8156 34.4958 27.5578L 36.2497 28.5189ZM 36.1456 26.4799L 39.0273 27.4122L 39.6429 25.5093L 36.7612 24.577L 36.1456 26.4799ZM 38.3692 26.2019C 38.1022 27.2084 37.7277 28.0784 37.1878 28.9466L 38.8889 29.9984C 39.5016 29.0022 39.9916 27.8643 40.301 26.7195L 38.3692 26.2019ZM 1.4847 24.3993C 1.26857 23.3236 1.06327 22.3128 0.997765 21.3025L -0.997765 21.4362C -0.919182 22.5772 -0.692238 23.7176 -0.476111 24.7933L 1.4847 24.3993ZM 0.0709165 22.3668L 3.09669 22.1517L 2.95486 20.1567L -0.0709165 20.3719L 0.0709165 22.3668ZM 2.02875 21.2313C 2.10445 22.2014 2.26178 23.217 2.48816 24.1228L 4.42791 23.6356C 4.22203 22.8203 4.09118 21.9715 4.0228 21.0772L 2.02875 21.2313ZM 3.22211 22.9074L 0.268372 23.6245L 0.740215 25.568L 3.69395 24.8509L 3.22211 22.9074ZM 40.2912 22.319L 37.2654 21.817L 36.9381 23.79L 39.9639 24.292L 40.2912 22.319ZM 38.09 22.9563C 38.2392 21.9863 38.3172 20.9776 38.3179 20.0786L 36.3179 20.0786C 36.3186 20.9005 36.2525 21.7563 36.1135 22.6508L 38.09 22.9563ZM 38.3179 20.0786C 38.3169 19.316 38.2413 18.4772 38.1688 17.7556L 36.1788 17.9556C 36.2504 18.6681 36.3189 19.407 36.3179 20.0786L 38.3179 20.0786ZM 37.2915 18.8486L 40.3173 18.4901L 40.0819 16.504L 37.0562 16.8625L 37.2915 18.8486ZM 39.2133 17.6622C 39.3471 18.4404 39.3437 19.2181 39.3437 20.0786L 41.3437 20.0786C 41.3437 19.2181 41.3402 18.2747 41.1859 17.3319L 39.2133 17.6622ZM 39.3459 20.1454C 39.4157 21.1563 39.3531 22.1646 39.15 23.095L 41.1052 23.516C 41.3343 22.4385 41.4157 21.1521 41.3415 20.0118L 39.3459 20.1454ZM 3.1922 17.4337L 0.166427 17.1469L -0.0223338 19.138L 3.00344 19.4248L 3.1922 17.4337ZM 1.06981 18.2093C 1.13531 17.199 1.33387 16.2191 1.61431 15.1743L -0.31756 14.6567C -0.613455 15.7632 -0.847135 16.9346 -0.925718 18.0756L 1.06981 18.2093ZM 0.390365 15.8817L 3.3441 16.6705L 3.86013 14.7382L 0.906388 13.9494L 0.390365 15.8817ZM 2.64672 15.409C 2.34093 16.4058 2.17724 17.3758 2.10079 18.3522L 4.09485 18.5063C 4.16249 17.6183 4.28696 16.8673 4.55751 15.9997L 2.64672 15.409ZM 37.6178 14.8131C 37.3296 13.9526 37.0165 13.0254 36.5545 12.1002L 34.7673 12.998C 35.1699 13.7938 35.4331 14.5877 35.7213 15.4482L 37.6178 14.8131ZM 36.0874 13.4536L 38.825 12.1629L 37.9721 10.3539L 35.2345 11.6446L 36.0874 13.4536ZM 37.5049 11.7072C 37.9837 12.6563 38.3218 13.6039 38.682 14.6079L 40.5645 13.9324C 40.2043 12.9285 39.8219 11.8683 39.2921 10.8095L 37.5049 11.7072ZM 39.3436 13.31L 36.3898 14.1706L 36.9492 16.0907L 39.903 15.2302L 39.3436 13.31ZM 4.87341 12.2093L 2.1358 10.9902L 1.32222 12.8173L 4.05983 14.0363L 4.87341 12.2093ZM 2.64749 12.2992C 3.04819 11.3617 3.58818 10.4935 4.16452 9.56123L 2.46338 8.50951C 1.88704 9.44173 1.27434 10.4379 0.810529 11.5083L 2.64749 12.2992ZM 2.76655 9.87224L 5.28803 11.5215L 6.38283 9.8478L 3.86135 8.1985L 2.76655 9.87224ZM 4.9929 10.146C 4.4709 10.9636 4.01346 11.7975 3.57302 12.6739L 5.36022 13.5717C 5.78429 12.7271 6.19137 11.9834 6.67796 11.2233L 4.9929 10.146ZM 35.0381 9.60746C 34.4971 8.84149 33.8092 8.07785 33.1608 7.36076L 31.6773 8.70211C 32.3257 9.4192 32.9345 10.0897 33.4021 10.758L 35.0381 9.60746ZM 33.1245 8.74018L 35.2858 6.5889L 33.8748 5.17141L 31.7136 7.32269L 33.1245 8.74018ZM 33.8748 6.5889C 34.6329 7.34166 35.2238 8.06124 35.8486 8.96097L 37.4905 7.81899C 36.8185 6.85428 36.1127 5.99625 35.2858 5.17141L 33.8748 6.5889ZM 36.0789 7.58302L 33.6295 9.37575L 34.8107 10.9897L 37.2601 9.19694L 36.0789 7.58302ZM 8.24591 7.80155L 6.01259 5.72198L 4.64966 7.18568L 6.88298 9.26524L 8.24591 7.80155ZM 6.06951 7.12821C 6.75702 6.37376 7.49887 5.70369 8.34696 5.00052L 7.07009 3.46116C 6.18917 4.19217 5.34607 4.95629 4.59274 5.77945L 6.06951 7.12821ZM 6.92443 4.85148L 8.79753 7.21789L 10.3657 5.97661L 8.49262 3.6102L 6.92443 4.85148ZM 8.9587 5.81497C 8.19599 6.42427 7.48897 7.12635 6.82269 7.86272L 8.30619 9.20407C 8.93668 8.50625 9.52642 7.91757 10.2046 7.37953L 8.9587 5.81497ZM 30.9527 5.52814C 30.1615 4.90299 29.2783 4.4193 28.398 3.98098L 27.5068 5.77148C 28.3555 6.19367 29.0572 6.57049 29.7069 7.09269L 30.9527 5.52814ZM 28.8411 5.33472L 30.2099 2.68148L 28.4325 1.7645L 27.0637 4.41774L 28.8411 5.33472ZM 28.8488 3.10438C 29.7743 3.60033 30.719 4.13552 31.5327 4.74534L 32.7291 3.14268C 31.8137 2.46173 30.7412 1.84958 29.7936 1.34161L 28.8488 3.10438ZM 31.3351 3.33837L 29.5341 5.70478L 31.1256 6.91605L 32.9266 4.54964L 31.3351 3.33837ZM 12.7658 4.61414L 11.3249 1.96089L 9.56735 2.91533L 11.0082 5.56858L 12.7658 4.61414ZM 10.9185 3.31949C 11.8417 2.82457 12.7822 2.35459 13.7348 2.01787L 13.0649 0.133405C 12.0003 0.513777 10.9237 1.04772 9.97374 1.55672L 10.9185 3.31949ZM 12.4565 1.40735L 13.4651 4.27572L 15.3518 3.61229L 14.3433 0.743924L 12.4565 1.40735ZM 14.0254 3.0203C 13.1462 3.38504 12.3225 3.75778 11.4414 4.19611L 12.3325 5.98661C 13.1804 5.56443 13.9417 5.22007 14.7916 4.86772L 14.0254 3.0203ZM 25.6738 2.85147C 24.7641 2.55081 23.7456 2.3164 22.7726 2.16672L 22.4699 4.14368C 23.3701 4.28084 24.2247 4.4767 25.044 4.74971L 25.6738 2.85147ZM 23.6111 3.29727L 24.0434 0.285483L 22.0637 0.00134979L 21.6314 3.01314L 23.6111 3.29727ZM 22.922 1.13472C 23.9397 1.26775 24.9497 1.5379 25.9498 1.82237L 26.4969 -0.10135C 25.4799 -0.390561 24.3286 -0.694077 23.1851 -0.847892L 22.922 1.13472ZM 25.264 0.578413L 24.3995 3.5185L 26.3183 4.08269L 27.1828 1.1426L 25.264 0.578413ZM 18.1317 3.05786L 17.6274 0.117778L 15.6562 0.455887L 16.1605 3.39597L 18.1317 3.05786ZM 16.837 1.26759C 17.8534 1.06309 18.8362 0.999451 19.8837 1L 19.8837 -1C 18.7699 -0.999451 17.5914 -0.919677 16.4465 -0.693922L 16.837 1.26759ZM 18.884 0.0239111L 18.956 3.0357L 20.9554 2.98787L 20.8834 -0.0239111L 18.884 0.0239111ZM 19.9557 2.01179C 18.9089 2.01252 17.8905 2.09074 16.9824 2.2404L 17.3097 4.21343C 18.1307 4.07626 18.9853 4.01106 19.9557 4.01179L 19.9557 2.01179Z"/>
<path id="path32_fill" d="M 5.97951 14.7004L -2.19856e-06 8.10314L 2.23331 6.09529L 6.05156 10.2544L 15.7773 4.37678e-06L 17.9385 2.07957L 5.97951 14.7004Z"/>
<path id="path33_stroke_2x" d="M 5.97951 14.7004L 5.23857 15.372L 5.96321 16.1715L 6.70539 15.3882L 5.97951 14.7004ZM -2.19856e-06 8.10314L -0.668574 7.35949L -1.41523 8.03077L -0.740947 8.7747L -2.19856e-06 8.10314ZM 2.23331 6.09529L 2.96996 5.41901L 2.30069 4.68999L 1.56474 5.35164L 2.23331 6.09529ZM 6.05156 10.2544L 5.31491 10.9307L 6.03965 11.7201L 6.77712 10.9426L 6.05156 10.2544ZM 15.7773 4.37678e-06L 16.4706 -0.720592L 15.7448 -1.41895L 15.0517 -0.688151L 15.7773 4.37678e-06ZM 17.9385 2.07957L 18.6644 2.76739L 19.347 2.04704L 18.6319 1.35897L 17.9385 2.07957ZM 6.72046 14.0288L 0.740943 7.43157L -0.740947 8.7747L 5.23857 15.372L 6.72046 14.0288ZM 0.66857 8.84679L 2.90189 6.83894L 1.56474 5.35164L -0.668574 7.35949L 0.66857 8.84679ZM 1.49666 6.77156L 5.31491 10.9307L 6.78821 9.57814L 2.96996 5.41901L 1.49666 6.77156ZM 6.77712 10.9426L 16.5028 0.688159L 15.0517 -0.688151L 5.32599 9.56626L 6.77712 10.9426ZM 15.0839 0.720601L 17.2452 2.80016L 18.6319 1.35897L 16.4706 -0.720592L 15.0839 0.720601ZM 17.2127 1.39175L 5.25363 14.0126L 6.70539 15.3882L 18.6644 2.76739L 17.2127 1.39175Z"/>
<path id="path34_fill" d="M 46.3232 4.37678e-06L 0 4.37678e-06L 0 3.01179L 46.3232 3.01179L 46.3232 4.37678e-06Z"/>
<path id="path35_stroke_2x" d="M 0 4.37678e-06L 0 -0.999996L -1 -0.999996L -1 4.37678e-06L 0 4.37678e-06ZM 46.3232 4.37678e-06L 47.3232 4.37678e-06L 47.3232 -0.999996L 46.3232 -0.999996L 46.3232 4.37678e-06ZM 46.3232 3.01179L 46.3232 4.01179L 47.3232 4.01179L 47.3232 3.01179L 46.3232 3.01179ZM 0 3.01179L -1 3.01179L -1 4.01179L 0 4.01179L 0 3.01179ZM 0 1L 46.3232 1L 46.3232 -0.999996L 0 -0.999996L 0 1ZM 45.3232 4.37678e-06L 45.3232 3.01179L 47.3232 3.01179L 47.3232 4.37678e-06L 45.3232 4.37678e-06ZM 46.3232 2.01179L 0 2.01179L 0 4.01179L 46.3232 4.01179L 46.3232 2.01179ZM 1 3.01179L 1 4.37678e-06L -1 4.37678e-06L -1 3.01179L 1 3.01179Z"/>
<path id="path36_fill" d="M 46.3232 -2.18839e-06L 0 -2.18839e-06L 0 3.01178L 46.3232 3.01178L 46.3232 -2.18839e-06Z"/>
<path id="path37_stroke_2x" d="M 0 -2.18839e-06L 0 -1L -1 -1L -1 -2.18839e-06L 0 -2.18839e-06ZM 46.3232 -2.18839e-06L 47.3232 -2.18839e-06L 47.3232 -1L 46.3232 -1L 46.3232 -2.18839e-06ZM 46.3232 3.01178L 46.3232 4.01178L 47.3232 4.01178L 47.3232 3.01178L 46.3232 3.01178ZM 0 3.01178L -1 3.01178L -1 4.01178L 0 4.01178L 0 3.01178ZM 0 0.999998L 46.3232 0.999998L 46.3232 -1L 0 -1L 0 0.999998ZM 45.3232 -2.18839e-06L 45.3232 3.01178L 47.3232 3.01178L 47.3232 -2.18839e-06L 45.3232 -2.18839e-06ZM 46.3232 2.01178L 0 2.01178L 0 4.01178L 46.3232 4.01178L 46.3232 2.01178ZM 1 3.01178L 1 -2.18839e-06L -1 -2.18839e-06L -1 3.01178L 1 3.01178Z"/>
<path id="path38_fill" d="M 46.3232 2.18839e-06L 0 2.18839e-06L 0 3.01179L 46.3232 3.01179L 46.3232 2.18839e-06Z"/>
<path id="path39_stroke_2x" d="M 0 2.18839e-06L 0 -0.999998L -1 -0.999998L -1 2.18839e-06L 0 2.18839e-06ZM 46.3232 2.18839e-06L 47.3232 2.18839e-06L 47.3232 -0.999998L 46.3232 -0.999998L 46.3232 2.18839e-06ZM 46.3232 3.01179L 46.3232 4.01179L 47.3232 4.01179L 47.3232 3.01179L 46.3232 3.01179ZM 0 3.01179L -1 3.01179L -1 4.01179L 0 4.01179L 0 3.01179ZM 0 1L 46.3232 1L 46.3232 -0.999998L 0 -0.999998L 0 1ZM 45.3232 2.18839e-06L 45.3232 3.01179L 47.3232 3.01179L 47.3232 2.18839e-06L 45.3232 2.18839e-06ZM 46.3232 2.01179L 0 2.01179L 0 4.01179L 46.3232 4.01179L 46.3232 2.01179ZM 1 3.01179L 1 2.18839e-06L -1 2.18839e-06L -1 3.01179L 1 3.01179Z"/>
<path id="path40_fill" d="M 27.1599 -4.37678e-06L 0 -4.37678e-06L 0 3.01179L 27.1599 3.01179L 27.1599 -4.37678e-06Z"/>
<path id="path41_stroke_2x" d="M 0 -4.37678e-06L 0 -1L -1 -1L -1 -4.37678e-06L 0 -4.37678e-06ZM 27.1599 -4.37678e-06L 28.1599 -4.37678e-06L 28.1599 -1L 27.1599 -1L 27.1599 -4.37678e-06ZM 27.1599 3.01179L 27.1599 4.01179L 28.1599 4.01179L 28.1599 3.01179L 27.1599 3.01179ZM 0 3.01179L -1 3.01179L -1 4.01179L 0 4.01179L 0 3.01179ZM 0 0.999996L 27.1599 0.999996L 27.1599 -1L 0 -1L 0 0.999996ZM 26.1599 -4.37678e-06L 26.1599 3.01179L 28.1599 3.01179L 28.1599 -4.37678e-06L 26.1599 -4.37678e-06ZM 27.1599 2.01179L 0 2.01179L 0 4.01179L 27.1599 4.01179L 27.1599 2.01179ZM 1 3.01179L 1 -4.37678e-06L -1 -4.37678e-06L -1 3.01179L 1 3.01179Z"/>
<path id="path42_fill" d="M 36.8857 0L 0 0L 0 3.01179L 36.8857 3.01179L 36.8857 0Z"/>
<path id="path43_stroke_2x" d="M 0 0L 0 -1L -1 -1L -1 0L 0 0ZM 36.8857 0L 37.8857 0L 37.8857 -1L 36.8857 -1L 36.8857 0ZM 36.8857 3.01179L 36.8857 4.01179L 37.8857 4.01179L 37.8857 3.01179L 36.8857 3.01179ZM 0 3.01179L -1 3.01179L -1 4.01179L 0 4.01179L 0 3.01179ZM 0 1L 36.8857 1L 36.8857 -1L 0 -1L 0 1ZM 35.8857 0L 35.8857 3.01179L 37.8857 3.01179L 37.8857 0L 35.8857 0ZM 36.8857 2.01179L 0 2.01179L 0 4.01179L 36.8857 4.01179L 36.8857 2.01179ZM 1 3.01179L 1 0L -1 0L -1 3.01179L 1 3.01179Z"/>
<path id="path44_fill" d="M 36.8857 -2.18839e-06L 0 -2.18839e-06L 0 3.01179L 36.8857 3.01179L 36.8857 -2.18839e-06Z"/>
<path id="path45_stroke_2x" d="M 0 -2.18839e-06L 0 -1L -1 -1L -1 -2.18839e-06L 0 -2.18839e-06ZM 36.8857 -2.18839e-06L 37.8857 -2.18839e-06L 37.8857 -1L 36.8857 -1L 36.8857 -2.18839e-06ZM 36.8857 3.01179L 36.8857 4.01179L 37.8857 4.01179L 37.8857 3.01179L 36.8857 3.01179ZM 0 3.01179L -1 3.01179L -1 4.01179L 0 4.01179L 0 3.01179ZM 0 0.999998L 36.8857 0.999998L 36.8857 -1L 0 -1L 0 0.999998ZM 35.8857 -2.18839e-06L 35.8857 3.01179L 37.8857 3.01179L 37.8857 -2.18839e-06L 35.8857 -2.18839e-06ZM 36.8857 2.01179L 0 2.01179L 0 4.01179L 36.8857 4.01179L 36.8857 2.01179ZM 1 3.01179L 1 -2.18839e-06L -1 -2.18839e-06L -1 3.01179L 1 3.01179Z"/>
<path id="path46_fill" d="M 36.8857 0L 0 0L 0 3.01179L 36.8857 3.01179L 36.8857 0Z"/>
<path id="path47_stroke_2x" d="M 0 0L 0 -1L -1 -1L -1 0L 0 0ZM 36.8857 0L 37.8857 0L 37.8857 -1L 36.8857 -1L 36.8857 0ZM 36.8857 3.01179L 36.8857 4.01179L 37.8857 4.01179L 37.8857 3.01179L 36.8857 3.01179ZM 0 3.01179L -1 3.01179L -1 4.01179L 0 4.01179L 0 3.01179ZM 0 1L 36.8857 1L 36.8857 -1L 0 -1L 0 1ZM 35.8857 0L 35.8857 3.01179L 37.8857 3.01179L 37.8857 0L 35.8857 0ZM 36.8857 2.01179L 0 2.01179L 0 4.01179L 36.8857 4.01179L 36.8857 2.01179ZM 1 3.01179L 1 0L -1 0L -1 3.01179L 1 3.01179Z"/>
<path id="path48_fill" d="M 36.8857 0L 0 0L 0 3.01179L 36.8857 3.01179L 36.8857 0Z"/>
<path id="path49_stroke_2x" d="M 0 0L 0 -1L -1 -1L -1 0L 0 0ZM 36.8857 0L 37.8857 0L 37.8857 -1L 36.8857 -1L 36.8857 0ZM 36.8857 3.01179L 36.8857 4.01179L 37.8857 4.01179L 37.8857 3.01179L 36.8857 3.01179ZM 0 3.01179L -1 3.01179L -1 4.01179L 0 4.01179L 0 3.01179ZM 0 1L 36.8857 1L 36.8857 -1L 0 -1L 0 1ZM 35.8857 0L 35.8857 3.01179L 37.8857 3.01179L 37.8857 0L 35.8857 0ZM 36.8857 2.01179L 0 2.01179L 0 4.01179L 36.8857 4.01179L 36.8857 2.01179ZM 1 3.01179L 1 0L -1 0L -1 3.01179L 1 3.01179Z"/>
<path id="path50_fill" d="M 36.8857 -4.37678e-06L 0 -4.37678e-06L 0 3.01179L 36.8857 3.01179L 36.8857 -4.37678e-06Z"/>
<path id="path51_stroke_2x" d="M 0 -4.37678e-06L 0 -1L -1 -1L -1 -4.37678e-06L 0 -4.37678e-06ZM 36.8857 -4.37678e-06L 37.8857 -4.37678e-06L 37.8857 -1L 36.8857 -1L 36.8857 -4.37678e-06ZM 36.8857 3.01179L 36.8857 4.01179L 37.8857 4.01179L 37.8857 3.01179L 36.8857 3.01179ZM 0 3.01179L -1 3.01179L -1 4.01179L 0 4.01179L 0 3.01179ZM 0 0.999996L 36.8857 0.999996L 36.8857 -1L 0 -1L 0 0.999996ZM 35.8857 -4.37678e-06L 35.8857 3.01179L 37.8857 3.01179L 37.8857 -4.37678e-06L 35.8857 -4.37678e-06ZM 36.8857 2.01179L 0 2.01179L 0 4.01179L 36.8857 4.01179L 36.8857 2.01179ZM 1 3.01179L 1 -4.37678e-06L -1 -4.37678e-06L -1 3.01179L 1 3.01179Z"/>
<path id="path52_fill" d="M 21.6127 2.18839e-06L 0 2.18839e-06L 0 3.01179L 21.6127 3.01179L 21.6127 2.18839e-06Z"/>
<path id="path53_stroke_2x" d="M 0 2.18839e-06L 0 -0.999998L -1 -0.999998L -1 2.18839e-06L 0 2.18839e-06ZM 21.6127 2.18839e-06L 22.6127 2.18839e-06L 22.6127 -0.999998L 21.6127 -0.999998L 21.6127 2.18839e-06ZM 21.6127 3.01179L 21.6127 4.01179L 22.6127 4.01179L 22.6127 3.01179L 21.6127 3.01179ZM 0 3.01179L -1 3.01179L -1 4.01179L 0 4.01179L 0 3.01179ZM 0 1L 21.6127 1L 21.6127 -0.999998L 0 -0.999998L 0 1ZM 20.6127 2.18839e-06L 20.6127 3.01179L 22.6127 3.01179L 22.6127 2.18839e-06L 20.6127 2.18839e-06ZM 21.6127 2.01179L 0 2.01179L 0 4.01179L 21.6127 4.01179L 21.6127 2.01179ZM 1 3.01179L 1 2.18839e-06L -1 2.18839e-06L -1 3.01179L 1 3.01179Z"/>
<path id="path54_fill" d="M 5.97951 14.6287L -5.49639e-07 8.10314L 2.23331 6.02358L 6.05155 10.1827L 15.7773 -2.73549e-07L 17.9385 2.00786L 5.97951 14.6287Z"/>
<path id="path55_stroke_2x" d="M 5.97951 14.6287L 5.24223 15.3043L 5.96725 16.0955L 6.70539 15.3165L 5.97951 14.6287ZM -5.49639e-07 8.10314L -0.681468 7.3713L -1.40748 8.04733L -0.73728 8.77873L -5.49639e-07 8.10314ZM 2.23331 6.02358L 2.96996 5.3473L 2.28889 4.60542L 1.55184 5.29173L 2.23331 6.02358ZM 6.05155 10.1827L 5.3149 10.859L 6.0371 11.6457L 6.7747 10.8734L 6.05155 10.1827ZM 15.7773 -2.73549e-07L 16.4579 -0.73263L 15.7353 -1.40391L 15.0541 -0.690693L 15.7773 -2.73549e-07ZM 17.9385 2.00786L 18.6644 2.69568L 19.3591 1.9626L 18.6192 1.27523L 17.9385 2.00786ZM 6.71679 13.9531L 0.737279 7.42756L -0.73728 8.77873L 5.24223 15.3043L 6.71679 13.9531ZM 0.681467 8.83499L 2.91478 6.75542L 1.55184 5.29173L -0.681468 7.3713L 0.681467 8.83499ZM 1.49666 6.69985L 5.3149 10.859L 6.78821 9.50644L 2.96996 5.3473L 1.49666 6.69985ZM 6.7747 10.8734L 16.5004 0.690693L 15.0541 -0.690693L 5.32841 9.49202L 6.7747 10.8734ZM 15.0966 0.73263L 17.2579 2.74049L 18.6192 1.27523L 16.4579 -0.73263L 15.0966 0.73263ZM 17.2127 1.32004L 5.25363 13.9409L 6.70539 15.3165L 18.6644 2.69568L 17.2127 1.32004Z"/>
</defs>
</svg>
