<svg width="425" height="473" viewBox="0 0 425 473" version="1.1" xmlns="http://www.w3.org/2000/svg" xmlns:xlink="http://www.w3.org/1999/xlink">
<title>Group 6</title>
<desc>Created using Figma</desc>
<g id="Canvas" transform="translate(-6475 -133)">
<g id="Group 6">
<g id="Untitled-4" filter="url(#filter0_d)">
<g id="Group">
<g id="Group">
<g id="Group">
<g id="Group">
<g id="Vector">
<mask id="mask0_outline_ins">
<use xlink:href="#path0_fill" fill="white" transform="translate(6583.42 284.355)"/>
</mask>
<g mask="url(#mask0_outline_ins)">
<use xlink:href="#path1_stroke_2x" transform="translate(6583.42 284.355)" fill="#CC3142" fill-opacity="0.83"/>
</g>
</g>
</g>
</g>
<g id="Group">
<g id="Group">
<g id="Vector">
<mask id="mask1_outline_ins">
<use xlink:href="#path2_fill" fill="white" transform="translate(6582.12 283)"/>
</mask>
<g mask="url(#mask1_outline_ins)">
<use xlink:href="#path3_stroke_2x" transform="translate(6582.12 283)" fill="#CC3142" fill-opacity="0.83"/>
</g>
</g>
</g>
</g>
<clipPath id="clip-0" clip-rule="evenodd">
<path d="M 6777.72 284.419L 6812.35 284.419L 6812.35 445.645L 6777.72 445.645L 6777.72 284.419Z" fill="#FFFFFF"/>
</clipPath>
<g id="Group" clip-path="url(#clip-0)">
</g>
<g id="Group">
<g id="Group">
<g id="Vector">
<mask id="mask2_outline_ins">
<use xlink:href="#path4_fill" fill="white" transform="translate(6696.22 302.484)"/>
</mask>
<g mask="url(#mask2_outline_ins)">
<use xlink:href="#path5_stroke_2x" transform="translate(6696.22 302.484)" fill="#CC3142" fill-opacity="0.83"/>
</g>
</g>
</g>
</g>
<g id="Group">
<g id="Group">
<g id="Vector">
<mask id="mask3_outline_ins">
<use xlink:href="#path6_fill" fill="white" transform="translate(6703.67 311.387)"/>
</mask>
<g mask="url(#mask3_outline_ins)">
<use xlink:href="#path7_stroke_2x" transform="translate(6703.67 311.387)" fill="#CC3142" fill-opacity="0.83"/>
</g>
</g>
</g>
</g>
<g id="Group">
<g id="Group">
<g id="Vector">
<mask id="mask4_outline_ins">
<use xlink:href="#path8_fill" fill="white" transform="translate(6733.18 315.839)"/>
</mask>
<g mask="url(#mask4_outline_ins)">
<use xlink:href="#path9_stroke_2x" transform="translate(6733.18 315.839)" fill="#CC3142" fill-opacity="0.83"/>
</g>
</g>
</g>
</g>
<g id="Group">
<g id="Group">
<g id="Vector">
<mask id="mask5_outline_ins">
<use xlink:href="#path10_fill" fill="white" transform="translate(6696.28 397)"/>
</mask>
<g mask="url(#mask5_outline_ins)">
<use xlink:href="#path11_stroke_2x" transform="translate(6696.28 397)" fill="#CC3142" fill-opacity="0.83"/>
</g>
</g>
</g>
</g>
<g id="Group">
<g id="Group">
<g id="Vector">
<mask id="mask6_outline_ins">
<use xlink:href="#path12_fill" fill="white" transform="translate(6601.22 302.548)"/>
</mask>
<g mask="url(#mask6_outline_ins)">
<use xlink:href="#path13_stroke_2x" transform="translate(6601.22 302.548)" fill="#CC3142" fill-opacity="0.83"/>
</g>
</g>
</g>
</g>
<g id="Group">
<g id="Group">
<g id="Vector">
<mask id="mask7_outline_ins">
<use xlink:href="#path14_fill" fill="white" transform="translate(6569 444)"/>
</mask>
<g mask="url(#mask7_outline_ins)">
<use xlink:href="#path15_stroke_2x" transform="translate(6569 444)" fill="#CC3142" fill-opacity="0.83"/>
</g>
</g>
</g>
</g>
<g id="Group">
<g id="Group">
<g id="Vector">
<mask id="mask8_outline_ins">
<use xlink:href="#path16_fill" fill="white" transform="translate(6610.34 314.097)"/>
</mask>
<g mask="url(#mask8_outline_ins)">
<use xlink:href="#path17_stroke_2x" transform="translate(6610.34 314.097)" fill="#CC3142" fill-opacity="0.83"/>
</g>
</g>
</g>
</g>
<g id="Group">
<g id="Group">
<g id="Vector">
<mask id="mask9_outline_ins">
<use xlink:href="#path18_fill" fill="white" transform="translate(6609.04 358.161)"/>
</mask>
<g mask="url(#mask9_outline_ins)">
<use xlink:href="#path19_stroke_2x" transform="translate(6609.04 358.161)" fill="#CC3142" fill-opacity="0.83"/>
</g>
</g>
</g>
</g>
<clipPath id="clip-1" clip-rule="evenodd">
<path d="M 6614.77 363.129L 6668.56 363.129L 6668.56 365.839L 6614.77 365.839L 6614.77 363.129Z" fill="#FFFFFF"/>
</clipPath>
<g id="Group" clip-path="url(#clip-1)">
</g>
<g id="Group">
<g id="Group">
<g id="Vector">
<mask id="mask10_outline_ins">
<use xlink:href="#path20_fill" fill="white" transform="translate(6609.04 375.065)"/>
</mask>
<g mask="url(#mask10_outline_ins)">
<use xlink:href="#path21_stroke_2x" transform="translate(6609.04 375.065)" fill="#CC3142" fill-opacity="0.83"/>
</g>
</g>
</g>
</g>
<clipPath id="clip-2" clip-rule="evenodd">
<path d="M 6614.77 380.032L 6668.56 380.032L 6668.56 382.742L 6614.77 382.742L 6614.77 380.032Z" fill="#FFFFFF"/>
</clipPath>
<g id="Group" clip-path="url(#clip-2)">
</g>
<g id="Group">
<g id="Group">
<g id="Vector">
<mask id="mask11_outline_ins">
<use xlink:href="#path22_fill" fill="white" transform="translate(6609.04 391.968)"/>
</mask>
<g mask="url(#mask11_outline_ins)">
<use xlink:href="#path23_stroke_2x" transform="translate(6609.04 391.968)" fill="#CC3142" fill-opacity="0.83"/>
</g>
</g>
</g>
</g>
<g id="Group">
<g id="Group">
<g id="Vector">
<mask id="mask12_outline_ins">
<use xlink:href="#path24_fill" fill="white" transform="translate(6609.04 408.871)"/>
</mask>
<g mask="url(#mask12_outline_ins)">
<use xlink:href="#path25_stroke_2x" transform="translate(6609.04 408.871)" fill="#CC3142" fill-opacity="0.83"/>
</g>
</g>
</g>
</g>
<clipPath id="clip-3" clip-rule="evenodd">
<path d="M 6614.77 413.774L 6668.56 413.774L 6668.56 416.484L 6614.77 416.484L 6614.77 413.774Z" fill="#FFFFFF"/>
</clipPath>
<g id="Group" clip-path="url(#clip-3)">
</g>
</g>
</g>
</g>
<g id="Group">
<g id="Vector">
<use xlink:href="#path26_fill" transform="translate(6490.91 133)" fill="#D90F25" fill-opacity="0.25"/>
</g>
</g>
<g id="Vector">
<use xlink:href="#path27_stroke" transform="translate(6490 249.79)" fill="#D90F25" fill-opacity="0.3"/>
</g>
<g id="Ellipse" filter="url(#filter1_d)">
<use xlink:href="#path28_fill" transform="translate(6485 242)" fill="#CC3142"/>
</g>
<g id="Ellipse" filter="url(#filter2_d)">
<use xlink:href="#path28_fill" transform="translate(6877 241)" fill="#CC3142"/>
</g>
<g id="Vector">
<use xlink:href="#path29_stroke" transform="translate(6691.29 364.29)" fill="#D90F25" fill-opacity="0.3"/>
</g>
<g id="Ellipse" filter="url(#filter3_d)">
<use xlink:href="#path28_fill" transform="translate(6684 583)" fill="#CC3142"/>
</g>
</g>
</g>
<defs>
<filter id="filter0_d" filterUnits="userSpaceOnUse" x="6549" y="263" width="284" height="205" color-interpolation-filters="sRGB">
<feFlood flood-opacity="0" result="BackgroundImageFix"/>
<feColorMatrix in="SourceAlpha" type="matrix" values="0 0 0 0 0 0 0 0 0 0 0 0 0 0 0 0 0 0 255 0"/>
<feOffset dx="0" dy="0"/>
<feGaussianBlur stdDeviation="10"/>
<feColorMatrix type="matrix" values="0 0 0 0 0.6 0 0 0 0 0.0156863 0 0 0 0 0.0784314 0 0 0 1 0"/>
<feBlend mode="normal" in2="BackgroundImageFix" result="effect1_dropShadow"/>
<feBlend mode="normal" in="SourceGraphic" in2="effect1_dropShadow" result="shape"/>
</filter>
<filter id="filter1_d" filterUnits="userSpaceOnUse" x="6475" y="232" width="33" height="33" color-interpolation-filters="sRGB">
<feFlood flood-opacity="0" result="BackgroundImageFix"/>
<feColorMatrix in="SourceAlpha" type="matrix" values="0 0 0 0 0 0 0 0 0 0 0 0 0 0 0 0 0 0 255 0"/>
<feOffset dx="0" dy="0"/>
<feGaussianBlur stdDeviation="5"/>
<feColorMatrix type="matrix" values="0 0 0 0 0.6 0 0 0 0 0.0156863 0 0 0 0 0.0784314 0 0 0 0.64 0"/>
<feBlend mode="normal" in2="BackgroundImageFix" result="effect1_dropShadow"/>
<feBlend mode="normal" in="SourceGraphic" in2="effect1_dropShadow" result="shape"/>
</filter>
<filter id="filter2_d" filterUnits="userSpaceOnUse" x="6867" y="231" width="33" height="33" color-interpolation-filters="sRGB">
<feFlood flood-opacity="0" result="BackgroundImageFix"/>
<feColorMatrix in="SourceAlpha" type="matrix" values="0 0 0 0 0 0 0 0 0 0 0 0 0 0 0 0 0 0 255 0"/>
<feOffset dx="0" dy="0"/>
<feGaussianBlur stdDeviation="5"/>
<feColorMatrix type="matrix" values="0 0 0 0 0.6 0 0 0 0 0.0156863 0 0 0 0 0.0784314 0 0 0 0.64 0"/>
<feBlend mode="normal" in2="BackgroundImageFix" result="effect1_dropShadow"/>
<feBlend mode="normal" in="SourceGraphic" in2="effect1_dropShadow" result="shape"/>
</filter>
<filter id="filter3_d" filterUnits="userSpaceOnUse" x="6674" y="573" width="33" height="33" color-interpolation-filters="sRGB">
<feFlood flood-opacity="0" result="BackgroundImageFix"/>
<feColorMatrix in="SourceAlpha" type="matrix" values="0 0 0 0 0 0 0 0 0 0 0 0 0 0 0 0 0 0 255 0"/>
<feOffset dx="0" dy="0"/>
<feGaussianBlur stdDeviation="5"/>
<feColorMatrix type="matrix" values="0 0 0 0 0.6 0 0 0 0 0.0156863 0 0 0 0 0.0784314 0 0 0 0.64 0"/>
<feBlend mode="normal" in2="BackgroundImageFix" result="effect1_dropShadow"/>
<feBlend mode="normal" in="SourceGraphic" in2="effect1_dropShadow" result="shape"/>
</filter>
<path id="path0_fill" d="M 206.013 161.29L -2.35011e-07 161.29L -2.35011e-07 29.1613C -2.35011e-07 13.0323 12.5062 -6.15274e-08 27.8462 -6.15274e-08L 178.167 -6.15274e-08C 193.568 -6.15274e-08 206.013 13.0968 206.013 29.1613L 206.013 161.29Z"/>
<path id="path1_stroke_2x" d="M 206.013 161.29L 206.013 161.79L 206.513 161.79L 206.513 161.29L 206.013 161.29ZM -2.35011e-07 161.29L -0.5 161.29L -0.5 161.79L -2.35011e-07 161.79L -2.35011e-07 161.29ZM 206.013 160.79L -2.35011e-07 160.79L -2.35011e-07 161.79L 206.013 161.79L 206.013 160.79ZM 0.5 161.29L 0.5 29.1613L -0.5 29.1613L -0.5 161.29L 0.5 161.29ZM 0.5 29.1613C 0.5 13.2871 12.8031 0.5 27.8462 0.5L 27.8462 -0.5C 12.2092 -0.5 -0.5 12.7774 -0.5 29.1613L 0.5 29.1613ZM 27.8462 0.5L 178.167 0.5L 178.167 -0.5L 27.8462 -0.5L 27.8462 0.5ZM 178.167 0.5C 193.27 0.5 205.513 13.3502 205.513 29.1613L 206.513 29.1613C 206.513 12.8434 193.867 -0.5 178.167 -0.5L 178.167 0.5ZM 205.513 29.1613L 205.513 161.29L 206.513 161.29L 206.513 29.1613L 205.513 29.1613Z"/>
<path id="path2_fill" d="M 208.6 164L -4.70022e-07 164L -4.70022e-07 30.5161C -4.70022e-07 13.6774 13.0606 0 29.14 0L 179.46 0C 195.54 0 208.6 13.6774 208.6 30.5161L 208.6 164ZM 2.58748 161.226L 206.013 161.226L 206.013 30.5161C 206.013 15.1613 194.123 2.70968 179.46 2.70968L 29.14 2.70968C 14.4776 2.70968 2.58748 15.1613 2.58748 30.5161L 2.58748 161.226Z"/>
<path id="path3_stroke_2x" d="M -4.70022e-07 164L -0.5 164L -0.5 164.5L -4.70022e-07 164.5L -4.70022e-07 164ZM 206.013 161.226L 206.013 161.726L 206.513 161.726L 206.513 161.226L 206.013 161.226ZM 208.6 163.5L -4.70022e-07 163.5L -4.70022e-07 164.5L 208.6 164.5L 208.6 163.5ZM 0.5 164L 0.5 30.5161L -0.5 30.5161L -0.5 164L 0.5 164ZM 0.5 30.5161C 0.5 13.9316 13.3583 0.5 29.14 0.5L 29.14 -0.5C 12.763 -0.5 -0.5 13.4233 -0.5 30.5161L 0.5 30.5161ZM 29.14 0.5L 179.46 0.5L 179.46 -0.5L 29.14 -0.5L 29.14 0.5ZM 179.46 0.5C 195.242 0.5 208.1 13.9316 208.1 30.5161L 209.1 30.5161C 209.1 13.4233 195.837 -0.5 179.46 -0.5L 179.46 0.5ZM 208.1 30.5161L 208.1 164L 209.1 164L 209.1 30.5161L 208.1 30.5161ZM 2.58748 161.726L 206.013 161.726L 206.013 160.726L 2.58748 160.726L 2.58748 161.726ZM 206.513 161.226L 206.513 30.5161L 205.513 30.5161L 205.513 161.226L 206.513 161.226ZM 206.513 30.5161C 206.513 14.9071 194.42 2.20968 179.46 2.20968L 179.46 3.20968C 193.825 3.20968 205.513 15.4154 205.513 30.5161L 206.513 30.5161ZM 179.46 2.20968L 29.14 2.20968L 29.14 3.20968L 179.46 3.20968L 179.46 2.20968ZM 29.14 2.20968C 14.1799 2.20968 2.08748 14.9071 2.08748 30.5161L 3.08748 30.5161C 3.08748 15.4154 14.7752 3.20968 29.14 3.20968L 29.14 2.20968ZM 2.08748 30.5161L 2.08748 161.226L 3.08748 161.226L 3.08748 30.5161L 2.08748 30.5161Z"/>
<path id="path4_fill" d="M 66.2888 82.3871L 10.2267 82.3871C 4.62051 82.3871 -1.75097e-14 77.6129 -1.75097e-14 71.6774L -1.75097e-14 10.7097C -1.75097e-14 4.83871 4.5589 4.92219e-07 10.2267 4.92219e-07L 66.2888 4.92219e-07C 71.895 4.92219e-07 76.5155 4.77419 76.5155 10.7097L 76.5155 71.6774C 76.5155 77.5484 71.895 82.3871 66.2888 82.3871ZM 10.2267 2.77419C 6.03746 2.77419 2.58748 6.32258 2.58748 10.7742L 2.58748 71.7419C 2.58748 76.129 5.97585 79.7419 10.2267 79.7419L 66.2888 79.7419C 70.4781 79.7419 73.928 76.1936 73.928 71.7419L 73.928 10.7097C 73.928 6.32258 70.5397 2.70968 66.2888 2.70968L 10.2267 2.70968L 10.2267 2.77419Z"/>
<path id="path5_stroke_2x" d="M 76.5155 71.6774L 77.0155 71.6774L 76.5155 71.6774ZM 10.2267 2.77419L 10.2267 3.27419L 10.7267 3.27419L 10.7267 2.77419L 10.2267 2.77419ZM 10.2267 2.70968L 10.2267 2.20968L 9.72672 2.20968L 9.72672 2.70968L 10.2267 2.70968ZM 66.2888 81.8871L 10.2267 81.8871L 10.2267 82.8871L 66.2888 82.8871L 66.2888 81.8871ZM 10.2267 81.8871C 4.91623 81.8871 0.5 77.3568 0.5 71.6774L -0.5 71.6774C -0.5 77.8691 4.32479 82.8871 10.2267 82.8871L 10.2267 81.8871ZM 0.5 71.6774L 0.5 10.7097L -0.5 10.7097L -0.5 71.6774L 0.5 71.6774ZM 0.5 10.7097C 0.5 5.09085 4.85844 0.5 10.2267 0.5L 10.2267 -0.499999C 4.25936 -0.499999 -0.5 4.58656 -0.5 10.7097L 0.5 10.7097ZM 10.2267 0.5L 66.2888 0.5L 66.2888 -0.499999L 10.2267 -0.499999L 10.2267 0.5ZM 66.2888 0.5C 71.5993 0.5 76.0155 5.03034 76.0155 10.7097L 77.0155 10.7097C 77.0155 4.51804 72.1907 -0.499999 66.2888 -0.499999L 66.2888 0.5ZM 76.0155 10.7097L 76.0155 71.6774L 77.0155 71.6774L 77.0155 10.7097L 76.0155 10.7097ZM 76.0155 71.6774C 76.0155 77.2943 71.5974 81.8871 66.2888 81.8871L 66.2888 82.8871C 72.1927 82.8871 77.0155 77.8025 77.0155 71.6774L 76.0155 71.6774ZM 10.2267 2.27419C 5.74239 2.27419 2.08748 6.06575 2.08748 10.7742L 3.08748 10.7742C 3.08748 6.57941 6.33253 3.27419 10.2267 3.27419L 10.2267 2.27419ZM 2.08748 10.7742L 2.08748 71.7419L 3.08748 71.7419L 3.08748 10.7742L 2.08748 10.7742ZM 2.08748 71.7419C 2.08748 76.3805 5.67566 80.2419 10.2267 80.2419L 10.2267 79.2419C 6.27605 79.2419 3.08748 75.8776 3.08748 71.7419L 2.08748 71.7419ZM 10.2267 80.2419L 66.2888 80.2419L 66.2888 79.2419L 10.2267 79.2419L 10.2267 80.2419ZM 66.2888 80.2419C 70.7731 80.2419 74.428 76.4504 74.428 71.7419L 73.428 71.7419C 73.428 75.9367 70.183 79.2419 66.2888 79.2419L 66.2888 80.2419ZM 74.428 71.7419L 74.428 10.7097L 73.428 10.7097L 73.428 71.7419L 74.428 71.7419ZM 74.428 10.7097C 74.428 6.07112 70.8399 2.20968 66.2888 2.20968L 66.2888 3.20968C 70.2395 3.20968 73.428 6.57404 73.428 10.7097L 74.428 10.7097ZM 66.2888 2.20968L 10.2267 2.20968L 10.2267 3.20968L 66.2888 3.20968L 66.2888 2.20968ZM 9.72672 2.70968L 9.72672 2.77419L 10.7267 2.77419L 10.7267 2.70968L 9.72672 2.70968Z"/>
<path id="path6_fill" d="M 30.8034 64.5161C 13.8615 64.5161 3.76017e-06 50.0645 3.76017e-06 32.2581C 3.76017e-06 14.5161 13.7999 0 30.8034 0C 47.7452 0 61.6067 14.4516 61.6067 32.2581C 61.6067 50.0645 47.8068 64.5161 30.8034 64.5161ZM 30.8034 2.77419C 15.2785 2.77419 2.64908 16 2.64908 32.2581C 2.64908 48.5161 15.2785 61.7419 30.8034 61.7419C 46.3282 61.7419 58.9576 48.5161 58.9576 32.2581C 59.0192 16 46.3282 2.77419 30.8034 2.77419Z"/>
<path id="path7_stroke_2x" d="M 58.9576 32.2581L 58.4576 32.2562L 58.4576 32.2581L 58.9576 32.2581ZM 30.8034 64.0161C 14.1585 64.0161 0.500004 49.8097 0.500004 32.2581L -0.499996 32.2581C -0.499996 50.3193 13.5645 65.0161 30.8034 65.0161L 30.8034 64.0161ZM 0.500004 32.2581C 0.500004 14.7696 14.0982 0.5 30.8034 0.5L 30.8034 -0.5C 13.5016 -0.5 -0.499996 14.2626 -0.499996 32.2581L 0.500004 32.2581ZM 30.8034 0.5C 47.4482 0.5 61.1067 14.7064 61.1067 32.2581L 62.1067 32.2581C 62.1067 14.1968 48.0422 -0.5 30.8034 -0.5L 30.8034 0.5ZM 61.1067 32.2581C 61.1067 49.8104 47.5092 64.0161 30.8034 64.0161L 30.8034 65.0161C 48.1044 65.0161 62.1067 50.3187 62.1067 32.2581L 61.1067 32.2581ZM 30.8034 2.27419C 14.9808 2.27419 2.14908 15.7459 2.14908 32.2581L 3.14908 32.2581C 3.14908 16.2541 15.5761 3.27419 30.8034 3.27419L 30.8034 2.27419ZM 2.14908 32.2581C 2.14908 48.7703 14.9808 62.2419 30.8034 62.2419L 30.8034 61.2419C 15.5761 61.2419 3.14908 48.262 3.14908 32.2581L 2.14908 32.2581ZM 30.8034 62.2419C 46.6259 62.2419 59.4576 48.7703 59.4576 32.2581L 58.4576 32.2581C 58.4576 48.262 46.0306 61.2419 30.8034 61.2419L 30.8034 62.2419ZM 59.4576 32.26C 59.5202 15.7445 46.6242 2.27419 30.8034 2.27419L 30.8034 3.27419C 46.0323 3.27419 58.5182 16.2555 58.4576 32.2562L 59.4576 32.26Z"/>
<path id="path8_fill" d="M 28.0927 29.2258L 0 29.2258L 0 9.84438e-07L 2.58749 9.84438e-07L 2.58749 26.4516L 28.0927 26.4516L 28.0927 29.2258Z"/>
<path id="path9_stroke_2x" d="M 28.0927 29.2258L 28.0927 29.7258L 28.5927 29.7258L 28.5927 29.2258L 28.0927 29.2258ZM 0 29.2258L -0.5 29.2258L -0.5 29.7258L 0 29.7258L 0 29.2258ZM 0 9.84438e-07L 0 -0.499999L -0.5 -0.499999L -0.5 9.84438e-07L 0 9.84438e-07ZM 2.58749 9.84438e-07L 3.08749 9.84438e-07L 3.08749 -0.499999L 2.58749 -0.499999L 2.58749 9.84438e-07ZM 2.58749 26.4516L 2.08749 26.4516L 2.08749 26.9516L 2.58749 26.9516L 2.58749 26.4516ZM 28.0927 26.4516L 28.5927 26.4516L 28.5927 25.9516L 28.0927 25.9516L 28.0927 26.4516ZM 28.0927 28.7258L 0 28.7258L 0 29.7258L 28.0927 29.7258L 28.0927 28.7258ZM 0.5 29.2258L 0.5 9.84438e-07L -0.5 9.84438e-07L -0.5 29.2258L 0.5 29.2258ZM 0 0.500001L 2.58749 0.500001L 2.58749 -0.499999L 0 -0.499999L 0 0.500001ZM 2.08749 9.84438e-07L 2.08749 26.4516L 3.08749 26.4516L 3.08749 9.84438e-07L 2.08749 9.84438e-07ZM 2.58749 26.9516L 28.0927 26.9516L 28.0927 25.9516L 2.58749 25.9516L 2.58749 26.9516ZM 27.5927 26.4516L 27.5927 29.2258L 28.5927 29.2258L 28.5927 26.4516L 27.5927 26.4516Z"/>
<path id="path10_fill" d="M 76.4539 33.0323L 3.76017e-06 33.0323L 3.76017e-06 -1.96888e-06L 76.4539 -1.96888e-06L 76.4539 33.0323ZM 2.58748 30.3226L 73.8664 30.3226L 73.8664 2.77419L 2.58748 2.77419L 2.58748 30.3226Z"/>
<path id="path11_stroke_2x" d="M 76.4539 33.0323L 76.4539 33.5323L 76.9539 33.5323L 76.9539 33.0323L 76.4539 33.0323ZM 3.76017e-06 33.0323L -0.499996 33.0323L -0.499996 33.5323L 3.76017e-06 33.5323L 3.76017e-06 33.0323ZM 3.76017e-06 -1.96888e-06L 3.76017e-06 -0.500002L -0.499996 -0.500002L -0.499996 -1.96888e-06L 3.76017e-06 -1.96888e-06ZM 76.4539 -1.96888e-06L 76.9539 -1.96888e-06L 76.9539 -0.500002L 76.4539 -0.500002L 76.4539 -1.96888e-06ZM 2.58748 30.3226L 2.08748 30.3226L 2.08748 30.8226L 2.58748 30.8226L 2.58748 30.3226ZM 73.8664 30.3226L 73.8664 30.8226L 74.3664 30.8226L 74.3664 30.3226L 73.8664 30.3226ZM 73.8664 2.77419L 74.3664 2.77419L 74.3664 2.27419L 73.8664 2.27419L 73.8664 2.77419ZM 2.58748 2.77419L 2.58748 2.27419L 2.08748 2.27419L 2.08748 2.77419L 2.58748 2.77419ZM 76.4539 32.5323L 3.76017e-06 32.5323L 3.76017e-06 33.5323L 76.4539 33.5323L 76.4539 32.5323ZM 0.500004 33.0323L 0.500004 -1.96888e-06L -0.499996 -1.96888e-06L -0.499996 33.0323L 0.500004 33.0323ZM 3.76017e-06 0.499998L 76.4539 0.499998L 76.4539 -0.500002L 3.76017e-06 -0.500002L 3.76017e-06 0.499998ZM 75.9539 -1.96888e-06L 75.9539 33.0323L 76.9539 33.0323L 76.9539 -1.96888e-06L 75.9539 -1.96888e-06ZM 2.58748 30.8226L 73.8664 30.8226L 73.8664 29.8226L 2.58748 29.8226L 2.58748 30.8226ZM 74.3664 30.3226L 74.3664 2.77419L 73.3664 2.77419L 73.3664 30.3226L 74.3664 30.3226ZM 73.8664 2.27419L 2.58748 2.27419L 2.58748 3.27419L 73.8664 3.27419L 73.8664 2.27419ZM 2.08748 2.77419L 2.08748 30.3226L 3.08748 30.3226L 3.08748 2.77419L 2.08748 2.77419Z"/>
<path id="path12_fill" d="M 81.6905 127.484L -4.70022e-07 127.484L -4.70022e-07 -4.92219e-07L 81.6289 -4.92219e-07L 81.6289 127.484L 81.6905 127.484ZM 2.64909 124.774L 79.103 124.774L 79.103 2.70968L 2.64909 2.70968L 2.64909 124.774Z"/>
<path id="path13_stroke_2x" d="M -4.70022e-07 127.484L -0.5 127.484L -0.5 127.984L -4.70022e-07 127.984L -4.70022e-07 127.484ZM -4.70022e-07 -4.92219e-07L -4.70022e-07 -0.5L -0.5 -0.5L -0.5 -4.92219e-07L -4.70022e-07 -4.92219e-07ZM 81.6289 -4.92219e-07L 82.1289 -4.92219e-07L 82.1289 -0.5L 81.6289 -0.5L 81.6289 -4.92219e-07ZM 81.6289 127.484L 81.1289 127.484L 81.1289 127.984L 81.6289 127.984L 81.6289 127.484ZM 2.64909 124.774L 2.14909 124.774L 2.14909 125.274L 2.64909 125.274L 2.64909 124.774ZM 79.103 124.774L 79.103 125.274L 79.603 125.274L 79.603 124.774L 79.103 124.774ZM 79.103 2.70968L 79.603 2.70968L 79.603 2.20968L 79.103 2.20968L 79.103 2.70968ZM 2.64909 2.70968L 2.64909 2.20968L 2.14909 2.20968L 2.14909 2.70968L 2.64909 2.70968ZM 81.6905 126.984L -4.70022e-07 126.984L -4.70022e-07 127.984L 81.6905 127.984L 81.6905 126.984ZM 0.5 127.484L 0.5 -4.92219e-07L -0.5 -4.92219e-07L -0.5 127.484L 0.5 127.484ZM -4.70022e-07 0.499999L 81.6289 0.499999L 81.6289 -0.5L -4.70022e-07 -0.5L -4.70022e-07 0.499999ZM 81.1289 -4.92219e-07L 81.1289 127.484L 82.1289 127.484L 82.1289 -4.92219e-07L 81.1289 -4.92219e-07ZM 81.6289 127.984L 81.6905 127.984L 81.6905 126.984L 81.6289 126.984L 81.6289 127.984ZM 2.64909 125.274L 79.103 125.274L 79.103 124.274L 2.64909 124.274L 2.64909 125.274ZM 79.603 124.774L 79.603 2.70968L 78.603 2.70968L 78.603 124.774L 79.603 124.774ZM 79.103 2.20968L 2.64909 2.20968L 2.64909 3.20968L 79.103 3.20968L 79.103 2.20968ZM 2.14909 2.70968L 2.14909 124.774L 3.14909 124.774L 3.14909 2.70968L 2.14909 2.70968Z"/>
<path id="path14_fill" d="M 234 -4.35965e-06L 0 -4.35965e-06L 0 3L 234 3L 234 -4.35965e-06Z"/>
<path id="path15_stroke_2x" d="M 0 -4.35965e-06L 0 -0.500004L -0.5 -0.500004L -0.5 -4.35965e-06L 0 -4.35965e-06ZM 234 -4.35965e-06L 234.5 -4.35965e-06L 234.5 -0.500004L 234 -0.500004L 234 -4.35965e-06ZM 234 3L 234 3.5L 234.5 3.5L 234.5 3L 234 3ZM 0 3L -0.5 3L -0.5 3.5L 0 3.5L 0 3ZM 0 0.499996L 234 0.499996L 234 -0.500004L 0 -0.500004L 0 0.499996ZM 233.5 -4.35965e-06L 233.5 3L 234.5 3L 234.5 -4.35965e-06L 233.5 -4.35965e-06ZM 234 2.5L 0 2.5L 0 3.5L 234 3.5L 234 2.5ZM 0.5 3L 0.5 -4.35965e-06L -0.5 -4.35965e-06L -0.5 3L 0.5 3Z"/>
<path id="path16_fill" d="M 35.1774 33.4839L 23.9034 6.45161L 15.6481 24.129L 9.241 10.129L -9.40044e-07 10.129L -9.40044e-07 7.41936L 10.9044 7.41936L 15.6481 17.9355L 24.0266 4.92219e-07L 35.1774 26.7097L 42.6318 8.90323L 63.2701 8.90323L 63.2701 11.6774L 44.3568 11.6774L 35.1774 33.4839Z"/>
<path id="path17_stroke_2x" d="M 35.1774 33.4839L 34.716 33.6763L 35.1753 34.7777L 35.6383 33.6779L 35.1774 33.4839ZM 23.9034 6.45161L 24.3649 6.25915L 23.9292 5.21461L 23.4504 6.24005L 23.9034 6.45161ZM 15.6481 24.129L 15.1935 24.3371L 15.6435 25.3205L 16.1011 24.3406L 15.6481 24.129ZM 9.241 10.129L 9.69565 9.92096L 9.56205 9.62903L 9.241 9.62903L 9.241 10.129ZM -9.40044e-07 10.129L -0.500001 10.129L -0.500001 10.629L -9.40044e-07 10.629L -9.40044e-07 10.129ZM -9.40044e-07 7.41936L -9.40044e-07 6.91936L -0.500001 6.91936L -0.500001 7.41936L -9.40044e-07 7.41936ZM 10.9044 7.41936L 11.3602 7.21376L 11.2274 6.91936L 10.9044 6.91936L 10.9044 7.41936ZM 15.6481 17.9355L 15.1923 18.1411L 15.6402 19.1338L 16.1011 18.1471L 15.6481 17.9355ZM 24.0266 4.92219e-07L 24.488 -0.192628L 24.0523 -1.23633L 23.5736 -0.211621L 24.0266 4.92219e-07ZM 35.1774 26.7097L 34.716 26.9023L 35.1768 28.006L 35.6386 26.9028L 35.1774 26.7097ZM 42.6318 8.90323L 42.6318 8.40323L 42.2991 8.40323L 42.1706 8.71014L 42.6318 8.90323ZM 63.2701 8.90323L 63.7701 8.90323L 63.7701 8.40323L 63.2701 8.40323L 63.2701 8.90323ZM 63.2701 11.6774L 63.2701 12.1774L 63.7701 12.1774L 63.7701 11.6774L 63.2701 11.6774ZM 44.3568 11.6774L 44.3568 11.1774L 44.0248 11.1774L 43.896 11.4834L 44.3568 11.6774ZM 35.6389 33.2914L 24.3649 6.25915L 23.4419 6.64407L 34.716 33.6763L 35.6389 33.2914ZM 23.4504 6.24005L 15.1951 23.9175L 16.1011 24.3406L 24.3564 6.66318L 23.4504 6.24005ZM 16.1028 23.921L 9.69565 9.92096L 8.78636 10.3371L 15.1935 24.3371L 16.1028 23.921ZM 9.241 9.62903L -9.40044e-07 9.62903L -9.40044e-07 10.629L 9.241 10.629L 9.241 9.62903ZM 0.499999 10.129L 0.499999 7.41936L -0.500001 7.41936L -0.500001 10.129L 0.499999 10.129ZM -9.40044e-07 7.91936L 10.9044 7.91936L 10.9044 6.91936L -9.40044e-07 6.91936L -9.40044e-07 7.91936ZM 10.4486 7.62495L 15.1923 18.1411L 16.1039 17.7299L 11.3602 7.21376L 10.4486 7.62495ZM 16.1011 18.1471L 24.4796 0.211622L 23.5736 -0.211621L 15.1951 17.7239L 16.1011 18.1471ZM 23.5652 0.192629L 34.716 26.9023L 35.6388 26.517L 24.488 -0.192628L 23.5652 0.192629ZM 35.6386 26.9028L 43.0931 9.09631L 42.1706 8.71014L 34.7162 26.5166L 35.6386 26.9028ZM 42.6318 9.40323L 63.2701 9.40323L 63.2701 8.40323L 42.6318 8.40323L 42.6318 9.40323ZM 62.7701 8.90323L 62.7701 11.6774L 63.7701 11.6774L 63.7701 8.90323L 62.7701 8.90323ZM 63.2701 11.1774L 44.3568 11.1774L 44.3568 12.1774L 63.2701 12.1774L 63.2701 11.1774ZM 43.896 11.4834L 34.7166 33.2899L 35.6383 33.6779L 44.8177 11.8714L 43.896 11.4834Z"/>
<path id="path18_fill" d="M 65.8576 12.5806L 0 12.5806L 0 0L 65.8576 0L 65.8576 12.5806ZM 2.58748 9.87097L 63.2701 9.87097L 63.2701 2.70968L 2.58748 2.70968L 2.58748 9.87097Z"/>
<path id="path19_stroke_2x" d="M 65.8576 12.5806L 65.8576 13.0806L 66.3576 13.0806L 66.3576 12.5806L 65.8576 12.5806ZM 0 12.5806L -0.5 12.5806L -0.5 13.0806L 0 13.0806L 0 12.5806ZM 0 0L 0 -0.5L -0.5 -0.5L -0.5 0L 0 0ZM 65.8576 0L 66.3576 0L 66.3576 -0.5L 65.8576 -0.5L 65.8576 0ZM 2.58748 9.87097L 2.08748 9.87097L 2.08748 10.371L 2.58748 10.371L 2.58748 9.87097ZM 63.2701 9.87097L 63.2701 10.371L 63.7701 10.371L 63.7701 9.87097L 63.2701 9.87097ZM 63.2701 2.70968L 63.7701 2.70968L 63.7701 2.20968L 63.2701 2.20968L 63.2701 2.70968ZM 2.58748 2.70968L 2.58748 2.20968L 2.08748 2.20968L 2.08748 2.70968L 2.58748 2.70968ZM 65.8576 12.0806L 0 12.0806L 0 13.0806L 65.8576 13.0806L 65.8576 12.0806ZM 0.5 12.5806L 0.5 0L -0.5 0L -0.5 12.5806L 0.5 12.5806ZM 0 0.5L 65.8576 0.5L 65.8576 -0.5L 0 -0.5L 0 0.5ZM 65.3576 0L 65.3576 12.5806L 66.3576 12.5806L 66.3576 0L 65.3576 0ZM 2.58748 10.371L 63.2701 10.371L 63.2701 9.37097L 2.58748 9.37097L 2.58748 10.371ZM 63.7701 9.87097L 63.7701 2.70968L 62.7701 2.70968L 62.7701 9.87097L 63.7701 9.87097ZM 63.2701 2.20968L 2.58748 2.20968L 2.58748 3.20968L 63.2701 3.20968L 63.2701 2.20968ZM 2.08748 2.70968L 2.08748 9.87097L 3.08748 9.87097L 3.08748 2.70968L 2.08748 2.70968Z"/>
<path id="path20_fill" d="M 65.8576 12.5806L 0 12.5806L 0 -1.96888e-06L 65.8576 -1.96888e-06L 65.8576 12.5806ZM 2.58748 9.87097L 63.2701 9.87097L 63.2701 2.70967L 2.58748 2.70967L 2.58748 9.87097Z"/>
<path id="path21_stroke_2x" d="M 65.8576 12.5806L 65.8576 13.0806L 66.3576 13.0806L 66.3576 12.5806L 65.8576 12.5806ZM 0 12.5806L -0.5 12.5806L -0.5 13.0806L 0 13.0806L 0 12.5806ZM 0 -1.96888e-06L 0 -0.500002L -0.5 -0.500002L -0.5 -1.96888e-06L 0 -1.96888e-06ZM 65.8576 -1.96888e-06L 66.3576 -1.96888e-06L 66.3576 -0.500002L 65.8576 -0.500002L 65.8576 -1.96888e-06ZM 2.58748 9.87097L 2.08748 9.87097L 2.08748 10.371L 2.58748 10.371L 2.58748 9.87097ZM 63.2701 9.87097L 63.2701 10.371L 63.7701 10.371L 63.7701 9.87097L 63.2701 9.87097ZM 63.2701 2.70967L 63.7701 2.70967L 63.7701 2.20967L 63.2701 2.20967L 63.2701 2.70967ZM 2.58748 2.70967L 2.58748 2.20967L 2.08748 2.20967L 2.08748 2.70967L 2.58748 2.70967ZM 65.8576 12.0806L 0 12.0806L 0 13.0806L 65.8576 13.0806L 65.8576 12.0806ZM 0.5 12.5806L 0.5 -1.96888e-06L -0.5 -1.96888e-06L -0.5 12.5806L 0.5 12.5806ZM 0 0.499998L 65.8576 0.499998L 65.8576 -0.500002L 0 -0.500002L 0 0.499998ZM 65.3576 -1.96888e-06L 65.3576 12.5806L 66.3576 12.5806L 66.3576 -1.96888e-06L 65.3576 -1.96888e-06ZM 2.58748 10.371L 63.2701 10.371L 63.2701 9.37097L 2.58748 9.37097L 2.58748 10.371ZM 63.7701 9.87097L 63.7701 2.70967L 62.7701 2.70967L 62.7701 9.87097L 63.7701 9.87097ZM 63.2701 2.20967L 2.58748 2.20967L 2.58748 3.20967L 63.2701 3.20967L 63.2701 2.20967ZM 2.08748 2.70967L 2.08748 9.87097L 3.08748 9.87097L 3.08748 2.70967L 2.08748 2.70967Z"/>
<path id="path22_fill" d="M 65.8576 12.5806L 0 12.5806L 0 -3.93775e-06L 65.8576 -3.93775e-06L 65.8576 12.5806ZM 2.58748 9.87097L 63.2701 9.87097L 63.2701 2.70968L 2.58748 2.70968L 2.58748 9.87097Z"/>
<path id="path23_stroke_2x" d="M 65.8576 12.5806L 65.8576 13.0806L 66.3576 13.0806L 66.3576 12.5806L 65.8576 12.5806ZM 0 12.5806L -0.5 12.5806L -0.5 13.0806L 0 13.0806L 0 12.5806ZM 0 -3.93775e-06L 0 -0.500004L -0.5 -0.500004L -0.5 -3.93775e-06L 0 -3.93775e-06ZM 65.8576 -3.93775e-06L 66.3576 -3.93775e-06L 66.3576 -0.500004L 65.8576 -0.500004L 65.8576 -3.93775e-06ZM 2.58748 9.87097L 2.08748 9.87097L 2.08748 10.371L 2.58748 10.371L 2.58748 9.87097ZM 63.2701 9.87097L 63.2701 10.371L 63.7701 10.371L 63.7701 9.87097L 63.2701 9.87097ZM 63.2701 2.70968L 63.7701 2.70968L 63.7701 2.20968L 63.2701 2.20968L 63.2701 2.70968ZM 2.58748 2.70968L 2.58748 2.20968L 2.08748 2.20968L 2.08748 2.70968L 2.58748 2.70968ZM 65.8576 12.0806L 0 12.0806L 0 13.0806L 65.8576 13.0806L 65.8576 12.0806ZM 0.5 12.5806L 0.5 -3.93775e-06L -0.5 -3.93775e-06L -0.5 12.5806L 0.5 12.5806ZM 0 0.499996L 65.8576 0.499996L 65.8576 -0.500004L 0 -0.500004L 0 0.499996ZM 65.3576 -3.93775e-06L 65.3576 12.5806L 66.3576 12.5806L 66.3576 -3.93775e-06L 65.3576 -3.93775e-06ZM 2.58748 10.371L 63.2701 10.371L 63.2701 9.37097L 2.58748 9.37097L 2.58748 10.371ZM 63.7701 9.87097L 63.7701 2.70968L 62.7701 2.70968L 62.7701 9.87097L 63.7701 9.87097ZM 63.2701 2.20968L 2.58748 2.20968L 2.58748 3.20968L 63.2701 3.20968L 63.2701 2.20968ZM 2.08748 2.70968L 2.08748 9.87097L 3.08748 9.87097L 3.08748 2.70968L 2.08748 2.70968Z"/>
<path id="path24_fill" d="M 65.8576 12.5806L 0 12.5806L 0 3.93775e-06L 65.8576 3.93775e-06L 65.8576 12.5806ZM 2.58748 9.87096L 63.2701 9.87096L 63.2701 2.70968L 2.58748 2.70968L 2.58748 9.87096Z"/>
<path id="path25_stroke_2x" d="M 65.8576 12.5806L 65.8576 13.0806L 66.3576 13.0806L 66.3576 12.5806L 65.8576 12.5806ZM 0 12.5806L -0.5 12.5806L -0.5 13.0806L 0 13.0806L 0 12.5806ZM 0 3.93775e-06L 0 -0.499996L -0.5 -0.499996L -0.5 3.93775e-06L 0 3.93775e-06ZM 65.8576 3.93775e-06L 66.3576 3.93775e-06L 66.3576 -0.499996L 65.8576 -0.499996L 65.8576 3.93775e-06ZM 2.58748 9.87096L 2.08748 9.87096L 2.08748 10.371L 2.58748 10.371L 2.58748 9.87096ZM 63.2701 9.87096L 63.2701 10.371L 63.7701 10.371L 63.7701 9.87096L 63.2701 9.87096ZM 63.2701 2.70968L 63.7701 2.70968L 63.7701 2.20968L 63.2701 2.20968L 63.2701 2.70968ZM 2.58748 2.70968L 2.58748 2.20968L 2.08748 2.20968L 2.08748 2.70968L 2.58748 2.70968ZM 65.8576 12.0806L 0 12.0806L 0 13.0806L 65.8576 13.0806L 65.8576 12.0806ZM 0.5 12.5806L 0.5 3.93775e-06L -0.5 3.93775e-06L -0.5 12.5806L 0.5 12.5806ZM 0 0.500004L 65.8576 0.500004L 65.8576 -0.499996L 0 -0.499996L 0 0.500004ZM 65.3576 3.93775e-06L 65.3576 12.5806L 66.3576 12.5806L 66.3576 3.93775e-06L 65.3576 3.93775e-06ZM 2.58748 10.371L 63.2701 10.371L 63.2701 9.37096L 2.58748 9.37096L 2.58748 10.371ZM 63.7701 9.87096L 63.7701 2.70968L 62.7701 2.70968L 62.7701 9.87096L 63.7701 9.87096ZM 63.2701 2.20968L 2.58748 2.20968L 2.58748 3.20968L 63.2701 3.20968L 63.2701 2.20968ZM 2.08748 2.70968L 2.08748 9.87096L 3.08748 9.87096L 3.08748 2.70968L 2.08748 2.70968Z"/>
<path id="path26_fill" d="M 198.085 2.748L 393.883 115.874L 393.883 342.126L 198.085 455.252L 2.28736 342.126L 2.28736 115.874L 198.085 2.748ZM 198.085 0L 5.45348e-08 114.5L 5.45348e-08 343.5L 198.085 458L 396.17 343.5L 396.17 114.5L 198.085 0Z"/>
<path id="path27_stroke" d="M 201.287 114.5L 200.793 115.369L 201.293 115.654L 201.79 115.364L 201.287 114.5ZM -0.494441 0.869211L 200.793 115.369L 201.782 113.631L 0.494441 -0.869211L -0.494441 0.869211ZM 201.79 115.364L 398.503 0.864255L 397.497 -0.864255L 200.784 113.636L 201.79 115.364Z"/>
<path id="path28_fill" d="M 13 6.5C 13 10.0899 10.0899 13 6.5 13C 2.91015 13 0 10.0899 0 6.5C 0 2.91015 2.91015 0 6.5 0C 10.0899 0 13 2.91015 13 6.5Z"/>
<path id="path29_stroke" d="M -1 0L -1 224.42L 1 224.42L 1 0L -1 0Z"/>
</defs>
</svg>
